<svg
   xmlns="http://www.w3.org/2000/svg"
   id="svg8"
   version="1.1"
   viewBox="0 0 190.5 95.250003"
   height="360"
   width="720">
  <g id="layer1">
    <path
       style="stroke:#d8dee9;stroke-width:1.32292;stroke-linejoin:round;stroke-miterlimit:5;stroke-dasharray:none;stroke-opacity:1"
       fill="#fffefb"
       d="M 20.465523,34.287351 H 189.83854 V 88.370829 H 20.465523 Z"
       id="path841" />
    <path
       style="stroke-width:0.264583"
       fill="#f386ae"
       d="m 97.157647,69.67008 15.044203,9.199562 15.55221,-8.903229 -15.55221,-8.903229 z"
       id="path843" />
    <path
       style="stroke-width:0.264583"
       fill="#f2b4ce"
       d="m 112.20185,43.25408 v 17.809104 l 15.55221,8.903229 V 52.159955 Z m 0,0 V 61.063184 L 97.157647,69.67008 V 52.159955 Z"
       id="path845" />
    <path
       style="stroke-width:0.264583"
       d="m 127.75406,52.821413 a 0.66939582,0.66939582 0 0 1 -0.32808,-0.08731 L 112.2045,44.018726 97.369313,52.641497 a 0.66145832,0.66145832 0 1 1 -0.664104,-1.143 L 111.87906,42.68258 a 0.66410416,0.66410416 0 0 1 0.66146,0 l 15.55221,8.905875 a 0.66145832,0.66145832 0 0 1 -0.33867,1.232958 z"
       fill="#bb1e52"
       id="path847" />
    <g
       transform="matrix(0.26458333,0,0,0.26458333,21.126981,34.287351)"
       fill="#bb1e52"
       id="g851">
      <path
         d="m 341.72,36.39 v -2.5 a 2.5,2.5 0 1 1 5,0 v 2.5 m -2.5,24.49 a 2.49,2.49 0 0 1 -2.5,-2.5 v -3.66 a 2.5,2.5 0 0 1 5,0 v 3.66 a 2.5,2.5 0 0 1 -2.5,2.5 z m 0,-11 a 2.49,2.49 0 0 1 -2.5,-2.5 v -3.66 a 2.5,2.5 0 0 1 5,0 v 3.67 a 2.5,2.5 0 0 1 -2.5,2.5 z m 0,43.99 a 2.49,2.49 0 0 1 -2.5,-2.5 V 87.7 a 2.5,2.5 0 1 1 5,0 v 3.67 a 2.5,2.5 0 0 1 -2.5,2.5 z m 0,-11 a 2.49,2.49 0 0 1 -2.5,-2.5 v -3.66 a 2.5,2.5 0 1 1 5,0 v 3.66 a 2.5,2.5 0 0 1 -2.5,2.5 z m 0,-11 a 2.49,2.49 0 0 1 -2.5,-2.5 v -3.66 a 2.5,2.5 0 0 1 5,0 v 3.67 a 2.5,2.5 0 0 1 -2.5,2.5 z m 0,31.83 a 2.49,2.49 0 0 1 -2.5,-2.5 v -2.5 a 2.5,2.5 0 1 1 5,0 v 2.5 a 2.5,2.5 0 0 1 -2.5,2.5 z"
         id="path849" />
    </g>
    <path
       style="stroke-width:0.264583"
       d="M 127.75406,70.627871 A 0.66145832,0.66145832 0 0 1 127.0926,69.966413 V 52.159955 a 0.66146,0.66146 0 0 1 1.32292,0 v 17.806458 a 0.66145832,0.66145832 0 0 1 -0.66146,0.661458 z m -30.715476,-0.0926 A 0.65881249,0.65881249 0 0 1 96.377126,69.873809 V 52.069997 a 0.6614585,0.6614585 0 1 1 1.322917,0 v 17.809104 a 0.66145832,0.66145832 0 0 1 -0.661459,0.656166 z"
       fill="#bb1e52"
       id="path853" />
    <g
       transform="matrix(0.26458333,0,0,0.26458333,21.126981,34.287351)"
       fill="#bb1e52"
       id="g857">
      <path
         d="m 402.07,132.11 2.17,1.24 A 2.5,2.5 0 0 1 403,138 a 2.53,2.53 0 0 1 -1.24,-0.33 l -2.17,-1.24 m -5.17,-3.32 a 2.53,2.53 0 0 1 -1.24,-0.33 L 390,131 a 2.5,2.5 0 1 1 2.48,-4.34 l 3.21,1.83 a 2.5,2.5 0 0 1 -1.25,4.67 z m -9.61,-5.5 a 2.56,2.56 0 0 1 -1.24,-0.33 l -3.2,-1.83 a 2.5017844,2.5017844 0 1 1 2.49,-4.34 l 3.2,1.83 a 2.5,2.5 0 0 1 -1.25,4.67 z m -9.6,-5.5 a 2.5,2.5 0 0 1 -1.24,-0.33 l -3.21,-1.84 a 2.5,2.5 0 1 1 2.49,-4.33 l 3.2,1.83 a 2.5,2.5 0 0 1 -1.24,4.67 z m -9.61,-5.5 a 2.53,2.53 0 0 1 -1.24,-0.33 l -3.2,-1.84 a 2.5,2.5 0 0 1 2.48,-4.34 l 3.2,1.84 a 2.5,2.5 0 0 1 -1.24,4.67 z m -9.61,-5.5 a 2.53,2.53 0 0 1 -1.24,-0.33 l -3.2,-1.84 A 2.5,2.5 0 0 1 354,104.6 l 3.2,1.84 a 2.5,2.5 0 0 1 -1.24,4.67 z m -32.63,5.39 a 2.5,2.5 0 0 1 -1.26,-4.67 l 3.11,-1.81 a 2.5006399,2.5006399 0 0 1 2.52,4.32 l -3.12,1.82 a 2.5,2.5 0 0 1 -1.25,0.34 z m 9.35,-5.44 a 2.52,2.52 0 0 1 -2.17,-1.25 2.49,2.49 0 0 1 0.91,-3.41 l 3.11,-1.81 a 2.5006399,2.5006399 0 1 1 2.52,4.32 l -3.08,1.81 a 2.48,2.48 0 0 1 -1.29,0.34 z m -37.41,21.75 a 2.51,2.51 0 0 1 -1.26,-4.67 l 3.12,-1.81 a 2.5,2.5 0 1 1 2.51,4.32 l -3.11,1.82 a 2.51,2.51 0 0 1 -1.26,0.34 z m 9.35,-5.44 a 2.5,2.5 0 0 1 -1.26,-4.66 l 3.12,-1.82 a 2.5024488,2.5024488 0 0 1 2.51,4.33 l -3.11,1.78 a 2.51,2.51 0 0 1 -1.26,0.37 z m 9.35,-5.44 a 2.5,2.5 0 0 1 -1.25,-4.66 l 3.11,-1.81 a 2.5006399,2.5006399 0 0 1 2.52,4.32 l -3.12,1.81 a 2.51,2.51 0 0 1 -1.26,0.34 z m -23.68,14.16 -2.16,1.26 a 2.48,2.48 0 0 1 -1.25,0.34 2.5,2.5 0 0 1 -1.26,-4.67 l 2.16,-1.25"
         id="path855" />
    </g>
    <g
       transform="matrix(0.26458333,0,0,0.26458333,21.126981,34.287351)"
       fill="#333d51"
       id="g861">
      <path
         d="M 88.57,128.18 A 7.83,7.83 0 0 1 80.42,136 H 51 a 7.88,7.88 0 0 1 -7.86,-7.85 V 73.76 C 43.17,68.62 45.89,66 51,66 h 29.42 c 4.85,0 8.15,3.1 8.15,7.76 V 81 c 0,2.61 -1.56,4.07 -4.56,4.07 -3,0 -4.56,-1.42 -4.56,-4.07 V 74.92 H 52.09 v 52.19 h 27.36 v -11.35 c 0,-2.81 1.45,-4.17 4.56,-4.17 3.11,0 4.56,1.36 4.56,4.17 z m 18.72,-57.72 v 56 c 0,0.49 0.19,0.68 0.58,0.68 h 27.94 c 0.48,0 0.67,-0.19 0.67,-0.68 v -56 c 0,-3 1.56,-4.46 4.47,-4.46 2.91,0 4.46,1.46 4.46,4.46 v 56.16 c 0,5 -3.59,9.41 -8.54,9.41 h -29.39 a 9.23,9.23 0 0 1 -9.12,-9.41 V 70.46 c 0,-3 1.46,-4.46 4.47,-4.46 3.01,0 4.46,1.46 4.46,4.46 z m 93.21,57.72 a 7.83,7.83 0 0 1 -8.14,7.85 H 158 c -1.85,0 -2.91,-1.06 -2.91,-3.29 V 68.81 c 0,-1.94 1.06,-2.81 2.91,-2.81 h 34.34 c 4.85,0 8.14,3.1 8.14,7.76 v 18 c 0,4.17 -1.94,6.79 -5.72,7.76 3.78,1 5.72,3.3 5.72,7.08 z M 191.39,74.92 H 164 v 20 h 24.64 c 1.75,0 2.72,-0.78 2.72,-2.53 z m 0.09,31.43 c 0,-1.74 -1.06,-2.52 -2.81,-2.52 H 164 v 23.28 h 27.45 z M 251,66 c 3,0 4.46,1.46 4.46,4.46 0,3 -1.45,4.46 -4.46,4.46 H 219.22 V 95 h 20.47 c 2.91,0 4.46,1.46 4.46,4.47 0,3.01 -1.55,4.46 -4.46,4.46 h -20.47 v 23.18 h 33.66 c 3,0 4.47,1.45 4.47,4.46 0,3.01 -1.46,4.46 -4.47,4.46 h -38.12 a 4.51,4.51 0 0 1 -4.46,-4.46 V 70.46 A 4.58,4.58 0 0 1 214.76,66 Z"
         id="path859" />
    </g>
    <g
       transform="matrix(0.26458333,0,0,0.26458333,21.126981,34.287351)"
       fill="#333d51"
       id="g865">
      <path
         d="m 480.64,128.24 a 7.84,7.84 0 0 1 -8.15,7.86 H 443.1 a 7.88,7.88 0 0 1 -7.85,-7.86 V 73.82 c 0,-5.14 2.71,-7.76 7.85,-7.76 h 29.39 c 4.85,0 8.15,3.11 8.15,7.76 v 7.28 c 0,2.62 -1.55,4.07 -4.56,4.07 -3.01,0 -4.56,-1.45 -4.56,-4.07 V 75 h -27.35 v 52.18 h 27.35 v -11.35 c 0,-2.82 1.46,-4.18 4.56,-4.18 3.1,0 4.56,1.36 4.56,4.18 z m 55.87,3.4 a 4.58,4.58 0 0 1 -4.46,4.46 H 496 a 4.52,4.52 0 0 1 -4.47,-4.46 v -8.54 c 0,-3 1.46,-4.46 4.47,-4.46 3.01,0 4.36,2 4.36,6.3 v 2.23 h 27.26 V 105.06 H 496.16 A 4.45,4.45 0 0 1 491.7,100.6 V 70.53 a 4.59,4.59 0 0 1 4.46,-4.47 h 35.89 a 4.65,4.65 0 0 1 4.46,4.47 v 7 c 0,2.91 -1.55,4.46 -4.46,4.46 -2.91,0 -4.46,-1.55 -4.46,-4.46 V 75 h -27 v 21.13 h 31.43 a 4.73,4.73 0 0 1 4.46,4.47 z m 55.97,0 A 4.58,4.58 0 0 1 588,136.1 h -36.06 a 4.52,4.52 0 0 1 -4.47,-4.46 v -8.54 c 0,-3 1.46,-4.46 4.47,-4.46 3.01,0 4.36,2 4.36,6.3 v 2.23 h 27.26 v -22.11 h -31.43 a 4.44,4.44 0 0 1 -4.46,-4.46 V 70.53 a 4.58,4.58 0 0 1 4.46,-4.47 H 588 a 4.65,4.65 0 0 1 4.46,4.47 v 7 c 0,2.91 -1.55,4.46 -4.46,4.46 -2.91,0 -4.46,-1.55 -4.46,-4.46 V 75 h -27 V 96.13 H 588 a 4.73,4.73 0 0 1 4.46,4.47 z"
         id="path863" />
    </g>
    <path
       style="stroke-width:0.264583"
       d="m 112.20185,79.5311 a 0.66145832,0.66145832 0 0 1 -0.33866,-0.08996 L 96.699918,70.445309 a 0.66145832,0.66145832 0 0 1 0.674687,-1.137708 l 14.832545,8.794749 15.21883,-8.712729 a 0.66145832,0.66145832 0 0 1 0.65617,1.148292 l -15.55221,8.903229 a 0.66939582,0.66939582 0 0 1 -0.32809,0.08996 z"
       fill="#bb1e52"
       id="path867" />
    <path
       style="stroke-width:0.264583"
       d="M 112.20185,79.5311 A 0.65881249,0.65881249 0 0 1 111.5404,78.869642 V 61.063184 a 0.66145832,0.66145832 0 1 1 1.32291,0 v 17.806458 a 0.65881249,0.65881249 0 0 1 -0.66146,0.661458 z"
       fill="#bb1e52"
       id="path869" />
    <path
       style="stroke-width:0.264583"
       d="m 112.20185,61.724642 a 0.66145832,0.66145832 0 0 1 -0.32279,-1.243541 l 15.55486,-8.903229 a 0.66145832,0.66145832 0 1 1 0.65616,1.148291 l -15.5522,8.903229 a 0.66939582,0.66939582 0 0 1 -0.33603,0.09525 z"
       fill="#bb1e52"
       id="path871" />
    <path
       style="stroke-width:0.264583"
       d="m 112.19921,61.724642 a 0.65087499,0.65087499 0 0 1 -0.33602,-0.0926 L 96.699918,52.636205 a 0.66145832,0.66145832 0 0 1 0.674687,-1.137708 l 15.163275,8.995833 a 0.66145832,0.66145832 0 0 1 -0.33867,1.230312 z"
       fill="#bb1e52"
       id="path873" />
  </g>
</svg>
