<svg
   xmlns="http://www.w3.org/2000/svg"
   id="svg843"
   preserveAspectRatio="xMidYMid meet"
   viewBox="0 0 539.99998 269.99999"
   height="360"
   width="720"
   version="1.0">
  <circle
     r="135"
     cy="135"
     cx="404.99997"
     id="path849"
     style="fill:#ffffff;stroke-width:6.90471" />
  <g
     id="g841"
     stroke="none"
     fill="#000000"
     transform="matrix(0.03320282,0,0,-0.03320282,237.6634,304.67205)">
    <path
       id="path835"
       d="m 4720,9174 c -19,-2 -80,-9 -135,-14 -782,-82 -1552,-413 -2180,-939 -116,-96 -380,-360 -476,-476 -520,-621 -824,-1318 -936,-2143 -25,-183 -25,-801 0,-984 112,-825 416,-1522 936,-2143 96,-116 360,-380 476,-476 621,-520 1318,-824 2143,-936 183,-25 801,-25 984,0 825,112 1522,416 2143,936 116,96 380,360 476,476 520,621 824,1318 936,2143 25,183 25,801 0,984 -112,825 -416,1522 -936,2143 -96,116 -360,380 -476,476 -619,518 -1323,826 -2137,935 -88,12 -216,17 -453,19 -181,2 -346,1 -365,-1 z m 50,-432 c 0,-117 8,-371 19,-612 6,-118 13,-287 16,-375 11,-312 44,-1131 49,-1204 l 5,-73 -45,5 c -25,2 -48,8 -52,11 -3,4 -10,73 -14,154 -18,356 -77,1737 -83,1939 l -6,222 28,4 c 15,2 40,5 56,6 l 27,1 z m 957,24 c 1,-1 4,-303 7,-671 4,-369 9,-700 12,-736 3,-37 2,-69 -3,-71 -4,-3 -29,-3 -54,0 l -46,4 -7,291 c -4,161 -9,339 -11,397 -8,177 -15,778 -9,793 4,11 15,12 57,5 29,-6 53,-11 54,-12 z M 3414,8431 c 6,-9 53,-560 111,-1281 19,-245 38,-469 41,-497 5,-51 4,-53 -28,-73 -18,-11 -36,-20 -40,-20 -3,0 -9,26 -12,58 -14,130 -68,758 -106,1212 -22,267 -42,506 -45,532 -5,44 -4,48 22,62 32,17 50,20 57,7 z m 2753,-201 c 28,-10 31,-15 37,-72 10,-100 7,-578 -4,-578 -29,0 -89,34 -94,53 -3,12 -6,154 -6,315 0,325 -4,306 67,282 z m -1847,-47 c 0,-27 7,-176 15,-333 8,-157 17,-356 21,-442 7,-174 9,-168 -58,-172 -33,-1 -33,-1 -35,49 -2,28 -7,115 -13,195 -5,80 -17,253 -25,385 -8,132 -18,263 -21,291 -6,50 -5,52 22,62 16,6 44,11 62,11 32,1 32,1 32,-46 z m 2774,-137 34,-14 7,-134 c 3,-73 5,-231 3,-350 l -3,-218 -42,21 -42,20 -3,332 c -2,183 -1,338 1,345 4,15 4,15 45,-2 z M 5268,7915 c 6,-6 20,-491 21,-737 l 1,-148 -47,7 c -27,3 -49,6 -50,7 -3,2 -33,743 -33,815 v 74 l 51,-6 c 29,-4 54,-9 57,-12 z m 2303,-71 c 12,-14 14,-233 17,-1441 3,-1387 3,-1423 -15,-1423 -11,0 -26,6 -35,13 -15,11 -17,132 -22,1317 -4,718 -9,1370 -12,1449 l -6,144 29,-21 c 17,-12 36,-29 44,-38 z m -897,-205 c 5,-4 10,-61 11,-126 5,-221 6,-1576 1,-1580 -2,-2 -20,3 -40,11 l -36,15 v 851 850 l 28,-6 c 15,-4 31,-10 36,-15 z m -2760,-56 c 3,-27 8,-88 11,-138 3,-49 10,-161 16,-248 12,-176 10,-187 -47,-187 -30,0 -34,3 -38,33 -10,59 -45,551 -40,559 5,7 57,25 81,27 6,1 14,-20 17,-46 z M 2260,7328 c 11,-106 33,-328 49,-493 17,-165 31,-305 31,-311 0,-12 -77,-50 -85,-42 -5,5 -105,890 -105,930 0,24 77,125 87,114 3,-2 13,-91 23,-198 z m 3921,-105 29,-17 1,-216 c 1,-118 3,-250 3,-293 2,-90 -9,-105 -63,-86 l -31,11 v 86 c 0,48 -3,187 -7,310 l -6,222 h 23 c 12,0 35,-8 51,-17 z M 2699,6835 c 18,-192 47,-516 66,-720 l 34,-370 -39,-39 -38,-39 -7,79 c -4,44 -24,248 -45,454 -21,206 -51,505 -66,664 l -28,288 39,36 c 35,33 39,34 46,16 4,-10 21,-176 38,-369 z m -749,-121 c 22,-197 80,-721 130,-1164 50,-443 97,-870 106,-950 8,-80 22,-201 30,-270 14,-117 14,-125 -2,-137 -24,-18 -34,-16 -34,5 0,9 -9,85 -20,167 -18,137 -48,369 -115,890 -14,105 -41,314 -60,465 -20,151 -49,376 -65,500 -16,124 -43,336 -60,473 -18,136 -29,257 -26,270 7,27 66,121 72,115 2,-3 22,-166 44,-364 z m -306,-431 c 15,-120 43,-339 62,-488 19,-148 43,-333 54,-410 l 19,-140 -21,-18 c -12,-10 -24,-14 -28,-10 -4,4 -12,44 -18,88 -6,44 -43,301 -83,570 l -71,490 23,68 c 12,37 25,67 28,67 4,0 19,-98 35,-217 z m 5490,131 c 14,-14 16,-76 16,-535 v -519 h -28 c -61,0 -60,-15 -64,553 l -3,517 h 32 c 17,0 39,-7 47,-16 z M 4945,6235 c 226,-34 423,-97 618,-197 126,-65 186,-110 326,-244 208,-199 336,-373 456,-619 175,-358 243,-675 329,-1525 39,-381 90,-1072 101,-1355 3,-82 10,-217 16,-300 11,-176 24,-152 -131,-227 -215,-104 -422,-176 -695,-243 -334,-82 -550,-108 -880,-109 l -240,-1 2,115 c 0,63 6,210 12,325 30,557 24,1260 -15,1650 -22,224 -65,496 -89,556 -5,13 18,24 117,58 181,63 338,142 362,181 43,74 -34,180 -132,180 -17,0 -68,-18 -115,-39 -224,-103 -673,-224 -932,-251 -179,-19 -457,-8 -650,27 -105,19 -293,90 -450,171 -181,94 -292,219 -325,367 -18,80 -13,240 10,330 25,99 95,243 159,327 285,375 873,700 1476,814 192,36 464,40 670,9 z m 3085,-31 c 36,-15 40,-19 40,-53 2,-273 -4,-897 -9,-923 -1,-9 -53,-10 -75,-2 -14,5 -16,59 -16,500 0,316 4,494 10,494 5,0 28,-7 50,-16 z m 437,-549 36,-15 -7,-828 c -8,-1055 -9,-1086 -47,-1177 -62,-149 -59,-179 -53,475 2,327 7,658 9,735 2,77 4,294 5,483 0,228 3,342 10,342 6,0 27,-7 47,-15 z M 2453,5406 c 6,-81 4,-89 -25,-153 l -32,-68 -12,100 c -19,160 -19,167 19,191 17,12 35,20 38,18 3,-2 9,-42 12,-88 z m -618,-603 c 9,-82 79,-626 115,-893 54,-413 58,-472 34,-447 -3,3 -26,142 -50,309 -156,1078 -155,1071 -142,1079 27,18 36,8 43,-48 z m 720,-458 c 6,-25 35,-296 35,-329 0,-28 -36,-54 -52,-38 -5,5 -18,90 -28,188 -11,99 -22,202 -25,229 l -6,50 35,-40 c 20,-22 38,-49 41,-60 z m 807,-377 c 11,-10 18,-50 27,-158 15,-195 17,-180 -24,-180 -42,0 -41,-3 -55,173 -14,179 -14,177 13,177 13,0 30,-6 39,-12 z m 792,-15 c 2,-10 7,-70 11,-133 3,-63 12,-205 20,-315 28,-404 29,-455 12,-455 -19,0 -21,15 -43,300 -8,118 -23,304 -33,413 -9,109 -15,200 -12,202 11,12 40,3 45,-12 z M 2274,3761 c 6,-9 44,-329 91,-766 14,-132 28,-259 31,-283 l 5,-43 -25,16 c -19,13 -26,26 -26,49 0,63 -43,478 -76,732 -19,144 -34,271 -34,283 0,21 24,29 34,12 z m 5771,-418 -7,-418 -25,-37 c -57,-84 -54,-100 -51,368 l 2,429 37,38 c 20,20 40,37 44,37 3,0 3,-188 0,-417 z m -925,-663 c 5,-581 4,-626 -12,-644 -10,-11 -19,-18 -22,-15 -7,8 -17,1275 -9,1282 4,4 14,6 23,5 13,-3 16,-74 20,-628 z m -3266,398 c 7,-62 32,-359 42,-499 6,-94 6,-97 -16,-104 -12,-4 -26,-3 -30,2 -7,7 -29,229 -56,571 l -7,82 h 31 c 29,0 31,-2 36,-52 z m -786,-350 c 7,-7 12,-32 12,-57 0,-26 12,-161 25,-301 38,-383 41,-435 24,-425 -26,15 -49,38 -44,44 2,4 -2,54 -10,111 -7,58 -16,152 -20,210 -4,58 -13,164 -21,235 -19,175 -18,195 4,195 10,0 23,-5 30,-12 z m 473,-673 c 3,-22 9,-104 13,-182 7,-150 4,-161 -37,-130 -12,9 -20,47 -32,161 -21,206 -22,198 17,194 29,-3 33,-7 39,-43 z" />
    <path
       id="path837"
       d="m 3184,5756 c -104,-45 -112,-186 -14,-236 71,-36 143,-19 180,43 70,114 -44,246 -166,193 z" />
    <path
       id="path839"
       d="m 3862,5660 c -96,-59 -96,-201 0,-260 95,-57 218,18 218,132 0,110 -126,184 -218,128 z" />
  </g>
</svg>
