<svg
   xmlns="http://www.w3.org/2000/svg"
   xmlns:xlink="http://www.w3.org/1999/xlink"
   id="svg8"
   version="1.1"
   viewBox="0 0 190.5 95.250003"
   height="360"
   width="720">
  <g id="layer1">
    <circle
       r="33.499237"
       fill="#3f3d56"
       cy="47.51786"
       cx="157.00076"
       stroke-width="0.293593"
       id="ellipse920-9" />
    <g
       id="g1152"
       transform="matrix(0.15094582,0,0,0.15094582,138.25352,20.526849)">
      <g
         id="g861">
        <use
           height="100%"
           width="100%"
           y="0"
           x="0"
           fill="#ffa712"
           fill-rule="evenodd"
           xlink:href="#path-1"
           id="use857" />
        <use
           height="100%"
           width="100%"
           y="0"
           x="0"
           fill="#000000"
           fill-opacity="1"
           filter="url(#filter-2)"
           xlink:href="#path-1"
           id="use859" />
      </g>
      <g
         id="g1112">
        <g
           id="g1077">
          <path
             d="M 0,282.99762 2.1225075,280.0256 102.52736,89.511928 102.73942,87.495132 58.478806,4.3581771 C 54.770627,-2.6060418 44.331303,-0.84524577 43.114348,6.9506547 Z"
             fill="#ffc24a"
             id="path855" />
          <path
             d="M 135.00497,150.3807 167.9602,116.62946 134.99542,53.699311 c -3.12931,-5.956776 -11.8666,-5.97397 -14.9628,0 l -17.61161,33.588774 v 2.860659 z"
             fill="#f4bd62"
             id="path863" />
          <g
             id="g869">
            <use
               height="100%"
               width="100%"
               y="0"
               x="0"
               fill="#ffa50e"
               fill-rule="evenodd"
               xlink:href="#path-3"
               id="use865" />
            <use
               height="100%"
               width="100%"
               y="0"
               x="0"
               fill="#000000"
               fill-opacity="1"
               filter="url(#filter-4)"
               xlink:href="#path-3"
               id="use867" />
          </g>
          <polygon
             fill="#f6820c"
             points="4.4577114,280.60956 132.93532,152.60956 134.56303,148.1786 102.51312,87.104858 0,282.99762 0.96209717,282.0304 "
             id="polygon871" />
          <path
             d="M 139.12097,347.55127 255.39592,282.70367 222.1917,78.209337 c -1.03865,-6.398089 -8.88804,-8.927522 -13.46739,-4.3399 L 2.5472637e-4,282.99788 115.60845,347.54554 c 7.30619,4.07944 16.20442,4.08135 23.51252,0.006"
             fill="#fde068"
             id="path873" />
          <path
             d="M 254.35408,282.15984 221.40194,79.217937 c -1.03077,-6.349518 -7.55815,-8.976982 -12.10273,-4.424187 L 1.2894531,282.60078 115.62783,346.50946 c 7.25072,4.04847 16.0814,4.05037 23.33402,0.006 z"
             fill="#fcca3f"
             id="path875" />
          <path
             d="m 139.12091,345.64082 c -7.3081,4.07562 -16.20633,4.07371 -23.51252,-0.006 L 0.93134768,282.01455 1.9104478e-4,282.99788 115.60839,347.54554 c 7.30619,4.07944 16.20442,4.08135 23.51252,0.006 l 116.27494,-64.8476 -0.28465,-1.75189 z"
             fill="#eeab37"
             id="path877" />
        </g>
      </g>
    </g>
    <g
       transform="translate(60.727185)"
       id="g1305">
      <circle
         r="33.499237"
         fill="#3f3d56"
         cy="47.625"
         cx="38.065105"
         stroke-width="0.293592"
         id="ellipse920-9-0" />
      <path
         fill="#53c1de"
         d="m 55.869579,38.97679 q -0.882153,-0.302351 -1.778535,-0.560238 0.147618,-0.603812 0.274784,-1.21385 c 1.346352,-6.537008 0.465976,-11.803251 -2.540636,-13.536434 -2.883009,-1.662931 -7.597904,0.07114 -12.360822,4.21424 q -0.704302,0.615373 -1.375699,1.26276 -0.450857,-0.431295 -0.915946,-0.845694 c -4.98968,-4.431221 -9.988255,-6.297794 -12.995758,-4.559275 -2.88034,1.667377 -3.734925,6.617931 -2.521074,12.813458 q 0.177853,0.920392 0.408173,1.830114 c -0.706969,0.200974 -1.390815,0.415287 -2.045316,0.643829 -5.850493,2.035535 -9.587195,5.236899 -9.587195,8.552978 0,3.42457 4.011487,6.859811 10.10564,8.942476 q 0.741648,0.251663 1.493969,0.467756 -0.243661,0.978193 -0.433964,1.972395 c -1.156048,6.087927 -0.252552,10.921985 2.619784,12.578693 2.967485,1.71273 7.947387,-0.04802 12.795672,-4.286271 0.383275,-0.335254 0.76744,-0.690962 1.15605,-1.062675 q 0.72742,0.701632 1.493079,1.362359 c 4.697112,4.04172 9.337312,5.674417 12.20609,4.012376 2.963929,-1.715399 3.927007,-6.908721 2.676697,-13.226081 Q 54.40229,57.615843 54.212873,56.862632 54.738432,56.7079 55.240866,56.541608 c 6.335144,-2.098672 10.457791,-5.492117 10.457791,-8.96293 0,-3.32853 -3.857645,-6.54679 -9.82641,-8.601888 z"
         stroke-width="0.0889268"
         id="path942" />
      <path
         fill="#ffffff"
         d="m 54.496996,54.301897 c -0.302351,0.100487 -0.611817,0.196527 -0.928396,0.290791 a 55.276883,55.276883 0 0 0 -2.798526,-7.001206 55.406716,55.406716 0 0 0 2.690036,-6.898939 c 0.564685,0.163625 1.114252,0.336143 1.642478,0.518444 5.114177,1.75986 8.233729,4.362747 8.233729,6.368935 0,2.134242 -3.369436,4.909647 -8.839321,6.721975 z m -2.269411,4.497915 c 0.553124,2.793191 0.63138,5.318711 0.26678,7.291997 -0.329029,1.774088 -0.990645,2.956815 -1.808771,3.430794 -1.742076,1.007542 -5.466328,-0.302351 -9.483151,-3.758934 q -0.690962,-0.59492 -1.389927,-1.267207 a 55.510761,55.510761 0 0 0 4.632196,-5.881617 55.152386,55.152386 0 0 0 7.484968,-1.156047 q 0.16896,0.682957 0.299682,1.3339 z M 29.273803,69.350085 c -1.702057,0.601145 -3.057302,0.618041 -3.876317,0.145841 -1.742964,-1.005763 -2.467717,-4.890973 -1.478852,-10.09319 q 0.177854,-0.922171 0.402838,-1.834558 a 55.649486,55.649486 0 0 0 7.447617,1.078682 57.365774,57.365774 0 0 0 4.744245,5.860274 q -0.514885,0.498879 -1.052892,0.97019 c -2.144027,1.874578 -4.293386,3.201364 -6.186639,3.872761 z M 21.302408,54.288557 c -2.695369,-0.92128 -4.920317,-2.118235 -6.446301,-3.42368 -1.370362,-1.173834 -2.062211,-2.339663 -2.062211,-3.284955 0,-2.012414 3.000388,-4.57973 8.003409,-6.323583 q 0.942623,-0.32814 1.902144,-0.598478 a 56.65347,56.65347 0 0 0 2.693592,6.978973 57.472486,57.472486 0 0 0 -2.726495,7.078572 q -0.688294,-0.196528 -1.364138,-0.426849 z m 2.672249,-18.189082 c -1.038665,-5.308039 -0.349482,-9.312412 1.386369,-10.315506 1.848788,-1.067121 5.936752,0.455305 10.246145,4.281824 0.275672,0.244548 0.552235,0.500658 0.828795,0.764771 a 56.547647,56.547647 0 0 0 -4.706894,5.826482 57.6619,57.6619 0 0 0 -7.374696,1.146266 Q 24.14184,36.95673 23.974658,36.100364 Z m 23.842159,5.886063 Q 47.006694,40.58583 46.13699,39.221694 c 1.763418,0.223207 3.452137,0.518443 5.03859,0.881264 a 50.291649,50.291649 0 0 1 -1.768753,4.758472 q -0.76566,-1.453953 -1.590011,-2.875892 z m -9.725033,-9.468033 a 50.626012,50.626012 0 0 1 3.252054,3.925227 q -3.264502,-0.153843 -6.531673,0 c 1.073347,-1.415713 2.173371,-2.73183 3.27962,-3.924338 z m -9.781945,9.48404 q -0.813679,1.411269 -1.560665,2.858106 c -0.687404,-1.630027 -1.275209,-3.233377 -1.755414,-4.781593 1.576671,-0.355706 3.258277,-0.641161 5.010134,-0.86081 q -0.882154,1.373029 -1.695833,2.784297 z m 1.743854,14.108233 a 50.211613,50.211613 0 0 1 -5.091058,-0.819016 c 0.488209,-1.574893 1.089354,-3.212925 1.791874,-4.878522 q 0.749654,1.448616 1.566001,2.859885 0.830577,1.439724 1.731404,2.837653 z m 8.104788,6.698854 c -1.120477,-1.204069 -2.236508,-2.537971 -3.324972,-3.979473 q 1.587342,0.06314 3.233376,0.06314 1.689608,0 3.335644,-0.0747 A 50.149366,50.149366 0 0 1 38.1567,62.808632 Z M 49.424613,50.327759 a 50.049767,50.049767 0 0 1 1.860348,4.860737 49.919045,49.919045 0 0 1 -5.157752,0.879487 q 0.875926,-1.389927 1.696722,-2.812754 0.834133,-1.44595 1.600682,-2.92747 z m -3.645998,1.748301 q -1.255646,2.180483 -2.650908,4.277377 c -1.63981,0.117384 -3.333866,0.177854 -5.060823,0.177854 -1.726957,0 -3.392556,-0.05336 -5.003909,-0.158289 q -1.430832,-2.08978 -2.702485,-4.283604 -1.271654,-2.193823 -2.357449,-4.453452 1.091131,-2.2703 2.350335,-4.455232 1.257423,-2.184041 2.679364,-4.268485 c 1.644254,-0.124497 3.328528,-0.189414 5.032364,-0.189414 1.703839,0 3.398782,0.06581 5.04126,0.190302 q 1.405932,2.078219 2.667803,4.25159 1.261872,2.173371 2.382348,4.434778 -1.107138,2.278304 -2.375234,4.473017 z m 4.870519,-26.363232 c 1.850566,1.067121 2.569984,5.371176 1.40771,11.01536 q -0.114715,0.550456 -0.248993,1.098245 a 56.534308,56.534308 0 0 0 -7.388927,-1.167608 55.593462,55.593462 0 0 0 -4.671322,-5.83004 q 0.622487,-0.599366 1.270763,-1.165831 c 4.07996,-3.550845 7.893139,-4.952331 9.630769,-3.950126 z"
         stroke-width="0.0889268"
         id="path944"
         style="fill:#3f3d56;fill-opacity:1" />
      <path
         fill="#53c1de"
         d="M 38.065105,42.689564 A 4.9354361,4.9354361 0 1 1 33.12967,47.625 4.9345468,4.9345468 0 0 1 38.065105,42.689564"
         stroke-width="0.0889268"
         id="path946" />
    </g>
  </g>
</svg>
