<svg
   xmlns="http://www.w3.org/2000/svg"
   xmlns:xlink="http://www.w3.org/1999/xlink"
   width="720"
   height="360"
   viewBox="0 0 190.5 95.250003"
   version="1.1"
   id="svg8">
  <g
     transform="matrix(0.27167207,0,0,0.27167207,138.25352,20.526842)"
     id="g861">
    <use
       id="use857"
       xlink:href="#path-1"
       fill-rule="evenodd"
       fill="#ffa712"
       x="0"
       y="0"
       width="100%"
       height="100%" />
    <use
       id="use859"
       xlink:href="#path-1"
       filter="url(#filter-2)"
       fill-opacity="1"
       fill="#000000"
       x="0"
       y="0"
       width="100%"
       height="100%" />
  </g>
  <g
     transform="matrix(0.27167207,0,0,0.27167207,121.11606,-1.596789e-5)"
     id="g1112">
    <g
       id="g1077">
      <path
         id="path855"
         fill="#ffc24a"
         d="M 0,282.99762 2.1225075,280.0256 102.52736,89.511928 102.73942,87.495132 58.478806,4.3581771 C 54.770627,-2.6060418 44.331303,-0.84524577 43.114348,6.9506547 Z" />
      <path
         id="path863"
         fill="#f4bd62"
         d="M 135.00497,150.3807 167.9602,116.62946 134.99542,53.699311 c -3.12931,-5.956776 -11.8666,-5.97397 -14.9628,0 l -17.61161,33.588774 v 2.860659 z" />
      <g
         id="g869">
        <use
           id="use865"
           xlink:href="#path-3"
           fill-rule="evenodd"
           fill="#ffa50e"
           x="0"
           y="0"
           width="100%"
           height="100%" />
        <use
           id="use867"
           xlink:href="#path-3"
           filter="url(#filter-4)"
           fill-opacity="1"
           fill="#000000"
           x="0"
           y="0"
           width="100%"
           height="100%" />
      </g>
      <polygon
         id="polygon871"
         points="132.93532,152.60956 134.56303,148.1786 102.51312,87.104858 0,282.99762 0.96209717,282.0304 4.4577114,280.60956 "
         fill="#f6820c" />
      <path
         id="path873"
         fill="#fde068"
         d="M 139.12097,347.55127 255.39592,282.70367 222.1917,78.209337 c -1.03865,-6.398089 -8.88804,-8.927522 -13.46739,-4.3399 L 2.5472637e-4,282.99788 115.60845,347.54554 c 7.30619,4.07944 16.20442,4.08135 23.51252,0.006" />
      <path
         id="path875"
         fill="#fcca3f"
         d="M 254.35408,282.15984 221.40194,79.217937 c -1.03077,-6.349518 -7.55815,-8.976982 -12.10273,-4.424187 L 1.2894531,282.60078 115.62783,346.50946 c 7.25072,4.04847 16.0814,4.05037 23.33402,0.006 z" />
      <path
         id="path877"
         fill="#eeab37"
         d="m 139.12091,345.64082 c -7.3081,4.07562 -16.20633,4.07371 -23.51252,-0.006 L 0.93134768,282.01455 1.9104478e-4,282.99788 115.60839,347.54554 c 7.30619,4.07944 16.20442,4.08135 23.51252,0.006 l 116.27494,-64.8476 -0.28465,-1.75189 z" />
    </g>
  </g>
</svg>
