<svg
  xmlns="http://www.w3.org/2000/svg"
  id="svg8"
  version="1.1"
  viewBox="0 0 190.5 95.250003"
  height="360"
  width="720">
  <g id="layer1">
    <circle
      r="47.50536"
      cy="47.625"
      cx="142.875"
      id="path1139"
      style="fill:#ffffff;stroke:#ffffff;stroke-width:0.239282;stroke-linejoin:round;stroke-miterlimit:4.2" />
    <g
      transform="matrix(0.30248142,0,0,0.30248142,118.4149,1.8188932)"
      id="logo__item--logo_0">
      <g
        id="g985"
        transform="matrix(1.5849745,0,0,1.5849745,-33.159906,-17)">
        <g
          id="g983">
          <path
            id="path961"
            d="m 88.822,51.582 v 25.966 l 29.179,74.943 c 0,0 8.908,18.303 -16.57,22.763 H 43.308 c 0,0 -23.747,-2.478 -18.054,-21.281 L 55.918,77.549 V 51.582 Z"
            fill="#009688" />
          <g id="g967">
            <g id="g965">
              <path
                id="path963"
                d="M 89.438,48.563 H 54.435 c -2.835,0 -5.141,-2.522 -5.141,-5.638 0,-3.118 2.305,-5.64 5.141,-5.64 h 35.003 c 2.848,0 5.15,2.522 5.15,5.64 0,3.116 -2.303,5.638 -5.15,5.638 z"
                fill="#004d40" />
            </g>
          </g>
          <path
            id="path969"
            d="m 80.204,93.979 c 3.756,0 6.819,3.67 6.819,8.215 0,4.525 -3.065,8.204 -6.819,8.204 -3.765,0 -6.819,-3.679 -6.819,-8.204 0,-4.547 3.054,-8.215 6.819,-8.215 z"
            fill="#ffffff" />
          <ellipse
            id="ellipse971"
            ry="6.928"
            rx="5.7480001"
            cy="108.362"
            cx="59.271"
            fill="#ffffff" />
          <path
            id="path973"
            d="m 91.417,75.827 v -12.35 c 0,0 15.661,-3.453 23.488,14.763 0,-10e-4 -12.198,8.887 -23.488,-2.413 z"
            fill="#004d40" />
          <path
            id="path975"
            d="m 53.059,75.827 v -12.35 c 0,0 -15.663,-3.453 -23.486,14.763 0,-10e-4 12.186,8.887 23.486,-2.413 z"
            fill="#004d40" />
          <path
            id="path977"
            d="m 100.833,126.935 c -25.467,-7.9 -46.878,-3.659 -57.343,-0.453 l -10.553,25.401 c -4.751,15.164 15.087,17.157 15.087,17.157 h 48.545 c 21.279,-3.595 13.842,-18.347 13.842,-18.347 z"
            fill="#ffffff" />
          <path
            id="path979"
            d="m 64.131,136.373 c 0,2.739 -3.681,4.967 -8.215,4.967 -4.534,0 -8.204,-2.229 -8.204,-4.967 0,-2.75 3.67,-4.97 8.204,-4.97 4.536,0.002 8.215,2.22 8.215,4.97 z"
            fill="#004d40" />
          <path
            id="path981"
            d="m 93.345,136.373 c 0,2.739 -3.681,4.967 -8.204,4.967 -4.547,0 -8.215,-2.229 -8.215,-4.967 0,-2.75 3.668,-4.97 8.215,-4.97 4.525,0.002 8.204,2.22 8.204,4.97 z"
            fill="#004d40" />
        </g>
      </g>
    </g>
  </g>
</svg>
