<svg
   xmlns="http://www.w3.org/2000/svg"
   id="svg8"
   version="1.1"
   viewBox="0 0 190.5 95.250003"
   height="360"
   width="720">
  <defs
     id="defs2" />
  <g id="layer1">
    <path
       style="stroke-width:1.16651;fill:#ffffff;stroke:#d8dee9;stroke-opacity:1"
       id="path853"
       fill="#000000"
       d="m 129.72439,33.189471 c -1.39981,-2.68298 -4.49105,-6.940768 -7.11576,-10.032044 l -3.26623,1.866456 c 2.62466,3.266229 5.54095,7.640663 6.94077,10.323644 z m -39.544867,6.124195 c -1.45814,-2.857966 -4.72442,-7.290692 -7.52405,-10.556968 l -3.382889,2.099732 c 2.741304,3.324552 5.949259,7.873988 7.349059,10.790278 z m 0.58327,8.398914 c -4.49112,4.257788 -9.332153,8.398914 -12.423397,10.906957 l 2.449672,3.674492 c 2.974615,-2.682981 6.532495,-6.007549 9.973725,-9.332102 v 21.405539 h 4.25778 V 21.116018 h -4.25778 z m 40.769727,-5.132685 v -4.257739 h -16.73951 c 0.0582,-1.224868 0.0582,-2.391381 0.0582,-3.557878 V 21.291004 h -4.25775 v 13.473274 c 0,1.166497 0,2.33301 -0.0581,3.557878 H 97.003763 v 4.257739 h 13.239947 c -0.93322,9.565459 -4.19945,20.297382 -14.873077,29.046267 1.16654,0.758234 2.62469,1.808084 3.49954,2.741304 8.748897,-7.232401 12.831687,-15.864592 14.581447,-24.49683 3.20793,10.965232 8.34062,19.655794 16.15624,24.49683 0.69991,-1.166497 2.09973,-2.741304 3.14961,-3.616201 -9.04048,-4.957698 -14.46477,-15.456345 -17.26441,-28.17137 z m 51.67664,-3.441214 c 4.25779,0 5.42428,-1.458145 5.89089,-7.174046 -1.10818,-0.233229 -2.68298,-0.816556 -3.55788,-1.399821 -0.29144,4.316079 -0.58325,4.957698 -2.68298,4.957698 h -9.27378 c -2.74135,0 -3.14961,-0.233228 -3.14961,-1.749793 v -2.857965 c 5.4243,-1.224836 11.4902,-2.974629 15.74799,-5.074362 l -3.20794,-2.682965 c -2.85797,1.691454 -7.81566,3.324553 -12.54005,4.60776 v -6.065921 h -4.02447 v 12.131777 c 0,4.199464 1.39982,5.307638 6.82411,5.307638 z m 0.23323,19.830779 c 4.31611,0 5.48267,-1.516468 5.94926,-7.349031 -1.10818,-0.233229 -2.74131,-0.758234 -3.6162,-1.399806 -0.23325,4.432726 -0.64159,5.132637 -2.74132,5.132637 h -9.39048 c -2.79962,0 -3.20789,-0.291424 -3.20789,-1.808084 v -3.266278 c 5.6576,-1.341482 12.01512,-3.207889 16.44789,-5.307622 l -3.26628,-2.682981 c -3.0329,1.691422 -8.22391,3.382892 -13.18161,4.724374 v -6.532506 h -4.02448 v 13.065013 c 0,4.257788 1.39983,5.424284 6.82411,5.424284 z M 138.00661,33.189471 c 5.83259,-0.233229 13.99818,-0.583248 22.10549,-0.933236 0.69991,0.991559 1.28316,1.924747 1.74976,2.74132 l 3.26627,-1.924746 c -1.45815,-2.741304 -4.89936,-6.590829 -8.04898,-9.215487 l -3.09124,1.69147 c 1.16649,1.04985 2.39133,2.274718 3.49955,3.557877 l -10.90696,0.291424 c 1.57481,-2.216379 3.32457,-4.89936 4.78272,-7.232369 l -4.19947,-1.283191 c -1.16649,2.508027 -3.0329,5.949241 -4.78269,8.632222 l -4.60773,0.116775 z m 2.4497,40.303098 c 4.37445,-2.507978 6.82411,-6.64912 8.39891,-10.848569 l -3.67454,-1.341498 c -1.34148,3.849493 -4.08278,7.640679 -8.10726,9.798735 z m 4.66605,-25.021755 v -3.20789 h 12.59836 v 3.20789 z m 12.59836,-9.157148 v 3.149615 h -12.59836 v -3.149615 z m -0.29142,20.822291 c 3.38289,1.574807 7.40735,4.141142 9.3321,6.124244 l 2.7413,-2.741304 c -1.92473,-1.924779 -5.83254,-4.199465 -9.15714,-5.715933 1.04988,-0.524974 1.34153,-1.399822 1.34153,-3.149615 V 36.222423 h -20.47237 v 22.688714 h 3.90782 v -7.699003 h 12.59836 v 3.441215 c 0,0.641571 -0.17503,0.816573 -0.8749,0.816573 -0.64157,0.05815 -2.79962,0.05815 -5.19096,0 0.46659,0.93322 1.04984,2.158056 1.28316,3.149615 3.03295,0 5.13269,0 6.53251,-0.46665 z m 2.85797,10.148723 c -3.14962,0 -3.73287,-0.233229 -3.73287,-1.69147 v -7.057431 h -4.14112 v 7.115754 c 0,4.141126 1.51648,5.191024 7.52401,5.191024 h 11.54853 c 4.66605,0 5.94921,-1.341498 6.4158,-7.407403 -1.10818,-0.233228 -2.79963,-0.816525 -3.73282,-1.399821 -0.23323,4.607759 -0.58325,5.249347 -3.09129,5.249347 z M 176.56014,62.644 c 4.14112,2.974629 8.51557,7.407355 10.26537,10.673632 L 190.5,71.042914 c -1.98307,-3.266277 -6.41581,-7.524017 -10.55697,-10.381984 z" />
  </g>
</svg>
