<svg xmlns="http://www.w3.org/2000/svg" viewBox="0 0 190.5 95.250003" height="360" width="720">
  <g id="layer1">
    <path
       style="stroke-width:0.22916"
       d="m 178.08321,52.756625 c -3.70903,0 -7.03453,1.64338 -9.31164,4.230529 l -5.83501,-4.130865 c 0.61912,-1.705293 0.97472,-3.536633 0.97472,-5.453348 0,-1.883411 -0.3429,-3.683985 -0.94297,-5.364195 l 5.82199,-4.087114 c 2.27648,2.57429 5.59372,4.208558 9.29196,4.208558 6.84625,0 12.41711,-5.569776 12.41711,-12.416885 0,-6.84711 -5.57086,-12.416886 -12.41711,-12.416886 -6.84594,0 -12.41679,5.569776 -12.41679,12.416886 0,1.22555 0.1905,2.407285 0.51752,3.526567 l -5.82612,4.089146 c -2.43205,-3.019107 -5.93757,-5.127244 -9.93013,-5.770721 v -7.021512 c 5.62451,-1.181418 9.8625,-6.178646 9.8625,-12.1499 C 160.28924,5.5697755 154.71839,0 147.87213,0 c -6.84593,0 -12.41678,5.5697755 -12.41678,12.416885 0,5.891276 4.12813,10.826941 9.64025,12.092623 v 7.112698 c -7.52253,1.320483 -13.26166,7.88543 -13.26166,15.780734 0,7.933786 5.79596,14.522863 13.37278,15.798388 v 7.510526 c -5.56831,1.223962 -9.75137,6.189884 -9.75137,12.121261 0,6.847119 5.57085,12.416885 12.41678,12.416885 6.84626,0 12.41711,-5.569766 12.41711,-12.416885 0,-5.931377 -4.18306,-10.897299 -9.75138,-12.121261 v -7.510749 a 16.033273,16.033273 0 0 0 9.76218,-5.677725 l 5.87407,4.157694 c -0.32703,1.109028 -0.50801,2.279333 -0.50801,3.492405 0,6.84711 5.57086,12.416885 12.4168,12.416885 6.84625,0 12.4171,-5.569775 12.4171,-12.416885 0,-6.84711 -5.57085,-12.416854 -12.4171,-12.416854 z m 0,-29.033628 c 3.3201,0 6.02012,2.70129 6.02012,6.020308 0,3.318954 -2.69875,6.020085 -6.02012,6.020085 -3.31978,0 -6.02011,-2.700972 -6.02011,-6.020085 0,-3.318923 2.69874,-6.020308 6.02011,-6.020308 z M 141.85297,12.416885 c 0,-3.3189543 2.69875,-6.0200855 6.02012,-6.0200855 3.3201,0 6.02012,2.7009725 6.02012,6.0200855 0,3.318923 -2.69875,6.020054 -6.02012,6.020054 -3.31978,0 -6.02012,-2.700972 -6.02012,-6.020054 z m 12.04024,70.41623 c 0,3.318948 -2.69875,6.020076 -6.02012,6.020076 -3.31978,0 -6.02012,-2.701131 -6.02012,-6.020076 0,-3.318923 2.69875,-6.020054 6.02012,-6.020054 3.3201,0 6.02012,2.700972 6.02012,6.020054 z m -6.02044,-27.034173 c -4.6301,0 -8.39692,-3.766026 -8.39692,-8.396002 0,-4.630197 3.76682,-8.396922 8.39692,-8.396922 4.6301,0 8.39661,3.766725 8.39661,8.396922 0,4.629976 -3.76651,8.396002 -8.39661,8.396002 z m 30.21044,15.394845 c -3.31978,0 -6.02011,-2.70129 -6.02011,-6.020308 0,-3.318923 2.69874,-6.020054 6.02011,-6.020054 3.3201,0 6.02012,2.700972 6.02012,6.020054 0,3.318954 -2.69875,6.020308 -6.02012,6.020308 z"
       id="path833" />
  </g>
</svg>
