<svg width="720" height="360" viewBox="0 0 180 180" xmlns="http://www.w3.org/2000/svg" preserveAspectRatio="xMaxYMid">
    <defs/>
    <g fill="none" fill-rule="evenodd">
        <g stroke-linejoin="square">
            <path stroke="#FFF" stroke-width="8" d="M88.58578644 7.97561338L7.97561338 88.58578644C7.5850891 88.97631073 7.38982695 89.48815537 7.38982695 90c0 .51184463.19526214 1.02368927.58578643 1.41421356l80.61017306 80.61017306c.39052447.39052447.9023691.5857866 1.41421387.58578674.51184406-5.7e-7 1.02368896-.19526245 1.41421325-.58578674l80.61017306-80.61017306c.39052447-.39052447.58578635-.90236937.58578705-1.41421356-7e-7-.5118442-.19526258-1.0236891-.58578705-1.41421356L91.41421356 7.97561338c-.39052429-.39052429-.90236919-.58578617-1.41421325-.58578674-.51184476 1.3e-7-1.0236894.19526227-1.41421387.58578674z" fill="#FF9843"/>
            <path stroke="#8E460B" stroke-width="4" d="M87.17157288 6.56139982L6.56139982 87.17157288C5.78035124 87.95262146 5.38982694 88.97631073 5.38982695 90c0 1.02368927.39052429 2.04737854 1.17157287 2.82842712l80.61017306 80.61017306c.78104823.78104823 1.8047375 1.17157252 2.82842704 1.17157278 1.02368953 2.7e-7 2.04737862-.3905242 2.8284272-1.17157278l80.61017306-80.61017306c.78104823-.78104823 1.1715727-1.80473732 1.1715727-2.82842712s-.39052447-2.0473789-1.1715727-2.82842712L92.82842712 6.56139982c-.78104858-.78104858-1.80473767-1.17157305-2.8284272-1.17157278-1.02368954 2.6e-7-2.04737881.39052455-2.82842704 1.17157278z"/>
        </g>
        <path d="M102.56172347 88.75198503c.15715653-.15715654.348745-.27556468.55959264-.34584727l22.4185735-7.47285784c.75009103-.25003034 1.56084955.15534896 1.81087997.90544005.09795515.2938653.09795507.61157454 0 .90543991l-7.47285784 22.4185735c-.25003034.75009103-1.06078893 1.15547026-1.81088003.90543999-.21084765-.0702826-.4024361-.18869074-.55959264-.34584727L111.44867 99.66402838l-4.47810724 4.47810724c-.78104859.78104859-2.04737854.78104859-2.82842713 0-.74554637-.74554637-.77943482-1.93326027-.1016654-2.71900376l.1016654-.10942336 4.47810725-4.47810725-6.05851947-6.05899082c-.52619747-.52619747-.55715022-1.36010066-.09285832-1.92249882zm-15.3901506 29.53228622c.78104859-.78104859 2.04737855-.78104859 2.82842713 0 .74554638.74554638.77943482 1.93326027.1016654 2.71900376L90 121.11269837l-5.65685425 5.65685425c-.78104858.78104859-2.04737854.78104859-2.82842712 0-.74554638-.74554638-.77943483-1.93326027-.10166541-2.71900376l.1016654-.10942336 5.65685426-5.65685425zm11.3137085-11.3137085c.78104859-.78104859 2.04737855-.78104859 2.82842713 0 .74554638.74554638.77943482 1.93326027.1016654 2.71900376l-.1016654.10942336-5.65685425 5.65685425c-.78104858.78104859-2.04737854.78104859-2.82842713 0-.74554637-.74554638-.77943482-1.93326027-.1016654-2.71900376l.1016654-.10942336 5.65685425-5.65685425zM66.48604929 79.78701408c.25003034-.75009102 1.06078894-1.15547025 1.81088003-.90543998.21084765.0702826.4024361.18869074.55959264.34584727l6.05806197 6.05900483 27.10623135-27.10623135c.78104858-.78104859 2.04737854-.78104859 2.82842712 0 .74554638.74554638.77943483 1.93326027.10166541 2.71900376l-.1016654.10942336-27.10623136 27.10623135 6.05922658 6.05828372c.52619747.52619747.55715022 1.36010066.09285832 1.92249882l-.0928584.10212658c-.15715652.15715653-.34874498.27556468-.55959263.34584727l-22.4185735 7.47285784c-.75009103.25003034-1.56084955-.15534896-1.81087997-.90544006-.09795514-.2938653-.09795507-.61157453 0-.9054399z" fill="#8E460B" fill-rule="nonzero"/>
    </g>
</svg>