<svg
   xmlns="http://www.w3.org/2000/svg"
   id="svg8"
   version="1.1"
   viewBox="0 0 190.5 95.250003"
   height="360"
   width="720">
  <defs
     id="defs2">
    <style
       id="style833">.cls-1{fill:#4695eb;}.cls-2{fill:#ff004a;}.cls-3{fill:#091313;}</style>
  </defs>

  <g
     id="layer1">
    <g
       transform="matrix(0.09319961,0,0,0.09319961,95.156799,-0.09320032)"
       id="g875">
      <polygon
         class="cls-1"
         points="669.34,362.25 669.34,180.57 512,271.41 "
         id="polygon839" />
      <polygon
         class="cls-2"
         points="512,271.41 354.66,180.57 354.66,362.25 "
         id="polygon841" />
      <polygon
         class="cls-3"
         points="669.34,362.25 512,271.41 354.66,362.25 512,453.09 "
         id="polygon843" />
      <polygon
         class="cls-1"
         points="346.1,377.09 188.76,467.93 346.1,558.76 "
         id="polygon845" />
      <polygon
         class="cls-2"
         points="346.1,558.76 346.1,740.44 503.43,649.6 "
         id="polygon847" />
      <polygon
         class="cls-3"
         points="346.1,377.09 346.1,558.76 503.43,649.6 503.43,467.93 "
         id="polygon849" />
      <polygon
         class="cls-1"
         points="520.57,649.6 677.9,740.44 677.9,558.76 "
         id="polygon851" />
      <polygon
         class="cls-2"
         points="677.9,558.76 835.24,467.93 677.9,377.09 "
         id="polygon853" />
      <polygon
         class="cls-3"
         points="520.57,649.6 677.9,558.76 677.9,377.09 520.57,467.93 "
         id="polygon855" />
      <path
         class="cls-1"
         d="M 853.47,1 H 170.53 C 77.29,1 1,77.29 1,170.53 V 853.47 C 1,946.71 77.29,1023 170.53,1023 h 467.7 L 512,716.39 420.42,910 H 170.53 C 139.9,910 114,884.1 114,853.47 V 170.53 C 114,139.9 139.9,114 170.53,114 H 853.47 C 884.1,114 910,139.9 910,170.53 V 853.47 C 910,884.1 884.1,910 853.47,910 H 705.28 l 46.52,113 H 853.47 C 946.71,1023 1023,946.71 1023,853.47 V 170.53 C 1023,77.29 946.71,1 853.47,1 Z"
         id="path857" />
    </g>
  </g>
</svg>
