<svg
   xmlns="http://www.w3.org/2000/svg"
   width="720"
   height="360"
   viewBox="0 0 190.5 95.250003"
   version="1.1"
   id="svg8">
  <g
     id="layer1">
    <g
       id="g839"
       fill-rule="evenodd"
       fill="none"
       transform="matrix(0.56029947,0,0,0.56029947,84.035948,-5.6029944)">
      <path
         id="path833"
         fill-rule="nonzero"
         fill="#002c4b"
         d="m 150.28,61.34 c 3.09,-14.98 3.75,-26.47 1.75,-34.81 -1.19,-4.96 -3.36,-9.01 -6.66,-11.93 -3.5,-3.08 -7.9,-4.6 -12.86,-4.6 -8.18,0 -16.78,3.73 -25.97,10.8 A 118.25,118.25 0 0 0 94.87,31.24 c -0.32,-0.4 -0.69,-0.8 -1.1,-1.16 C 82.37,19.91 72.75,13.6 64.53,11.16 59.64,9.72 55.05,9.58 50.87,10.98 c -4.41,1.49 -7.93,4.55 -10.4,8.85 -4.1,7.09 -5.18,16.4 -3.66,27.9 0.63,4.69 1.69,9.8 3.2,15.33 -0.57,0.07 -1.14,0.2 -1.7,0.38 -14.5,4.8 -24.75,9.95 -30.97,15.85 -3.7,3.5 -6.1,7.41 -6.98,11.73 -0.92,4.56 -0.02,9.14 2.46,13.43 4.08,7.08 11.6,12.66 22.3,17.08 4.3,1.78 9.16,3.39 14.6,4.83 a 8.73,8.73 0 0 0 -0.57,1.78 c -3.1,14.98 -3.76,26.47 -1.76,34.81 1.19,4.97 3.36,9.01 6.67,11.93 3.49,3.09 7.9,4.6 12.86,4.6 8.18,0 16.77,-3.72 25.96,-10.8 3.79,-2.92 7.72,-6.44 11.8,-10.57 a 8.7,8.7 0 0 0 1.55,1.8 c 11.42,10.18 21.04,16.5 29.26,18.93 4.89,1.44 9.48,1.58 13.66,0.18 4.41,-1.49 7.93,-4.55 10.4,-8.85 4.1,-7.09 5.18,-16.4 3.66,-27.9 a 119.5,119.5 0 0 0 -3.36,-15.93 c 0.62,-0.06 1.25,-0.2 1.87,-0.4 14.48,-4.8 24.74,-9.95 30.96,-15.85 3.7,-3.5 6.1,-7.41 6.98,-11.73 0.92,-4.56 0.02,-9.14 -2.46,-13.43 -4.08,-7.08 -11.6,-12.66 -22.3,-17.08 a 118.57,118.57 0 0 0 -15.08,-4.96 c 0.2,-0.5 0.36,-1 0.47,-1.55 z" />
      <path
         id="path835"
         fill="#ffd94c"
         d="m 80.4,64 h 29.2 a 5,5 0 0 1 4.34,2.51 l 14.64,25.5 a 5,5 0 0 1 0,4.98 l -14.64,25.5 A 5,5 0 0 1 109.61,125 H 80.4 a 5,5 0 0 1 -4.34,-2.51 L 61.43,96.99 a 5,5 0 0 1 0,-4.98 L 76.06,66.51 A 5,5 0 0 1 80.4,64 Z m 25.59,6.28 a 5,5 0 0 1 4.34,2.51 l 11.01,19.22 a 5,5 0 0 1 0,4.98 l -11.01,19.22 a 5,5 0 0 1 -4.34,2.51 H 84.02 a 5,5 0 0 1 -4.34,-2.51 L 68.66,96.99 a 5,5 0 0 1 0,-4.98 L 79.68,72.8 a 5,5 0 0 1 4.34,-2.51 h 21.97 z m -3.9,6.86 H 87.91 a 5,5 0 0 0 -4.33,2.51 l -7.1,12.36 a 5,5 0 0 0 0,4.98 l 7.1,12.36 a 5,5 0 0 0 4.33,2.5 h 14.16 a 5,5 0 0 0 4.34,-2.5 l 7.1,-12.36 a 5,5 0 0 0 0,-4.98 l -7.1,-12.36 a 5,5 0 0 0 -4.34,-2.5 z m -3.77,6.57 a 5,5 0 0 1 4.33,2.5 l 3.33,5.8 a 5,5 0 0 1 0,4.98 l -3.33,5.8 a 5,5 0 0 1 -4.33,2.5 h -6.63 a 5,5 0 0 1 -4.34,-2.5 l -3.33,-5.8 a 5,5 0 0 1 0,-4.98 l 3.33,-5.8 a 5,5 0 0 1 4.34,-2.5 z M 95,90.18 a 4.32,4.32 0 1 0 0,8.64 4.32,4.32 0 1 0 0,-8.64 z M 60,94.5 h 7.77" />
      <path
         id="path837"
         fill="#ff4154"
         d="m 54.86,108.36 a 2.71,2.71 0 0 1 3.72,1.04 l 0.47,0.84 c 3.8,6.74 7.77,13.14 11.9,19.2 a 286.9,286.9 0 0 0 16.41,21.71 2.78,2.78 0 0 1 -0.3,3.85 l -0.6,0.53 c -20.11,17.57 -33.18,21.08 -39.21,10.53 -5.9,-10.32 -3.77,-29.08 6.4,-56.28 0.23,-0.6 0.65,-1.1 1.21,-1.42 z m 85.67,20.68 a 2.7,2.7 0 0 1 3.13,2.15 l 0.15,0.8 c 4.97,26 1.47,39.01 -10.5,39.01 -11.7,0 -26.6,-11.1 -44.7,-33.27 a 2.72,2.72 0 0 1 2.12,-4.44 h 0.95 c 7.63,0.05 15.03,-0.22 22.23,-0.79 a 281.1,281.1 0 0 0 26.62,-3.46 z m 6.88,-55.23 a 2.82,2.82 0 0 1 3.54,-1.66 l 0.8,0.27 c 25.83,8.8 35.65,18.47 29.45,29.02 -6.07,10.31 -23.72,17.82 -52.94,22.52 -0.65,0.1 -1.31,-0.01 -1.88,-0.34 a 2.73,2.73 0 0 1 -1,-3.77 l 0.5,-0.84 c 4,-6.7 7.6,-13.36 10.82,-19.99 a 284.1,284.1 0 0 0 10.7,-25.2 z M 61.74,66.04 c 0.65,-0.1 1.31,0.01 1.88,0.34 a 2.73,2.73 0 0 1 1,3.77 l -0.5,0.84 c -4,6.7 -7.6,13.36 -10.82,19.99 a 284.09,284.09 0 0 0 -10.7,25.2 2.82,2.82 0 0 1 -3.55,1.67 l -0.8,-0.27 C 12.43,108.78 2.6,99.11 8.8,88.56 14.87,78.25 32.52,70.74 61.74,66.04 Z m 41.8,-31.57 c 20.11,-17.57 33.18,-21.08 39.21,-10.53 5.9,10.32 3.77,29.08 -6.4,56.28 a 2.71,2.71 0 0 1 -4.93,0.38 l -0.47,-0.84 A 269.42,269.42 0 0 0 119.05,60.56 286.9,286.9 0 0 0 102.64,38.85 2.78,2.78 0 0 1 102.94,35 Z M 57.69,18 c 11.71,0 26.61,11.1 44.7,33.27 a 2.72,2.72 0 0 1 -2.11,4.44 H 99.33 C 91.7,55.66 84.3,55.93 77.1,56.5 A 281.1,281.1 0 0 0 50.48,59.96 2.7,2.7 0 0 1 47.35,57.81 L 47.2,57.01 C 42.22,31.01 45.72,18 57.69,18 Z" />
    </g>
  </g>
</svg>
