<svg xmlns="http://www.w3.org/2000/svg" height="360" width="720" data-name="Layer 1">
  <defs/>
  <path fill="#f2f2f2" d="M552.43267 162.85532l3.39251-1.32944c.32497-.12801.64502-.26588.98476-.39882a29.469042 29.469042 0 017.5236-57.00303l-2.36344 11.91564 8.9712-11.77777h.0788a29.478889 29.478889 0 0125.19024 33.21114c-.0738.55639-.19203 1.09801-.29543 1.64456 2.76227-2.18125 5.35219-4.589 7.29218-7.38573 3.93905-5.68208 5.2734-12.68375 6.63238-21.25611 2.69333-16.977324 5.12077-34.141748 7.30694-51.296325a29.459194 29.459194 0 01-20.68005-32.182065c.1231-.896134.29543-1.76765.49238-2.629318.0492-.216648.0985-.433296.15264-.64502.21173-.832125.44807-1.649478.7238-2.461908.0443-.132943.1034-.256038.14772-.384058.24619-.674563.49238-1.339278.81243-1.969526.10832-.246191.21665-.492382.32989-.723801.33975-.704106.69918-1.39344 1.09309-2.063079.13294-.221572.27573-.433296.40868-.654868.30527-.492382.62532-.984763.95522-1.442678.17725-.246191.34959-.492382.53177-.733649l.13294-.192029a29.449346 29.449346 0 0136.75137-8.3704878l-3.07246 15.5050978 8.86287-11.6399019a29.296708 29.296708 0 018.03567 33.7872289h.0345c-.0837.196953-.1871.384058-.27081.58101-.16248.364363-.32989.723801-.49238 1.08324-.22649.457915-.49238.905982-.71395 1.349126-.18711.334819-.36929.669639-.57117.984763-.2905.492382-.60562.935525-.92075 1.39344-.1871.265886-.35944.54162-.55147.802582-.49238.684411-1.04385 1.339278-1.60516 1.969527-.19695.221571-.40868.423448-.61548.640096-.39883.423448-.79766.841972-1.2211 1.240802-.26097.24619-.5367.492381-.80751.718877-.38898.344667-.78781.679487-1.19649.984763-.2905.23142-.58593.452991-.88136.669639-.42837.310201-.86167.600706-1.29989.891211-.29543.192029-.59086.384058-.89121.566239-.49238.300353-1.00938.576086-1.52638.846896-.26096.132943-.49238.280658-.78289.408677-.77796.379134-1.57562.728725-2.38805 1.038925-.15264.05909-.31512.1034-.46776.157562-.67949.246191-1.3639.492382-2.05816.664716-.30035.0837-.60563.152638-.9109.226495-.56624.137867-1.13741.265886-1.71349.37421q-.49238.08863-1.01923.162486c-.56624.0837-1.1374.147715-1.71349.196953-.33974.02954-.67456.05909-1.01923.07878-.6204.02954-1.24573.03447-1.87105.02954a1.0241538 1.0241538 0 00-.1231 0q-1.38851 10.832396-2.9149 21.664792a29.45427 29.45427 0 0142.54178-5.081378l-7.72054 13.087504 12.41294-8.168611a29.385337 29.385337 0 015.66239 21.743575 28.932346 28.932346 0 01-2.21572 7.84857 29.459194 29.459194 0 01-54.74792-1.96953c-.11325.72872-.22157 1.47714-.33482 2.19602-1.20141 7.55806-2.69332 16.96747-7.99135 24.61908-3.58946 5.19955-8.53298 9.04013-13.33862 12.41787q-4.68747 3.29896-9.59159 6.28771a29.469042 29.469042 0 01-12.07813 6.76533q-7.8781 4.0326-16.09595 7.29217l-3.42206 1.33928c-3.07738 1.20141-6.22862 2.43236-9.35525 3.7421.49238.0443.98477.0837 1.47715.14771a29.493661 29.493661 0 0125.04253 24.15132l-20.83267 11.37894 20.76866-.9306a29.129298 29.129298 0 01-5.623 12.64436 29.478889 29.478889 0 01-40.71996 5.78056l1.034 1.92521c.68933 1.27035 1.36882 2.53577 2.02861 3.79134 9.02536 17.10534 9.68023 31.87679 1.84643 41.60133l-6.40096-5.14539c7.62699-9.46358 1.57562-24.50583-2.7081-32.63013-.64994-1.23096-1.31958-2.46191-1.96952-3.72241-5.79534-10.74869-12.36863-22.93021-9.73439-35.89462 3.93905-19.54755 25.13608-27.81956 42.18726-34.46671zM307.18722 255.53139l-2.64901-1.03893c-.25604-.0985-.49239-.21172-.75827-.3102a23.018842 23.018842 0 00-5.87904-44.52115l1.84643 9.30602-7.00167-9.19769h-.064a23.023766 23.023766 0 00-19.69527 25.93866c.0591.43822.15264.85675.23142 1.28512a27.494591 27.494591 0 01-5.69193-5.77564c-3.06754-4.43143-4.12124-9.90672-5.18478-16.59818-2.08278-13.25984-3.97352-26.66247-5.67224-40.0454a23.004071 23.004071 0 0016.13535-25.13608c-.0985-.69919-.23142-1.37867-.38898-2.05324l-.11817-.49238c-.16741-.64994-.3496-1.29004-.56624-1.91044-.0345-.1034-.0788-.20188-.11818-.30035-.19202-.52685-.40375-1.04385-.63024-1.551-.0886-.18711-.17234-.37914-.26097-.56624-.26588-.54655-.54654-1.08324-.85182-1.60517-.1034-.17725-.21664-.34466-.32004-.49238-.24127-.38406-.49239-.76319-.74842-1.12755-.13787-.19203-.27081-.38898-.41361-.57609l-.1034-.14771a23.023766 23.023766 0 00-28.70092-6.55853l2.40282 12.11259-6.92781-9.08936a22.885899 22.885899 0 00-6.27787 26.38673h-.0246c.064.15264.14279.30035.21172.45299.12802.28558.25604.56624.39391.8469q.26588.53177.56131 1.04877c.14279.26589.28558.52685.44314.78289.2265.36928.49239.72872.71888 1.08816.14772.2068.28066.42345.4333.62532.3939.53178.81243 1.04385 1.25065 1.54116.15263.17233.32004.32989.49238.49238.3102.3299.62532.65487.95522.98476.20187.19696.41852.37914.63025.56132q.45791.40868.9306.78289c.22649.17725.45791.34959.68933.52192.33482.24127.67457.49238 1.01431.69426.23142.15264.46284.30035.69918.44314.38898.23635.78781.44807 1.19156.65979.2068.10833.40376.22157.61056.32498.61055.29542 1.23095.56623 1.86612.8075.11818.0492.24619.0788.36437.1231.52684.19203 1.06354.36928 1.61008.52192.23142.064.49239.11817.70903.17233.44315.10833.88629.21173 1.33928.29543l.79274.12802c.44314.064.89121.11325 1.33927.15264.26589.0246.52685.0443.79766.0591.49238.0246.98477.0295 1.47715.0246h.0935q1.08324 8.47881 2.2748 16.94285a22.999147 22.999147 0 00-33.22591-4.00799l5.97751 10.16276-9.69007-6.37634a22.930213 22.930213 0 00-4.43143 16.98224 22.55108 22.55108 0 001.7381 6.13508 23.008995 23.008995 0 0042.75843-1.53624c.0886.56624.17233 1.14233.26096 1.71349.93552 5.90858 2.10247 13.25492 6.23847 19.24228 2.80658 4.05722 6.66685 7.05583 10.4188 9.69499q3.66332 2.58008 7.48913 4.92382a23.082852 23.082852 0 009.43403 5.28818c4.09661 2.09754 8.2917 4.00798 12.57542 5.69193l2.66871 1.04877c2.40283.93553 4.86473 1.89567 7.29218 2.91983-.38406.0345-.77304.064-1.16202.11817a23.02869 23.02869 0 00-19.5574 18.84344l16.24859 8.86287-16.21905-.7238a23.033614 23.033614 0 0036.22452 14.37755c-.27081.49238-.5367.98476-.80751 1.50176-.5367.98476-1.06847 1.96953-1.58547 2.95429-7.04598 13.35831-7.55806 24.89974-1.43775 32.49719l4.98782-4.01784c-5.95781-7.38572-1.23095-19.13887 2.11724-25.48567.49239-.96014 1.02908-1.93014 1.55593-2.90505 4.52499-8.37049 9.6556-17.90792 7.61222-28.03621-3.05769-15.23429-19.62633-21.67464-32.94033-26.88404z" stroke-width=".492382"/>
  <ellipse fill="#3f3d56" ry="11.570969" rx="272.77942" cy="348.42902" cx="447.22055" stroke-width=".492382"/>
  <ellipse opacity=".1" ry="11.570969" rx="272.77942" cy="348.42902" cx="447.22055" stroke-width=".492382"/>
  <ellipse fill="#3f3d56" ry="11.570969" rx="272.77942" cy="342.02808" cx="447.22055" stroke-width=".492382"/>
  <path stroke-width="1.96953" stroke-miterlimit="10" stroke="#3f3d56" fill="none" d="M216.29357 337.91176c-1.47715-2.71302.19695-6.0366 2.10739-8.45911 1.91044-2.42252 4.23941-4.92382 4.19017-8.0209-.0689-4.43144-4.7761-7.04598-8.53298-9.39464a41.744116 41.744116 0 01-7.66146-6.1597 11.324778 11.324778 0 01-2.35358-3.15124c-.77796-1.73318-.75334-3.70271-.70411-5.6033q.2462-9.48327.93553-18.94685"/>
  <path fill="#2b4c81" d="M197.14484 277.82643a6.8933431 6.8933431 0 013.44668-5.65746l1.54607 3.05769-.0443-3.70271a6.8244097 6.8244097 0 012.2748-.27574 6.8933431 6.8933431 0 11-7.22324 6.57822zM209.46916 324.60269a6.8933431 6.8933431 0 0013.04811-2.83612 6.8047144 6.8047144 0 00-.44807-2.80165 6.8933431 6.8933431 0 00-12.93486.0738l4.31818 3.51069-4.74656-1.10294a6.8391811 6.8391811 0 00.7632 3.15617zM212.88136 311.18529a6.8933431 6.8933431 0 002.19602-13.56019l.0345 2.85089-1.56577-3.09708a6.9131797 6.9131797 0 00-.64502 13.8113zM196.10592 300.023a6.9010007 6.9010007 0 00.64994-13.78669 6.8342573 6.8342573 0 00-3.70271.87644l1.22111 3.34819-2.51607-2.41267a6.8933431 6.8933431 0 00-2.23049 4.77118 6.5634474 6.5634474 0 00.17726 1.89567 6.8933431 6.8933431 0 006.40096 5.30788z" stroke-width=".492382"/>
  <path opacity=".1" d="M198.07545 279.66794c1.59531.17726 3.14631.67456 4.74655.77304 1.60024.0985 3.35805-.28558 4.37235-1.52639.54655-.67456.81736-1.52146 1.27527-2.25018a4.963207 4.963207 0 011.74303-1.63963 6.8933431 6.8933431 0 11-12.92009 4.589c.26096.01.52192.0295.78289.0542zM196.10592 300.023a6.8933431 6.8933431 0 006.57329-9.84764 5.1207692 5.1207692 0 00-1.38851 1.39344c-.49238.7435-.79274 1.60024-1.36882 2.28465-1.07832 1.26542-2.9149 1.67902-4.58408 1.60024-1.66917-.0788-3.27926-.54654-4.92381-.69918-.23142 0-.46284-.0394-.69426-.0443a6.8933431 6.8933431 0 006.38619 5.3128zM212.88136 311.18529a6.8933431 6.8933431 0 006.63238-9.72946 5.5934555 5.5934555 0 00-1.47714 1.40328c-.5367.75827-.87152 1.62979-1.47715 2.32897-1.16202 1.29989-3.1217 1.7578-4.88935 1.71349-1.76765-.0443-3.35804-.45792-5.06168-.58594a6.8933431 6.8933431 0 006.27294 4.86966zM209.46916 324.60269a6.8933431 6.8933431 0 0013.04811-2.83612 6.8047144 6.8047144 0 00-.44807-2.80165 6.8933431 6.8933431 0 00-1.51653 1.34912c-.65979.80259-1.08817 1.70857-1.85136 2.46191-1.41313 1.38852-3.69286 1.96953-5.72147 2.01384a30.699996 30.699996 0 01-3.51068-.1871z" stroke-width=".492382"/>
  <path fill="#656380" d="M226.72713 334.79006s-5.45559-.16741-7.09522-1.33927c-1.63963-1.17187-8.37048-2.57024-8.79886-.68934-.42837 1.8809-8.19815 9.35525-2.03846 9.3848 6.1597.0295 14.30861-.98477 15.94825-1.96953 1.63963-.98476 1.98429-5.38666 1.98429-5.38666z" stroke-width=".492382"/>
  <path opacity=".2" d="M208.68135 341.49138c6.15969.0492 14.30861-.98477 15.95316-1.96953 1.24573-.75827 1.74303-3.49098 1.91044-4.75148h.18218s-.34466 4.39697-1.96952 5.4162c-1.62486 1.01923-9.79347 2.00891-15.94824 1.96952-1.7775 0-2.39298-.64502-2.35851-1.58547.23142.5564.9109.92076 2.23049.92076z" stroke-width=".492382"/>
  <path stroke-width="1.96953" stroke-miterlimit="10" stroke="#3f3d56" fill="none" d="M693.90377 342.3432c-1.47715-2.71302.19695-6.0366 2.10739-8.45912 1.91044-2.42252 4.23941-4.92382 4.19017-8.0209-.0689-4.43143-4.7761-7.04598-8.53298-9.39464a41.744116 41.744116 0 01-7.66145-6.15969 11.324778 11.324778 0 01-2.35359-3.15124c-.77796-1.73319-.75334-3.70271-.7041-5.60331q.24126-9.48327.93552-18.94684"/>
  <path fill="#2b4c81" d="M674.75504 282.25787a6.8933431 6.8933431 0 013.44668-5.65747l1.54607 3.05769-.0443-3.70271a6.8244097 6.8244097 0 012.2748-.27573 6.8933431 6.8933431 0 11-7.22816 6.57822zM687.07936 329.03412a6.8933431 6.8933431 0 0013.04811-2.83612 6.8047144 6.8047144 0 00-.44807-2.80165 6.8933431 6.8933431 0 00-12.93486.0739l4.31818 3.51068-4.74655-1.10293a6.8391811 6.8391811 0 00.76319 3.15616zM690.49156 315.61672a6.8933431 6.8933431 0 002.19602-13.56019l.0345 2.85089-1.56577-3.09708a6.9131819 6.9131819 0 00-.64502 13.81131zM673.71612 304.45443a6.9010007 6.9010007 0 00.64994-13.78669 6.8342573 6.8342573 0 00-3.70271.87644l1.22111 3.3482-2.51607-2.41267a6.8933431 6.8933431 0 00-2.23049 4.77118 6.5634474 6.5634474 0 00.17726 1.89567 6.8933431 6.8933431 0 006.40096 5.30787z" stroke-width=".492382"/>
  <path opacity=".1" d="M675.68565 284.09937c1.59531.17726 3.14631.67457 4.74655.77304 1.60025.0985 3.35805-.28558 4.37235-1.52638.54655-.67456.81736-1.52146 1.27527-2.25019a4.963207 4.963207 0 011.74303-1.63963 6.8933431 6.8933431 0 11-12.92009 4.589c.26096.01.52192.0295.78289.0542zM673.71612 304.45443a6.8933431 6.8933431 0 006.57329-9.84763 5.1207692 5.1207692 0 00-1.38851 1.39344c-.49238.74349-.79274 1.60024-1.36882 2.28465-1.07832 1.26542-2.9149 1.67902-4.58408 1.60024-1.66917-.0788-3.27926-.54655-4.92381-.69918-.23142 0-.46284-.0394-.69426-.0443a6.8933431 6.8933431 0 006.38619 5.3128zM690.49156 315.61672a6.8933431 6.8933431 0 006.63238-9.72946 5.5934555 5.5934555 0 00-1.47714 1.40329c-.5367.75827-.87152 1.62978-1.47715 2.32896-1.16202 1.29989-3.1217 1.75781-4.88935 1.71349-1.76765-.0443-3.35804-.45791-5.06168-.58593a6.8933431 6.8933431 0 006.27294 4.86965zM687.07936 329.03412a6.8933431 6.8933431 0 0013.04811-2.83612 6.8047144 6.8047144 0 00-.44807-2.80165 6.8933431 6.8933431 0 00-1.51653 1.34913c-.65979.80258-1.08817 1.70856-1.85136 2.46191-1.41313 1.38851-3.69286 1.96952-5.72147 2.01384a30.699996 30.699996 0 01-3.51068-.18711z" stroke-width=".492382"/>
  <path fill="#656380" d="M704.33733 339.2215s-5.45558-.16741-7.09522-1.33928c-1.63963-1.17187-8.37048-2.57023-8.79886-.68933-.42837 1.88089-8.19815 9.35525-2.03846 9.38479 6.1597.0295 14.30861-.98476 15.94825-1.96953 1.63963-.98476 1.98429-5.38665 1.98429-5.38665z" stroke-width=".492382"/>
  <path opacity=".2" d="M686.29155 345.92281c6.15969.0492 14.30861-.98476 15.95316-1.96952 1.24573-.75827 1.74303-3.49099 1.91044-4.75149h.18218s-.34466 4.39697-1.96952 5.4162c-1.62486 1.01923-9.79347 2.00892-15.94824 1.96953-1.7775 0-2.39298-.64502-2.35851-1.58547.23142.55639.9109.92075 2.23049.92075z" stroke-width=".492382"/>
  <path fill="#53c1de" d="M541.54611 163.03257q-4.88442-1.6741-9.84763-3.102.81735-3.34327 1.52146-6.72101c7.45466-36.19498 2.58008-65.353818-14.06734-74.950336-15.96302-9.207537-42.06909.393905-68.44105 23.333966q-3.89967 3.40728-7.61715 6.99182-2.49637-2.38805-5.07153-4.68255c-27.62753-24.535377-55.30431-34.870468-71.95665-25.244407-15.94825 9.232156-20.68003 36.643047-13.95902 70.947267q.98476 5.09615 2.26003 10.13322c-3.91444 1.11278-7.70085 2.29942-11.32478 3.56484-32.39379 11.27062-53.08367 28.99636-53.08367 47.35727 0 18.96162 22.21134 37.98232 55.95426 49.5139q4.10646 1.39344 8.27201 2.58993-1.34913 5.41619-2.40283 10.92102c-6.40096 33.70845-1.39836 60.47431 14.50557 69.64739 16.43077 9.48327 44.00415-.26589 70.84879-23.7328 2.12217-1.85628 4.24926-3.82581 6.40097-5.88396q4.02768 3.88489 8.26708 7.54329c26.0076 22.37874 51.70008 31.41887 67.58431 22.21626 16.41108-9.49805 21.74357-38.25313 14.82069-73.23193q-.78781-4.00798-1.83659-8.17846 2.90998-.85674 5.69193-1.77749c35.07727-11.62021 57.90409-30.40949 57.90409-49.62715 0-18.42985-21.35952-36.24914-54.40818-47.62808z" stroke-width=".492382"/>
  <path fill="#fff" d="M533.93882 247.87978c-1.6741.55639-3.38759 1.08816-5.14047 1.61009a306.06443 306.06443 0 00-15.49525-38.76521 306.78331 306.78331 0 0014.89455-38.19897c3.12662.90598 6.16954 1.8612 9.09429 2.87059 28.31686 9.74423 45.58961 24.15624 45.58961 35.26437 0 11.81716-18.65634 27.18439-48.94273 37.21913zm-12.56558 24.90466c3.06261 15.46571 3.49591 29.44935 1.47714 40.3753-1.82181 9.82301-5.48513 16.37169-10.01504 18.99608-9.64576 5.57869-30.2667-1.6741-52.50758-20.81297q-3.82581-3.29403-7.69593-7.01644a307.3594 307.3594 0 0025.64816-32.56612 305.3751 305.3751 0 0041.44377-6.40096q.93552 3.78149 1.65932 7.38572zM394.27968 331.2006c-9.42418 3.3285-16.92808 3.42205-21.46291.80751-9.65068-5.56884-13.66359-27.08099-8.18831-55.88532q.98477-5.106 2.23049-10.15783a308.12751 308.12751 0 0041.23696 5.97259 317.63048 317.63048 0 0026.26857 32.44795q-2.85089 2.76226-5.8298 5.37188c-11.87133 10.37941-23.77219 17.72574-34.255 21.44322zm-44.13709-83.39468c-14.92408-5.10107-27.24347-11.72853-35.69274-18.95669-7.5876-6.49944-11.41833-12.95456-11.41833-18.18858 0-11.1426 16.61295-25.35766 44.31435-35.01326q5.21924-1.81689 10.53204-3.31373a313.6865 313.6865 0 0014.91424 38.64211 318.22134 318.22134 0 00-15.09642 39.19358q-3.81104-1.08816-7.55314-2.36343zm14.79607-100.71174c-5.75102-29.39026-1.93506-51.562208 7.67623-57.116273 10.23662-5.90858 32.8714 2.520994 56.73222 23.708173 1.52638 1.35405 3.05769 2.77211 4.58899 4.23449a313.10057 313.10057 0 00-26.06176 32.26084 319.27011 319.27011 0 00-40.83321 6.3468q-1.17679-4.68747-2.10247-9.42911zm132.01245 32.59074q-4.4856-7.75009-9.30109-15.30322c9.76393 1.23588 19.11425 2.87058 27.89834 4.8795a278.46152 278.46152 0 01-9.79347 26.34734q-4.23941-8.05044-8.80378-15.92362zm-53.84686-52.42387a280.31287 280.31287 0 0118.0064 21.73372q-18.07533-.85182-36.16544 0c5.94305-7.83871 12.03381-15.12596 18.15904-21.7288zm-54.16198 52.5125q-4.50529 7.8141-8.6413 15.82514c-3.80611-9.02535-7.06075-17.90299-9.71961-26.47536 8.72992-1.96952 18.04086-3.55007 27.74078-4.76625q-4.88443 7.60237-9.38972 15.41647zm9.6556 78.11635a278.01837 278.01837 0 01-28.18885-4.53484c2.70318-8.72008 6.03168-17.78975 9.92149-27.01205q4.15078 8.02089 8.67084 15.83499 4.59885 7.97166 9.58667 15.7119zm44.87567 37.09111c-6.20401-6.66685-12.3834-14.05258-18.41015-22.03408q8.78901.34959 17.90299.34959 9.35525 0 18.46924-.4136a277.67371 277.67371 0 01-17.97193 22.09809zm62.37983-69.10577a277.12224 277.12224 0 0110.30062 26.91358 276.39844 276.39844 0 01-28.55813 4.86966q4.84995-7.69593 9.39464-15.57403 4.61854-8.00613 8.86287-16.20921zm-20.18765 9.68023q-6.95243 12.07319-14.6779 23.68355c-9.07952.64995-18.45939.98477-28.02144.98477s-18.78436-.29543-27.70631-.87644q-7.92242-11.57097-14.96348-23.71803-7.04106-12.14705-13.05304-24.65847 6.04152-12.5705 13.01365-24.66832 6.96227-12.09289 14.83546-23.63432c9.10413-.68933 18.42984-1.04877 27.86387-1.04877 9.43404 0 18.81883.36436 27.91312 1.05369q7.78455 11.50696 14.77145 23.54077 6.9869 12.03381 13.1909 24.55507-6.13015 12.61482-13.15151 24.7668zm26.96774-145.971468c10.24646 5.90858 14.22983 29.739848 7.7944 60.991318q-.63517 3.04784-1.37866 6.08091a313.02671 313.02671 0 00-40.912-6.46497 307.81731 307.81731 0 00-25.8648-32.28054q3.44667-3.31865 7.03613-6.45513c22.59047-19.660795 43.70379-27.420729 53.32493-21.871588z" stroke-width=".492382"/>
  <path fill="#53c1de" d="M442.95653 183.33347a27.327182 27.327182 0 11-27.32718 27.32718 27.322258 27.322258 0 0127.32718-27.32718" stroke-width=".492382"/>
  <path fill="#3f3d56" d="M449.81049 10.024975a8.1735354 8.1735354 0 11-8.17354-8.1735357 8.1341449 8.1341449 0 018.17354 8.1735357z" stroke-width=".492382"/>
  <path fill="#3f3d56" d="M435.10797 12.088054A8.183383 8.183383 0 01441.25782.00500816a8.1735354 8.1735354 0 10.69426 16.28306084 8.1735354 8.1735354 0 01-6.84411-4.200015zM431.42001 21.408838h21.896212v34.156517H431.42001z" stroke-width=".492382"/>
  <path opacity=".1" stroke-width=".492382" d="M431.42001 21.408838h21.896212v34.156517H431.42001z"/>
  <path fill="#a0616a" d="M396.83022 145.33145s-2.33881 6.42558-7.8781 7.30202c-5.5393.87644-8.75947 2.33389-8.75947 2.33389l13.13674 8.46404 7.00659-.87644s.87644-9.04997 3.79626-11.09336c2.91982-2.04338-7.30202-6.13015-7.30202-6.13015zM491.70232 145.33145s2.33881 6.42558 7.8781 7.30202c5.5393.87644 8.75947 2.33389 8.75947 2.33389l-13.13674 8.46404-7.00659-.87644s-.87644-9.04997-3.79626-11.09336c-2.91982-2.04338 7.30202-6.13015 7.30202-6.13015z" stroke-width=".492382"/>
  <path fill="#3f3d56" d="M427.77148 88.697715s-3.50083 1.752878-4.66777 5.258636c0 0-6.40096 2.043384-9.92642 7.587599 0 0-4.38219 4.6727-4.9632 7.00659-.58101 2.33389-7.27741 16.34707-7.27741 16.34707s-6.71608 21.89622-10.21691 24.2301c0 0 11.09335-2.33388 13.13674 8.75947 0 0 2.62439 0 5.54422-10.21692 2.91982-10.21691 9.92641-22.77265 9.92641-22.77265s2.33389-8.75454 4.37727-10.21692c2.04339-1.46237 5.25371-8.17353 8.17354-6.40096 2.91982 1.77258 22.18671-.29543 22.18671-.29543s11.37402 5.23894 11.6596 8.73978c.28558 3.50083 2.33389 3.79626 2.6244 6.71608.2905 2.91983 11.09336 25.97806 11.09336 25.97806s2.04338 6.40096 2.62931 7.87811c0 0 6.40096-15.47064 14.88962-6.71117 0 0-.29542-5.83964-2.91982-9.35525-2.62439-3.5156-14.01318-30.94126-14.01318-30.94126s-1.16695-4.08677-2.33389-5.25371c-1.16694-1.16695-10.22184-10.51235-13.43217-10.51235 0 0-1.74796-4.377273-3.79134-4.963207zM401.498 160.51158a14.224906 14.224906 0 01-13.89501-1.86613 27.755554 27.755554 0 00-6.19909-3.59438c-3.09708-1.25065-6.79979-2.17633-7.92734-.0837-2.04338 3.79626 24.81111 13.13674 24.81111 13.13674s3.50576-2.04338 3.21033-7.59252zM487.03454 160.51158a14.224906 14.224906 0 0013.89501-1.86613 27.755554 27.755554 0 016.19909-3.59438c3.09708-1.25065 6.79979-2.17633 7.92734-.0837 2.04338 3.79626-24.81111 13.13674-24.81111 13.13674s-3.50576-2.04338-3.21033-7.59252z" stroke-width=".492382"/>
  <path fill="#a0616a" d="M437.31384 40.68558c-.10832 1.014306-.44314 2.112317-1.30973 2.649013-.70903.443144-1.60517.408677-2.42252.576087a5.6426937 5.6426937 0 00-3.85043 3.333424 8.6216027 8.6216027 0 00-.36928 5.194626 19.311208 19.311208 0 00.74842 2.491451c.85674 2.422518 1.89074 4.82534 3.49098 6.839181a29.050517 29.050517 0 004.57915 4.318187c1.03893.846897 2.11232 1.708565 3.39251 2.107394a10.709301 10.709301 0 002.65886.354515c1.10786.04924 2.28958.0837 3.24972-.467763 1.47715-.85182 1.91537-2.732718 2.71795-4.24433.67949-1.280192 1.69379-2.368355 2.32896-3.673167a14.520335 14.520335 0 00.98477-3.210328l1.36389-6.056294c.49239-2.200946.94538-4.68255-.2905-6.568372a1.1226302 1.1226302 0 00-.36436-.379134 1.3737448 1.3737448 0 00-.74842-.07386 8.0947543 8.0947543 0 01-4.5053-1.029077 1.9350599 1.9350599 0 01-.56623-.443144 2.3240414 2.3240414 0 01-.34467-1.043849 10.930873 10.930873 0 00-.63025-2.191098 1.4771449 1.4771449 0 00-.42837-.659792 1.5510022 1.5510022 0 00-.69426-.231419 56.362927 56.362927 0 00-6.36649-.664715c-.69919-.03447-1.75288-.315125-2.23542.305276-.48253.620401-.32989 2.028613-.38898 2.767185z" stroke-width=".492382"/>
  <path opacity=".1" d="M437.31384 40.68558c-.10832 1.014306-.44314 2.112317-1.30973 2.649013-.70903.443144-1.60517.408677-2.42252.576087a5.6426937 5.6426937 0 00-3.85043 3.333424 8.6216027 8.6216027 0 00-.36928 5.194626 19.311208 19.311208 0 00.74842 2.491451c.85674 2.422518 1.89074 4.82534 3.49098 6.839181a29.050517 29.050517 0 004.57915 4.318187c1.03893.846897 2.11232 1.708565 3.39251 2.107394a10.709301 10.709301 0 002.65886.354515c1.10786.04924 2.28958.0837 3.24972-.467763 1.47715-.85182 1.91537-2.732718 2.71795-4.24433.67949-1.280192 1.69379-2.368355 2.32896-3.673167a14.520335 14.520335 0 00.98477-3.210328l1.36389-6.056294c.49239-2.200946.94538-4.68255-.2905-6.568372a1.1226302 1.1226302 0 00-.36436-.379134 1.3737448 1.3737448 0 00-.74842-.07386 8.0947543 8.0947543 0 01-4.5053-1.029077 1.9350599 1.9350599 0 01-.56623-.443144 2.3240414 2.3240414 0 01-.34467-1.043849 10.930873 10.930873 0 00-.63025-2.191098 1.4771449 1.4771449 0 00-.42837-.659792 1.5510022 1.5510022 0 00-.69426-.231419 56.362927 56.362927 0 00-6.36649-.664715c-.69919-.03447-1.75288-.315125-2.23542.305276-.48253.620401-.32989 2.028613-.38898 2.767185z" stroke-width=".492382"/>
  <path fill="#2b4c81" d="M433.36002 44.166718a13.259838 13.259838 0 00-3.51068-.551467c-2.81643-.06893-5.8298.901058-7.45466 3.200481a7.5531345 7.5531345 0 00-1.12756 5.647617 11.605435 11.605435 0 002.56039 5.248789 15.756213 15.756213 0 011.96952 2.580079c.77797 1.477145.80259 3.244795 1.01431 4.923817.49238 3.998139 2.19602 7.755011 2.87059 11.728531.67456 3.97352.0935 8.577288-3.04292 11.103206-.52685.423448-1.16695.871516-1.21126 1.546078-.0689 1.078316 1.33435 1.536231 2.41267 1.639631 3.2251.305277 6.5339.60563 9.66545-.226495 1.29496-.344667 2.54561-.881363 3.8652-1.127554 3.34819-.625325 6.71608.659791 10.0692 1.275268a44.614701 44.614701 0 007.34141.595782 3.9095103 3.9095103 0 001.68887-.221572 1.3540495 1.3540495 0 00.85674-1.349125 2.3437367 2.3437367 0 00-.58101-.984764c-1.69379-2.092622-2.21079-4.874578-2.67363-7.528515l-1.551-8.917032c-.83213-4.766254-1.60516-9.946109.64994-14.224906 1.61994-3.077385 4.6087-5.243864 6.31726-8.272011a4.8450354 4.8450354 0 00.76319-3.092157c-.25604-1.52146-1.62978-2.609623-3.03799-3.244795a11.428178 11.428178 0 00-8.57729-.315125c.0492 2.132013-.49238 4.288645-.84197 6.400962l-.59579 3.446671a43.738262 43.738262 0 01-1.33435 6.007057 6.3271042 6.3271042 0 01-1.06847 2.176326 5.6279223 5.6279223 0 01-1.88582 1.373745 11.241073 11.241073 0 01-4.99275 1.142326 6.6668475 6.6668475 0 01-2.20587-.339744 9.3552514 9.3552514 0 01-3.03799-2.136936 4.9779785 4.9779785 0 01-.80259-.871516 4.8893498 4.8893498 0 01-.54654-1.314659 27.287791 27.287791 0 01-.94045-3.683014c-.14771-.955221-.19695-1.925213-.26589-2.890281-.19202-2.850889-.19202-6.002132-.75826-8.744698z" stroke-width=".492382"/>
  <path fill="#a0616a" d="M430.4008 100.66751s-1.16694 15.47556 6.13015 18.09995c7.2971 2.6244.87644-12.84624.87644-12.84624l-2.33881-4.66777zM455.21191 100.66751s1.16695 15.47556-6.13015 18.09995c-7.29709 2.6244-.87644-12.84624-.87644-12.84624l2.33882-4.66777z" stroke-width=".492382"/>
  <path opacity=".1" d="M423.97522 49.016678l-2.33389 3.796262s2.04339 13.136743 2.33389 15.470632a30.626139 30.626139 0 001.17187 4.963207s.29051 7.00659.29051 9.635908c0 2.629318 1.47714 7.006591 1.47714 7.006591a31.916179 31.916179 0 001.47715 7.297096c1.16694 3.210326 2.33388 7.006596 2.33388 7.006596s1.47715-4.08677 7.2971 2.04338a3.5353002 3.5353002 0 000-4.96321s-1.74795-7.878104-1.74795-11.969796c0-4.091691-3.21526-23.634319-3.21526-23.634319s-2.08769-22.21626-9.08444-16.652347z" stroke-width=".492382"/>
  <path fill="#2b4c81" d="M423.39421 48.706477l-2.33389 3.796263s2.04339 13.136742 2.33389 15.470631a30.448881 30.448881 0 001.17679 4.963207s.29051 7.006591.29051 9.630985c0 2.624394 1.47714 7.006591 1.47714 7.006591a31.773388 31.773388 0 001.47715 7.297096c1.16694 3.21525 2.33881 7.00659 2.33881 7.00659s1.47715-4.086767 7.2971 2.04338a3.5353002 3.5353002 0 000-4.95828s-1.75288-7.878105-1.75288-11.969796c0-4.091692-3.21033-23.634319-3.21033-23.634319s-2.0877-22.201489-9.09429-16.652348z" stroke-width=".492382"/>
  <path opacity=".1" d="M461.928 46.663093l1.47714 1.738108s1.71842 9.936261-2.07785 22.491993l-1.16694 11.383864s-2.04338 9.635909-2.33389 11.969798c-.2905 2.333889-.2905 2.624394-.87644 3.500834a1.127554 1.127554 0 000 1.477144l-1.75288 6.400966s-2.62439-3.21033-7.8781.87644c0 0-1.47715-2.33389-.29543-4.37728 1.18171-2.04338 1.16694-2.919821.87644-3.505755-.29051-.585934 1.16694-3.500834 1.16694-4.086768 0-.585934 2.05816-14.003334 2.05816-14.003334s.87644-13.136742 1.75288-17.514015c.53669-2.693328.52684-8.69546.43329-12.920095-.0936-4.401892 5.23402-6.785019 8.37049-3.692862.0739.07878.16249.152638.24619.260962z" stroke-width=".492382"/>
  <path fill="#2b4c81" d="M462.80444 46.062388l1.47714 1.738107S466 57.74168 462.20373 70.292489l-1.16694 11.383863s-2.04338 9.635909-2.33389 11.969798c-.29051 2.333889-.29543 2.629318-.87644 3.505758a1.1226302 1.1226302 0 000 1.477145l-1.74303 6.420657s-2.62439-3.21525-7.87811.87151c0 0-1.47714-2.33388-.2905-4.37727 1.18664-2.043382 1.16694-2.919821.87644-3.500832-.29051-.58101 1.16694-3.505757 1.16694-4.086767 0-.581011 2.04339-14.013182 2.04339-14.013182s.87644-13.136742 1.75287-17.518939c.87644-4.382197.29051-17.514015.29051-17.514015s4.6727-3.210329 8.75947 1.152173z" stroke-width=".492382"/>
  <circle fill="#a0616a" r="11.679293" cy="30.316023" cx="443.24213" stroke-width=".492382"/>
  <path opacity=".1" d="M449.33288 12.782312a8.1735354 8.1735354 0 01-15.30815.216648c4.55946-1.836584 9.21739-.201877 9.21739-.201877 2.32896-.817353 4.34773-.743496 6.09076-.01477z" stroke-width=".492382"/>
  <path fill="#3f3d56" d="M443.24212 13.383018s-22.47723-7.8781068-16.92808 30.360252c0 0 4.9632 3.210328 8.75454 1.166945 0 0-2.62439-26.56399 7.59253-25.397046 10.21692 1.166945 8.46404 24.816035 8.46404 24.816035s5.83964 1.747955 7.59252-1.477145c1.75288-3.225099-.58593-34.7030584-15.47555-29.469041z" stroke-width=".492382"/>
  <path opacity=".1" d="M442.66111 17.76029c-7.01152-.797658-7.97659 11.457721-7.87811 19.227504.0837-7.725468 1.38359-18.218121 7.87811-17.474625 7.29217.832125 8.48866 13.126895 8.57236 20.089171.0837-6.391113-.61548-20.931143-8.57236-21.84205zM426.31404 41.990391a78.475787 78.475787 0 01-.87152-10.108595 74.901097 74.901097 0 00.87152 11.861474s4.9632 3.210328 8.75454 1.166945c0 0-.0591-.630249-.12802-1.688869-3.77657 1.905517-8.62652-1.230955-8.62652-1.230955zM458.71767 41.138571c-1.63471 2.993681-6.80964 1.679022-7.50882 1.477145-.0345 1.08324-.0837 1.733184-.0837 1.733184s5.83964 1.747954 7.59252-1.477145c.35944-.659792.54655-2.525918.49238-5.022293-.0492 1.60024-.22157 2.796728-.49238 3.289109z" stroke-width=".492382"/>
  <path stroke-width="1.96953" stroke-miterlimit="10" stroke="#3f3d56" fill="none" d="M581.50781 331.33354c2.33389-4.32311-.31513-9.62113-3.35805-13.47648-3.04291-3.85535-6.7604-7.87811-6.68161-12.80192.11324-7.06568 7.60729-11.23123 13.59958-14.97825a66.358275 66.358275 0 0012.20614-9.81317c1.47714-1.50176 2.89028-3.10693 3.75195-5.02722 1.2408-2.75733 1.20633-5.90858 1.12755-8.92195q-.38898-15.12104-1.47714-30.20269"/>
  <path fill="#2b4c81" d="M612.04039 235.58008a10.985035 10.985035 0 00-5.49498-9.02043l-2.4619 4.87458.0738-5.90858a11.014578 11.014578 0 107.87811 10.04951zM592.40421 310.12174a11.009654 11.009654 0 11.53178-8.86287l-6.89335 5.59838 7.56791-1.7578a10.955492 10.955492 0 01-1.20634 5.02229zM586.9634 288.73761a11.014578 11.014578 0 01-3.49099-21.59586l-.0591 4.53976 2.49146-4.92382h.0295a11.014578 11.014578 0 111.02908 22.00454zM613.69972 270.94786a11.014578 11.014578 0 114.86965-20.6111l-1.96952 5.3325 4.00306-3.84058a11.014578 11.014578 0 01-6.92781 19.11918z" stroke-width=".492382"/>
  <path opacity=".1" d="M610.56325 238.51468c-2.54561.28066-5.01737 1.07339-7.56791 1.23095-2.55053.15757-5.35219-.45299-6.96227-2.4619-.87152-1.06847-1.30482-2.4176-2.03846-3.58454a7.8781064 7.8781064 0 00-2.77211-2.60963 11.014578 11.014578 0 1020.58647 7.30695c-.41852.0443-.83212.0739-1.24572.11817zM613.69972 270.94786a11.024425 11.024425 0 01-10.47788-15.7119 8.0602876 8.0602876 0 012.21572 2.22064c.78288 1.18172 1.26049 2.55054 2.18125 3.6387 1.71348 2.01384 4.64808 2.67363 7.30694 2.55546 2.65886-.11817 5.21925-.87644 7.87811-1.12263.36928-.0295.73857-.0542 1.11278-.064a11.014578 11.014578 0 01-10.21692 8.48374zM586.9634 288.73761a11.014578 11.014578 0 01-10.56651-15.5051 8.7791648 8.7791648 0 012.32896 2.24034c.85675 1.20633 1.38852 2.59485 2.39298 3.71255 1.85627 2.06801 4.97797 2.79673 7.7944 2.7278 2.72779-.0591 5.35219-.72873 8.06521-.93553a11.009654 11.009654 0 01-10.01504 7.75994zM592.40421 310.12174a11.014578 11.014578 0 01-20.07932-9.00566 10.965339 10.965339 0 012.41759 2.15663c1.04878 1.27527 1.73811 2.72287 2.95429 3.90951 2.25019 2.2108 5.88396 3.1217 9.11891 3.20541a47.810258 47.810258 0 005.58853-.26589z" stroke-width=".492382"/>
  <path fill="#656380" d="M564.89977 326.35557s8.69054-.26589 11.32478-2.13202c2.63424-1.86612 13.37309-4.09169 14.02303-1.10293.64995 2.98875 13.06289 14.87977 3.24972 14.95855-9.81317.0788-22.80219-1.52638-25.41674-3.1217-2.61455-1.59531-3.18079-8.6019-3.18079-8.6019z" stroke-width=".492382"/>
  <path opacity=".2" d="M593.65486 337.05994c-9.81316.0788-22.80219-1.5313-25.41674-3.1217-1.96952-1.21618-2.78195-5.56391-3.04784-7.57283h-.29051s.55147 7.01152 3.16602 8.60191c2.61454 1.59039 15.60357 3.20048 25.41674 3.1217 2.83119 0 3.81103-1.02908 3.75687-2.52099-.3939.89121-1.47222 1.45252-3.58454 1.49191z" stroke-width=".492382"/>
  <path fill="#f2f2f2" d="M333.4804 21.083867l-8.98597 5.696855 5.45559-9.92149a8.8628697 8.8628697 0 00-5.4162-1.939984h-.14771a10.625596 10.625596 0 01-1.8612-.137867l-3.04785 1.930137 1.30482-2.37328a10.861939 10.861939 0 01-5.32757-4.042453l-5.45067 3.446671 3.44667-6.2630944c-3.19063-3.8258054-7.4842-6.1744659-12.21599-6.1744659-5.66731 0-10.71422 3.3728143-13.97379 8.6265265a10.458186 10.458186 0 01-9.23708 4.9829028h-.30527c-6.25817 0-11.32478 7.095219-11.32478 15.849765s5.07153 15.844841 11.32478 15.844841a8.4689644 8.4689644 0 003.93905-.984763c4.08184-2.122165 9.43896-2.161555 13.71283-.265886a14.279068 14.279068 0 0011.6596.02462c4.24433-1.856279 9.53743-1.816888 13.59465.265886a8.4837358 8.4837358 0 003.90459.984763c6.25817 0 11.32478-7.095219 11.32478-15.844841a20.118714 20.118714 0 00-2.37328-9.704843z" stroke-width=".492382"/>
  <path opacity=".03" d="M316.53755 44.270118a16.740976 16.740976 0 00-9.70977 1.053697 14.279068 14.279068 0 01-11.65467-.02462c-4.2788-1.895669-9.63591-1.856279-13.71776.265886a8.4689644 8.4689644 0 01-3.93905.984764c-5.55899 0-10.18245-5.603304-11.14752-12.989028a10.625596 10.625596 0 002.77703-2.993681c3.27926-5.248788 8.30648-8.63145 13.97379-8.63145 5.66732 0 10.65514 3.333424 13.91471 8.52805a10.728996 10.728996 0 009.23708 5.076455h.12802c4.43143.0049 8.27201 3.554995 10.13814 8.729927z" stroke-width=".492382"/>
  <path fill="#f2f2f2" d="M568.38091 32.684378l-4.4659 2.841042 2.72287-4.923816a4.4314349 4.4314349 0 00-2.71302-.984763h-.0689a5.312798 5.312798 0 01-.93061-.06893l-1.52146.984763.6401-1.211258a5.4161981 5.4161981 0 01-2.65886-2.013841l-2.71795 1.723335 1.71842-3.121699a7.9618113 7.9618113 0 00-6.09077-3.082309c-2.83119 0-5.34726 1.683945-6.97212 4.303415a5.204474 5.204474 0 01-4.60869 2.461909h-.15264c-3.1217 0-5.65254 3.540224-5.65254 7.878106 0 4.337882 2.53084 7.902725 5.65254 7.902725a4.2443298 4.2443298 0 001.96953-.492381 8.1538401 8.1538401 0 016.83918-.132943 7.1493816 7.1493816 0 005.81502 0 8.1636878 8.1636878 0 016.7801.132943 4.239406 4.239406 0 001.96953.492381c3.1217 0 5.65254-3.5353 5.65254-7.902725a9.9854999 9.9854999 0 00-1.20634-4.78595z" stroke-width=".492382"/>
  <path opacity=".03" d="M559.93657 44.250423a8.3704881 8.3704881 0 00-4.84011.526849 7.1493816 7.1493816 0 01-5.81503 0 8.1636878 8.1636878 0 00-6.84411.132943 4.2098631 4.2098631 0 01-1.96952.492381c-2.77704 0-5.08138-2.791804-5.56392-6.474818a5.3817314 5.3817314 0 001.38852-1.477145c1.62486-2.619471 4.14585-4.298492 6.97212-4.298492 2.82628 0 5.3128 1.659326 6.93766 4.249253a5.3423409 5.3423409 0 004.60869 2.530842h.0739c2.2108-.03447 4.10646 1.738107 5.05184 4.318187z" stroke-width=".492382"/>
  <path fill="#f2f2f2" d="M275.05439 106.26589l7.21832 4.5693-4.37235-7.95196a7.1296863 7.1296863 0 014.35758-1.551h.11324a8.4098786 8.4098786 0 001.47715-.10833l2.43729 1.54608-1.05862-1.90059a8.7545457 8.7545457 0 004.26895-3.239872l4.36742 2.767182-2.72779-5.017366c2.55546-3.062614 5.99721-4.923817 9.78362-4.923817 4.54468 0 8.58714 2.698252 11.20168 6.893343a8.3704881 8.3704881 0 007.38573 3.99322h.24619c5.01244 0 9.07459 5.68208 9.07459 12.69359 0 7.01152-4.06215 12.69853-9.07459 12.69853a6.8244097 6.8244097 0 01-3.16602-.79274 13.092428 13.092428 0 00-10.98503-.21172 11.462645 11.462645 0 01-9.35525 0 13.117047 13.117047 0 00-10.89148.21172 6.8441049 6.8441049 0 01-3.12663.77304c-5.01737 0-9.07951-5.68208-9.07951-12.69852a16.14027 16.14027 0 011.90551-7.75009z" stroke-width=".492382"/>
  <path opacity=".03" d="M288.61951 124.84345a13.471562 13.471562 0 017.77963.8469 11.462645 11.462645 0 009.35525 0 13.102276 13.102276 0 0110.98996.21172 6.8047144 6.8047144 0 003.16109.79274c4.45605 0 8.15876-4.4856 8.9318-10.40403a8.587136 8.587136 0 01-2.22557-2.40282c-2.61454-4.20494-6.657-6.89334-11.20168-6.89334s-8.53297 2.66871-11.14752 6.83425a8.587136 8.587136 0 01-7.38572 4.06215h-.11325c-3.57469-.0345-6.64715 2.8115-8.14399 6.95243z" stroke-width=".492382"/>
</svg>