<svg xmlns="http://www.w3.org/2000/svg" viewBox="0 0 360 360" height="360" width="720" preserveAspectRatio="xMaxYMid">
    <defs/>
    <g transform="matrix(5.50197 0 0 5.6477 -1283.8865 -570.43233)" stroke="#fff">
        <rect y="101.32945" x="234.26669" width="63.598228" height="63.330952" fill="#ec5990" rx="6.3598232"/>
        <path d="M275.98457 117.61847h-6.49182a3.5953428 3.580233 0 00-6.84968 0h-6.49603a4.6310036 4.6115413 0 00-4.63101 4.61154v24.02613a4.6310036 4.6115413 0 004.63101 4.61154h19.83753a4.6310036 4.6115413 0 004.63101-4.61154v-24.02613a4.6310036 4.6115413 0 00-4.63101-4.61154zm-13.01733.83846a.42100033.41923103 0 00.421-.33119 2.7533422 2.7417709 0 015.38039 0 .42100033.41923103 0 00.421.33119h2.26498v2.74596a1.263001 1.2576931 0 01-1.263 1.2577h-8.23056a1.263001 1.2576931 0 01-1.263-1.2577v-2.74596zm16.80633 27.79921a3.789003 3.7730793 0 01-3.789 3.77308h-19.83753a3.789003 3.7730793 0 01-3.78901-3.77308v-24.02613a3.789003 3.7730793 0 013.78901-3.77308h3.70901v2.74596a2.1050016 2.0961552 0 002.105 2.09616h8.20951a2.1050016 2.0961552 0 002.105-2.09616v-2.74596h3.70901a3.789003 3.7730793 0 013.789 3.77308z" fill="#fff" stroke-width=".420115"/>
        <path d="M275.15941 131.2854h-7.4096a.42100033.41923103 0 000 .83846h7.4096a.42100033.41923103 0 000-.83846z" fill="#fff" stroke-width=".420115"/>
        <path d="M275.15941 131.2854h-7.4096a.42100033.41923103 0 000 .83846h7.4096a.42100033.41923103 0 000-.83846zM274.94891 141.16667h-7.43065a.42100432.419235 0 100 .83847h7.43065a.42100432.419235 0 000-.83847z" fill="#fff" stroke-width=".420115"/>
        <path d="M274.94891 141.16667h-7.43065a.42100432.419235 0 100 .83847h7.43065a.42100432.419235 0 000-.83847zM264.56575 131.2854h-7.4096a.42100033.41923103 0 000 .83846h7.4096a.42100033.41923103 0 000-.83846zM264.35525 141.16667h-7.43065a.42100432.419235 0 100 .83847h7.43065a.42100432.419235 0 000-.83847z" fill="#fff" stroke-width=".420115"/>
    </g>
</svg>