<svg xmlns="http://www.w3.org/2000/svg" viewBox="0 0 190.5 95.25" height="360" width="720">
  <defs/>
  <g fill="none">
    <path stroke-width=".06788" stroke="#be4bdb" d="M132.07254796 1.40061406s0 0 0 0m0 0s0 0 0 0m-1.06315198 2.35780708c.35098128-.96196402.88000956-1.6474728 2.09494792-2.76997241m-2.44489852 2.59218146c.63752017-.66839997 1.28194393-1.18973093 2.45892121-2.57773931m-2.0156365 3.43117277c.75922222-1.12792947 2.11270417-2.44876895 3.04424613-3.88900418M130.7845863 4.4828265c.7382169-.9299987 1.52654202-1.76102387 3.65905123-4.07313744m-3.72503697 5.02203028c1.2725209-1.85292076 2.96229137-3.30884641 4.3155861-5.12510961m-4.25555358 4.85378375c1.8953828-1.88920336 3.58649792-3.947048 4.51072458-4.83282231m-4.21302293 5.47679517c1.23109385-1.34660798 2.36401314-2.34589667 4.9963064-5.3838714m-5.14757202 5.64076038c1.4042189-1.46738312 2.71867816-2.92393881 4.98024168-5.6807143M131.0571953 6.9345632c2.14617547-2.27860378 4.05261797-4.66317587 5.62457724-6.40604061m-5.74896795 6.12244438c2.15626833-2.38444516 4.25413744-4.86096573 5.5259636-6.19476141m-5.21988789 7.24260416c1.343145-1.74931404 2.90735374-3.78955766 5.66106424-6.92750638m-5.99224402 6.805649c1.6454145-1.6071519 3.15802323-3.43848079 6.19903785-7.01222088m-5.97743442 7.37642663c2.00365455-1.59268161 3.2309393-3.46645844 6.30173507-7.05420311m-5.93443805 7.22253926c1.84106357-2.35378296 3.7385404-4.6473862 6.19808098-7.41680684m-6.09672658 7.50419434c2.16341573-1.65399544 4.0026415-3.73944023 6.65079408-7.39121105m-6.62209576 7.71544288c2.61500361-3.08850232 5.13111758-5.9809777 6.55836197-7.45440462m-6.09261664 7.6117841c2.04744203-2.30583871 4.28756492-4.84334105 6.46170658-7.19855235m-6.39240886 7.26174407c2.02602503-2.35668839 3.92243984-4.3962778 6.3765771-7.44641936m-5.93123809 8.07299765c1.8316266-2.85537933 4.11990905-5.15454228 6.11991837-7.79274305m-6.36250418 7.63057276c1.6636418-1.77977098 3.42109368-3.62214763 6.59471544-7.31867199m-5.95926202 7.90572285c2.58486148-2.78543867 5.094209-5.82954293 6.29524196-7.72109079m-6.6285573 7.68317871c2.01222932-2.26928825 4.02665352-4.60064568 6.66583092-7.47741445m-6.28451445 7.54643008c2.3649013-2.37931226 4.71926977-5.16340736 6.4822819-7.38248534m-6.24013228 7.66281869c2.05144315-2.38758912 4.1146909-4.809011 6.35259133-7.45689289M133.855267 10.1689593c2.10190797-2.60290158 4.02787397-4.88343824 6.00605181-7.22416739m-6.18273296 7.33213253c1.92066666-2.06298316 3.77903473-4.15170617 6.18987545-7.1027295m-5.76083452 7.2811198c1.6211974-1.92334429 3.35208226-3.64143803 5.8205243-6.93231221m-5.55099788 6.73339613c1.20128003-1.17562095 2.31085812-2.7039956 5.75368756-6.57703835m-4.94691084 6.61851264c1.89811745-2.2762153 4.1031532-4.63516591 4.98331562-5.66768312m-5.15901703 5.8217609c1.28808976-1.36312572 2.6559323-3.04302121 5.29453966-6.05105736m-4.9752724 6.13686902c1.38010245-.95649254 1.9983964-2.28106895 5.27568204-5.55940886m-5.17742055 5.7275559c1.13560792-1.1491928 2.19461395-2.4335432 4.92724032-5.66929128m-4.23320733 5.77816042c1.541645-1.53694258 2.76803323-3.26367075 4.68627177-5.18873615m-4.39521036 4.89575041c1.53062493-1.72712308 3.1129563-3.67136458 4.08787395-4.73498126m-3.21515104 4.37514031c1.63772966-1.72334352 2.99486356-3.21892095 3.56247889-4.13810567m-3.46086329 4.11865847c.93611013-.83563337 1.59319273-1.82173018 3.34099011-3.81558884m-1.89432323 3.17710904c.25604159-.44903169.49160342-.75352783.8113917-1.14306672m-1.02034118 1.1165221c.41043133-.37707031.78488755-.72238002 1.16160599-1.21661493"/>
    <path stroke="#000" d="M137.82690057.76852464c.90060988.36907204 1.69822461 1.34469189 2.16786516 2.2372781.46964055.89258606.79895966 2.09062969.64997813 3.1182388-.14898166 1.02760898-.7951163 2.30428703-1.54386785 3.04741547-.74875156.74312858-1.89980448 1.31196231-2.94864136 1.4113556-1.04883688.09939342-2.44147157-.28224234-3.34438006-.81499547-.90290848-.53275299-1.6858593-1.45777192-2.07307068-2.38152249-.3872114-.9237507-.46872702-2.16846547-.25019767-3.16098119.21852934-.99251586.7852502-2.10155065 1.5613738-2.79411336.77612346-.69256273 2.04129979-1.31219403 3.09536731-1.361263 1.05406767-.04906897 2.6147325.80758755 3.22903825 1.0668492.61430574.25926165.50803971.44453779.45679594.48872067M134.6316435.19180859c.98212366-.1756128 2.41139922.16706751 3.34354394.68057074.93214471.51350323 1.79977708 1.52631866 2.2493241 2.40044867.44954715.87412988.64405608 1.84166326.44795854 2.84433089-.19609753 1.00266763-.85914862 2.46292577-1.6245439 3.17167463-.76539514.70874899-1.949696 1.01662122-2.96782736 1.08081917-1.0181315.06419794-2.2725358-.18654173-3.1409611-.69563124-.86842532-.50908937-1.64323802-1.41843673-2.06959103-2.35890527-.42635303-.94046841-.7146023-2.28682416-.48852713-3.28390547.2260752-.9970813 1.15535496-2.08614298 1.84497816-2.69858224.68962326-.61243929 1.87430179-.79023724 2.29276128-.97605347.41845949-.18581623.19465636-.18242056.21799539-.1388439" stroke-width=".13576"/>
  </g>
  <path fill="none" stroke="#000" d="M133.10778082 10.8442646c-1.03065673 2.60240036-5.6968134 12.42434565-6.77327362 14.91725757m6.495671-15.0604244c-1.07042363 2.50948595-5.81074772 11.81937304-6.8641605 14.41614527" stroke-width=".13576"/>
  <path fill="none" stroke="#000" d="M126.80840612 20.88840336c-.5637998 1.41758472-.58631167 1.85304158-.91140608 4.65014365m.54204964-4.31068689c-.33813328.50791849-.17874177 1.42889843-.25573912 3.844824" stroke-width=".13576"/>
  <path fill="none" stroke="#000" d="M129.33834051 22.05478616c-1.14241088 1.18769637-1.7646211 1.3466726-3.44134047 3.48376085m3.07198417-3.14430408c-.90674126.2786223-1.30132223.94420276-2.78567365 2.67844119M138.50305863 10.85417102c1.04631983 2.32731792 4.64394342 12.08898004 5.58077536 14.43305066m-5.8564682-14.83280477c1.03275772 2.3788216 4.63707883 11.79325618 5.58859147 14.25864727" stroke-width=".13576"/>
  <path fill="none" stroke="#000" d="M140.97060414 21.73683017c1.06658347.65134586 1.10069807 1.07394317 3.26665722 2.53620886m-2.92720046-2.81029992c.61779737 1.3204242 1.62045278 2.59786642 2.46133798 3.27787387" stroke-width=".13576"/>
  <path fill="none" stroke="#000" d="M143.57036407 20.73569806c.54010088.90954664.02929556 1.54198507.6668973 3.53734097m-.32744054-3.81143202c-.31490612 1.70955922-.25528394 3.3501506-.13842195 4.27900597" stroke-width=".13576"/>
  <g fill="none">
    <path stroke-width=".06788" stroke="#fd7e14" d="M120.45988746 29.26509338s0 0 0 0m0 0s0 0 0 0m-.5134833 1.0083122c.86547777-.70830304 1.72807673-1.65831844 2.01814916-1.97382636m-1.99387969 2.19066646c.6011465-.48777784 1.01904431-.86493857 2.13918592-2.30843977m-2.28923686 3.73377571c1.47286917-2.03771844 2.99313151-3.7432669 3.78283484-4.4209048m-4.01513626 4.37642c.95585155-1.1109947 2.04062733-2.26871686 3.73878583-4.23786593m-3.7736105 5.19519188c.97340531-1.61219914 2.27546268-2.29202983 4.48798994-5.35369716m-4.28816074 5.08928843c.90051049-1.02378937 1.97217827-2.21164131 4.22987765-5.08116015m-4.37928704 5.94173162c2.07503707-1.96839424 3.81765797-4.27832285 5.02472714-5.88341656m-4.67661605 5.77787587c1.40216974-1.63911911 2.71218939-3.21302959 4.78277361-5.93601296m-4.48602282 6.463339c1.62123146-1.81247263 3.29845406-3.81640378 5.12211822-6.04325336m-5.29959669 5.9459989c1.34069342-1.43710455 2.7112945-3.04478005 5.41422958-6.15180126m-4.94179139 6.6600856c2.17131227-2.69960215 4.5743339-5.42190244 5.49335625-6.63257839m-5.65114232 6.82109944c1.41012961-1.73541407 2.8714829-3.6288234 5.77605622-6.80285294m-5.62855911 7.41951172c1.10317868-1.73793612 2.582737-2.98618907 6.03720703-7.3112553m-6.11920635 7.20011254c2.28202769-2.55818464 4.59227803-5.39946348 6.0716729-6.8821874m-5.59829879 7.76785878c1.74267955-2.08688462 2.95350928-3.91495308 6.00749543-7.4192865m-6.3139627 7.17936366c1.529588-1.73625981 3.2052744-3.597796 6.4110635-7.37928548m-5.97861013 7.84081968c1.74873762-2.22015072 3.92101998-4.4000989 6.46965926-7.22679451m-6.49771117 7.15610516c2.43247956-2.56429348 4.33971284-5.0204596 6.55222706-7.37137432m-6.21852685 7.56137754c2.60831427-2.75620501 4.68220603-5.39849052 6.48232372-7.53442878m-6.26943789 7.6240705c1.75122846-1.74983058 3.36619645-3.53351416 6.42691702-7.42497861m-5.74292733 7.94052233c2.3859029-3.12710689 4.60718257-6.03232994 6.19457882-7.69596468m-6.3639338 7.391222c1.49619077-1.54826265 3.01179779-3.30532234 6.2513056-7.34700939m-5.88709932 7.69057628c1.64005895-1.9349671 3.26184892-3.6571339 6.46380577-7.59570364m-6.42844209 7.65287137c2.59650018-2.95040944 5.12799562-5.82854187 6.4153204-7.34763387m-6.21432861 7.5791244c2.34329003-2.43394625 4.35584136-4.80124309 6.34462087-7.0952244m-6.10062823 7.28941336c1.55407827-1.94477854 3.15112197-3.6936302 6.32913921-7.2155153m-6.09420796 7.71855895c1.30899796-1.8826244 2.52567915-3.45394982 6.2320148-7.23210852m-6.03903067 6.97530236c1.96407112-2.25515126 3.97774175-4.46472624 5.93726846-6.97351826m-5.35575167 7.1045353c2.3387592-2.75667852 4.82379624-5.36001899 5.43936111-6.51102182m-5.28895143 6.47981402c1.89033814-2.374077 4.04694159-4.87083432 5.46863386-6.42791455m-4.67764059 6.0693292c1.04354745-.95667513 2.22407052-2.70189642 5.16342908-5.69867467m-5.12139235 5.85600759c1.18357742-1.35053742 2.24307474-2.67897172 4.87195823-5.8906876m-4.1842365 5.97911811c.76248143-1.065929 1.97504652-2.3431426 4.61145505-5.40585673m-4.67649956 5.38999211c1.7278449-2.1677271 3.66581586-4.02938261 4.55851012-5.1191194m-3.83582777 5.17108906c.68053242-1.04377674 1.31586514-2.12821732 3.17322726-3.91535301m-2.92352991 3.6239905c.56929964-.86050847 1.35418692-1.59317305 3.23002111-3.58729955m-1.35935661 2.08774178c.41467124-.4524128.78865095-.69755299.92304898-1.03967992m-.88715952 1.08869663c.23313345-.19787905.35826836-.47157071.87364673-1.06270875"/>
    <path stroke="#000" d="M126.00826366 27.47277593c.93730763.20562345 1.97296105.95257864 2.63066908 1.74804035.65770816.79546166 1.24365927 2.02683291 1.31557978 3.02472956.07192038.99789679-.27475028 2.12076327-.88405725 2.96265062-.60930696.84188721-1.77139027 1.71880958-2.77178482 2.08867279-1.0003944.36986334-2.26405299.44018805-3.23058219.1305066-.96652906-.30968144-1.9749751-1.15883305-2.56859247-1.98859515-.59361738-.8297621-.98433928-1.96352701-.99311176-2.98997732-.00877248-1.02645045.30798775-2.32999512.94047689-3.1687248.6324891-.8387296 1.81312946-1.58021213 2.854458-1.8636531 1.04132853-.28344096 2.76317875.08173192 3.39351324.16300735.63033462.08127542.43066415.26513079.38849411.32464523m-2.02003483-.56374463c1.01902341-.02529708 2.36279235.52874267 3.10971162 1.16963017.7469194.64088745 1.12714888 1.69294716 1.371804 2.6756949.24465527.98274772.47825938 2.26672057.09612702 3.22079125-.38213235.95407053-1.45813411 1.95096042-2.38892087 2.5036321-.93078676.55267167-2.1786957.92731387-3.19579954.81239792-1.01710384-.11491607-2.1449835-.80733724-2.90682362-1.5018937-.76184013-.6945566-1.46219804-1.64450969-1.66421717-2.66544535-.20201913-1.02093553-.02538384-2.52293228.45210236-3.4601685.4774862-.9372362 1.59869614-1.67528509 2.4128149-2.16324885.81411876-.48796378 2.06219197-.66474612 2.47189756-.76453373.40970573-.09978762-.0361983.10273076-.01366349.16580805" stroke-width=".13576"/>
  </g>
  <g fill="none">
    <path stroke-width=".06788" stroke="#82c91e" d="M141.9359234 29.97209157s0 0 0 0m0 0s0 0 0 0m-.4836639 1.04201097c1.07820396-.92201507 1.9095178-2.14234074 3.14362112-3.40613645m-2.92678093 3.50262865c.57917139-.6448778 1.26039091-1.38259518 2.80900762-3.11168973m-2.87564789 4.25251934c.76547245-1.24311557 1.8601328-2.49441052 3.71196248-4.65634003m-3.75644722 4.43665069c1.17945887-1.21418763 2.3114109-2.70704277 3.89500126-4.40770445m-3.82830952 5.27713286c1.3619167-1.747933 3.64783809-3.95103151 4.47605774-5.58114914m-4.74046645 5.73824692c1.21732398-1.21730823 2.27282373-2.7933544 4.74859479-5.43817322m-4.31994804 6.06895937c1.24471905-1.35092445 2.15605562-3.0568047 5.28697234-6.3393246m-5.392513 6.40669963c1.8371694-2.27208645 3.743427-4.56013756 5.23437586-6.32871378m-5.03651875 6.8532715c2.23838562-2.45834295 4.29087178-5.00490952 5.90660435-6.76912703m-6.00385886 6.6111805c1.33211874-1.36138385 2.48890175-2.75385644 5.79805646-6.3329375m-5.61924104 7.03012761c1.93041943-2.20773034 3.83643227-4.70397247 6.0967482-7.03379264m-5.9082272 6.91928343c1.51357669-1.8177952 2.87272587-3.52425037 5.92647364-6.92152013m-5.7417396 7.41607759c1.4755978-1.827635 3.45079364-3.96284832 5.99262874-6.80188794m-6.1037715 6.874964c2.58477676-2.82329291 4.8849967-5.56515362 6.42169668-7.1614098m-5.8654943 7.98804546c1.18338723-2.06726202 2.6335718-3.53183786 6.45915494-7.82921525m-6.6990777 7.5210529c2.3665478-2.48804944 4.6067508-5.20195857 6.49915594-7.38377485m-5.98405255 7.60461282c1.6140522-1.60865932 3.26493572-3.58411161 6.74071035-7.23765276m-6.8113997 7.60531714c1.58134212-2.12299767 3.27993137-3.85170502 6.59613055-7.6215407m-6.35255793 7.93827056c2.23822299-2.85142193 4.58188282-5.42657786 6.62459515-7.90426172m-6.53495343 7.93694613c1.85105738-2.00493057 3.65711015-4.10516943 6.73404531-7.68110301m-5.97341328 7.93043517c1.89389059-2.80994573 4.02093348-5.09456835 6.27154034-7.86726774m-6.576283 7.79240922c2.3381244-2.4801474 4.46008232-5.0617137 6.62049547-7.6802339m-6.13429592 7.7902993c1.31906203-1.57562003 2.84673633-2.95847193 6.2961302-7.0164788m-6.23896234 7.20231583c2.03782039-2.3995125 4.15010303-4.82644143 6.54419985-7.4077206m-6.17007664 7.59421672c1.73230662-2.05084963 3.53255355-4.03291904 6.32450765-7.22648296m-6.1303187 7.29673015c1.9068867-2.36156879 4.00920505-4.74106364 6.20421676-7.27109374m-5.55854044 7.34509606c1.56140566-2.29453533 3.4327207-4.30782286 5.71552189-6.5883321m-5.97232805 6.64954438c1.2870097-1.4493646 2.62067912-2.90772014 5.97411214-6.60096656m-5.29063955 6.8627381c1.00790249-1.1099502 2.16922489-3.0040577 5.64374745-6.3663554m-5.67495525 6.2753279c1.31978493-1.46408957 2.51745822-3.12007939 5.72685473-6.53519331m-5.17673064 6.41699222c1.61643754-1.41957164 2.4481032-2.5773401 5.12885277-5.83434798m-4.97151986 6.03518419c1.59667377-1.98999982 3.21422098-3.85154917 4.93683985-5.94109853m-4.02876357 5.53716688c1.64136342-1.56246116 3.07200684-2.9541985 3.72478316-4.11977302m-3.74064778 4.24947813c.74118361-.8335065 1.78941258-1.81755314 4.01152062-4.61723293m-2.59213239 3.97818173c.6197445-1.03024928 1.19660367-1.9164649 2.26682878-2.9086377m-2.55819129 3.05842127c.84923116-.96853389 1.82487279-1.91034084 2.59488225-2.74012209"/>
    <path stroke="#000" d="M147.20814781 27.29506478c1.00105066.08211815 2.16496122.86461445 2.89107344 1.61819425.7261122.75357983 1.33563896 1.91745565 1.46559983 2.90328448.12996101.98582896-.20233698 2.13043094-.68583406 3.01168878-.48349694.8812577-1.32311405 1.81379218-2.215148 2.27585772-.89203395.46206555-2.12494643.67611779-3.1370557.49653569-1.01210913-.17958224-2.23896503-.80199746-2.93559977-1.57402872-.69663484-.77203113-1.13411607-2.05009008-1.24420904-3.0581586-.11009298-1.00806837.08296299-2.13198425.58365115-2.99025249.50068818-.85826811 1.3987944-1.75103764 2.42047793-2.1593567 1.0216834-.40831908 2.95933588-.33969585 3.70962283-.29055767.75028695.04913818.84054826.48416692.79209873.58538675m-3.02425088-.52503648c.95656707-.24779457 2.3085572-.2626664 3.19923971.225962.89068251.48862837 1.73102184 1.76307994 2.1448556 2.70580827.41383378.94272833.54809049 1.99633021.338147 2.95056175-.2099436.95423155-.8488756 2.08765245-1.5978084 2.77482764-.74893293.68717504-1.8532668 1.25638183-2.89578848 1.3482232-1.04252169.09184136-2.47576903-.26270487-3.35934177-.7971753-.88357273-.53447043-1.54502413-1.4992177-1.94209463-2.4096473-.39707051-.91042945-.69463163-2.04962905-.44032842-3.05292984.25430322-1.0033008 1.23615182-2.2879899 1.96614773-2.9668751.7299959-.67888526 1.99883788-.9672024 2.41382788-1.10643647.41499-.13923408.08778147.14143835.07611236.27103201" stroke-width=".13576"/>
  </g>
  <g fill="none">
    <path stroke-width=".06788" stroke="#4c6ef5" d="M153.89287523 56.46758154s0 0 0 0m0 0s0 0 0 0m-1.13568777 2.00746676c.70605994-.73175244 1.11378544-1.17867979 2.17470317-2.92156332m-2.07821099 2.93558601c.55915203-.50738374 1.02542608-1.15858978 2.46914992-2.7075629m-2.615385 3.59822274c.97282762-1.11501319 1.93999065-1.97354045 3.48991957-4.01739851m-3.70960895 4.31405968c1.2318241-1.30835014 2.1819094-2.41737612 3.7385552-4.2424866m-3.6974821 4.64151667c1.28854848-.66539544 2.12122674-2.15019051 4.226504-4.84122242m-4.0694062 5.09639341c1.49986443-1.68265702 2.64117773-3.24425178 4.36947985-5.04451599m-4.2462895 6.00592627c1.85755828-2.4092285 3.35815987-4.33621958 4.8089624-5.73934679m-4.74158746 5.57201645c1.49569412-1.84980653 2.9766066-3.93870765 4.81957337-5.60764932m-4.8026114 6.5622379c1.80702386-2.1982549 3.52874973-4.37884955 5.22090771-6.7279925m-5.37885418 6.50498815c1.4422506-1.64719492 2.8520765-3.18174888 5.65709718-6.2400343m-5.55656636 6.96179325c1.73823906-1.99342994 3.19640005-3.83202268 5.9761165-7.06295467m-6.09062568 7.26974836c2.00298469-2.57905116 4.121366-4.83588836 6.08838898-7.17665311m-5.7451737 7.26925769c2.76393277-2.74914914 5.22280123-5.97284759 6.87164204-7.06334578m-6.79856598 7.3269887c1.80606394-2.20286514 3.69106866-4.21344802 6.51212025-7.68796278m-5.83682673 8.09939763c1.90481982-2.75149838 4.42004989-5.60451597 6.15168195-7.47634981m-6.45984426 7.412616c2.03219845-2.21268974 3.831915-4.41387791 6.59712233-7.61673133m-6.41177855 8.03470768c2.09509238-2.09408956 3.82086104-3.91534447 6.93476355-7.7457035m-6.56709916 7.72987173c2.28191172-2.84072007 4.9510048-5.72569728 6.5508756-7.54709195m-6.18057648 7.68220296c1.25262494-1.60948498 2.77575212-3.41245733 6.37061038-7.4973319m-6.33792597 7.7295433c1.31266824-1.44013637 2.53264488-3.1146041 6.59376909-7.5750751m-6.18841187 7.94654905c2.25909766-3.07382977 5.05171247-6.20701386 6.30514856-7.5639049m-6.38000709 7.60117852c1.52097207-1.75668391 2.94455011-3.68786101 6.4921824-7.79014415m-6.22609194 7.9343422c1.60054958-1.67672533 3.39427714-3.88275615 6.95102594-7.40293237m-6.76518891 7.51539156c2.07818393-2.36511743 4.13281665-4.7979133 6.55978413-7.5938628m-6.03913616 7.64311871c1.94643924-2.2006222 3.95422257-4.50779185 6.25552787-7.16639025m-6.18528067 7.17353274c1.86403027-2.1189895 3.71739508-4.14016196 6.21091695-7.22650088m-5.71369937 7.19244452c1.5459263-1.96062864 3.37001266-3.58103702 6.05193095-6.81959144m-5.99071867 7.02228111c1.80428809-1.98919248 3.60597443-4.2508012 6.03929648-6.8859054m-5.35430967 6.82856377c1.86591022-1.88872794 2.94656553-3.51031496 5.44555236-6.11044305m-5.53657987 6.24596568c1.70695842-2.0396881 3.22364184-3.66383859 5.2767146-6.15373606m-4.56187767 6.36039956c1.67132214-2.28955854 3.60589651-4.12262076 4.62353373-5.58377543m-4.4226974 5.33359507c1.13676416-1.45084407 2.40624773-3.09884619 4.51678293-5.2813057m-4.27919548 5.74307978c1.5337579-1.66747444 3.23980363-3.71535592 4.676715-5.29038705m-4.54701003 4.98305063c1.6873976-1.5835123 3.2235137-3.39268486 4.17925524-4.71315617m-2.86293804 4.05802844c1.04352669-1.56131823 2.22580439-2.60776785 2.98827862-3.39363814m-2.83849504 3.27376497c1.08062992-1.0962016 2.19562532-2.2522351 3.15679423-3.42214062"/>
    <path stroke="#000" d="M156.14311215 55.25320828c.9500545-.29439786 2.43855188-.10272997 3.41369895.2776233.97514707.38035326 1.9531226 1.12106883 2.4371832 2.00449632.4840606.88342748.61380874 2.24190847.46718012 3.29606845-.14662862 1.05415997-.65901847 2.28047896-1.34695171 3.02889127-.68793324.74841244-1.78095558 1.27533271-2.78064787 1.4615831-.99969228.1862504-2.27759321.10777713-3.21750557-.34408071-.9399125-.45185771-1.96423283-1.43566813-2.4219688-2.36706593-.45773598-.93139765-.51841974-2.20416188-.32444711-3.22132015.19397263-1.01715828.6997594-2.14930499 1.48828297-2.88162976.78852348-.73232482 2.52947608-1.27310658 3.24285799-1.51231916.7133819-.2392126 1.01426438-.01037775 1.03743358.0770436m1.4187172.48603678c.88176651.29331985 1.5749995 1.17488058 2.1024951 2.03864514.52749574.86376457 1.14652047 2.11708702 1.06247905 3.14394215-.08404141 1.02685527-.83211908 2.22857257-1.5667278 3.0171889-.73460872.78861648-1.84097892 1.52305768-2.84092425 1.71450967-.99994547.191452-2.22830282-.12761584-3.15874815-.56579743-.93044534-.43818173-1.93380523-1.14797169-2.42392375-2.06329254-.49011853-.91532085-.69991605-2.40473948-.51678746-3.4286323.1831286-1.02389281.90591303-1.98946765 1.61555906-2.71472433.70964606-.72525665 1.74250089-1.42673479 2.642317-1.63681566.89981612-.21008088 2.27557413.331147 2.75657997.3763304.48100583.04518339.11784228-.18003382.12945532-.10523005" stroke-width=".13576"/>
  </g>
  <path fill="none" stroke="#000" d="M149.5982257 39.23837662c.95892849 2.36967743 4.80441358 12.16498335 5.71335516 14.58669344m-6.12319119-13.8429004c.89792535 2.24868868 4.6891737 11.12856867 5.7931432 13.3227721" stroke-width=".13576"/>
  <path fill="none" stroke="#000" d="M151.8726666 50.3378138c1.60684333.53288535 2.4344791 2.17296548 3.38025418 3.30568236m-3.31549651-3.01937171c.76151743.47675914 1.42836816 1.35837198 2.79068261 2.72423045" stroke-width=".13576"/>
  <path fill="none" stroke="#000" d="M154.40497074 49.17658466c.81497877.91566255.83881208 2.92433929.84795004 4.4669115m-.78319238-4.18060098c.1508506.75838474.22542513 1.91159536.25837848 3.88545972M121.820552 39.1089616c-1.0631974 2.46571921-5.84626777 12.17821121-6.87983694 14.70803782m6.54107028-14.87446193c-.92514175 2.49409402-4.86840973 12.80803493-5.8556477 15.26627308" stroke-width=".13576"/>
  <path fill="none" stroke="#000" d="M116.1631156 49.65384936c-.68275743 1.9097742-.03150266 2.01309747-.7192943 4.15752708m.14180279-3.74016925c.04227484 1.80504439.2775391 3.10467076-.0614918 4.34727453" stroke-width=".13576"/>
  <path fill="none" stroke="#000" d="M118.75849499 50.66628403c-1.2935436 1.7085868-1.2411201 1.57831125-3.3146737 3.1450924m2.73718218-2.72773456c-.93807627 1.3892184-1.68378257 2.3061781-2.65687118 3.33483985M127.2856594 38.94247684c.90963879 2.37020898 4.39780913 12.42834655 5.37155494 14.79696021m-5.67050505-14.1428023c1.01736583 2.2495089 5.43025328 11.339413 6.43871888 13.64718324" stroke-width=".13576"/>
  <path fill="none" stroke="#000" d="M130.06739766 50.09338402c2.03731592 1.66155361 2.2333164 2.10779676 2.96059732 3.57381635m-2.54323948-3.36199565c1.08405055 1.15541976 1.69835059 1.69328299 3.15034355 3.14138127" stroke-width=".13576"/>
  <path fill="none" stroke="#000" d="M132.59434096 48.9205348c1.14469198 2.1239607.43342174 2.99130228.43365402 4.74666557m-.01629618-4.53484488c.31871378 1.47881017.1826609 2.3649404.62340025 4.3142305M159.86133172 66.2462929c.97958788 2.54774062 5.11799732 13.10737695 6.0923084 15.74454001M159.363433 66.88083128c.9113334 2.43305755 5.08065656 12.13076105 6.26701547 14.5670203" stroke-width=".13576"/>
  <path fill="none" stroke="#000" d="M162.24689463 78.48616089c1.88268073.65126319 2.96844777 2.17980197 3.64413535 2.95830224m-3.01478224-2.75006235c.94248479.73403814 2.26450316 2.24521872 2.8724428 2.72921715" stroke-width=".13576"/>
  <path fill="none" stroke="#000" d="M164.78430152 77.33612464c1.02038545 1.03692775 1.2387987 2.9585804 1.10672846 4.1083385m-.47737534-3.90009862c-.01394083 1.17791222.33735623 3.12905538.3350359 3.8792534" stroke-width=".13576"/>
  <g fill="none">
    <path stroke-width=".06788" stroke="#e64980" d="M163.6444053 86.5484112s0 0 0 0m0 0s0 0 0 0m-.41813908.89410747c.7855204-.56924032 1.15083049-1.24747209 2.73515417-2.68082591m-2.64489497 2.92809962c.78031894-.83194817 1.31850555-1.28598325 2.63311984-2.78512792m-2.49510153 3.55194211c.64343909-1.14458175 1.57677099-1.92772864 2.96798052-3.98731447m-3.0701723 4.15999709c.89905933-.8145802 1.63875222-1.89953175 3.21006515-3.85402195m-3.40753663 4.78386385c.9726737-1.59098725 2.71609534-2.86000029 4.43156955-5.21526835m-4.57799846 5.44586834c.9473462-1.2173939 1.92561534-2.27310284 4.4797033-5.33700357m-4.0014774 5.83900503c1.196995-1.80849895 2.48336895-3.1835266 4.78926047-5.77387875m-4.88585649 5.63463643c1.19341592-1.43486636 2.52529935-3.1183071 5.09052642-5.72996525m-5.1208615 6.63628132c2.33036351-2.95152303 4.53932081-5.3299161 6.03143255-6.90038243m-5.93870683 6.74398596c1.4994989-1.78144851 2.97257124-3.35642575 5.65507843-6.59136973m-5.10451608 7.22279243c1.18614197-1.86798143 2.76931271-3.931249 5.62200815-7.0034154m-5.75547801 6.94921094c1.25901968-1.45943872 2.43707309-2.96915017 5.73393-6.9353154m-5.73385372 7.31332338c1.48834494-1.55046013 2.90188497-3.02220995 6.25986511-7.2007897m-6.03960795 7.16036846c2.24213048-2.64589456 4.53911293-5.0956434 6.13055713-7.00449725m-5.63576097 7.7688331c1.1316637-1.51873632 2.34216707-3.43195708 6.01972046-7.38003573m-6.27803961 7.17191c1.7865666-2.02604145 3.61152234-3.89224748 6.2272483-7.18160744m-5.98470376 7.47722303c1.64955665-1.78378119 3.32912986-3.2672532 6.41269788-7.14613219m-6.39279278 7.37827652c1.66646184-1.85931604 3.21188585-3.521674 6.47971003-7.44375816m-6.26014463 7.98749307c1.67347915-1.93606577 3.02857197-3.27016066 6.67596966-7.79379053m-6.34627057 7.57714808c1.41848329-1.8641712 3.03794845-3.49805396 6.6436097-7.56994925m-5.94777782 7.64977954c2.10906308-2.2474033 4.3446907-5.1835856 6.58124472-7.4868694m-6.79887506 7.53239951c2.31997503-2.77869842 4.6928096-5.4914353 6.5467344-7.61493376m-5.82917612 8.14496989c1.96493357-2.47016506 3.63094049-4.91906556 5.98513017-7.2981997m-6.37274364 7.12978671c2.04519284-2.07739302 3.83296415-4.15656186 6.31812987-7.29704008m-5.61469068 7.7743512c2.54484534-3.19165317 4.41316969-5.67556085 5.81315022-7.41355521m-5.91510358 7.14992817c2.12064938-2.6539443 4.41578827-5.27860214 6.15032169-6.95357352m-5.941286 7.21566626c2.27507509-1.8552195 4.09340746-4.11323967 6.26551646-6.81917087m-6.04647793 6.87282892c1.62661443-1.9850848 3.4583768-3.89635272 5.99839332-6.82106846m-5.75120826 7.28501068c2.11985642-2.50334796 4.1240975-4.8523302 5.9939571-6.90308996m-5.81570621 6.81803147c2.01724737-2.21917505 3.8165147-4.34053564 5.97861148-6.699737m-5.10435304 6.5475788c2.28225179-2.06478096 4.07890256-4.83301618 5.09697162-6.22475502m-5.03763467 6.04688873c1.37671686-1.37473252 2.41126713-2.76501932 5.15527047-5.7459992m-4.34252147 5.43698322c1.16748418-.6395015 1.94518445-2.07543978 4.10989126-4.526178m-4.11891953 4.76951725c1.59040093-1.68961352 3.0403368-3.40305059 4.1961421-4.71883807m-3.402393 4.4295343c.83452467-.75750574 1.43623424-1.54554254 3.19034871-3.54647214m-3.12895342 3.61935528c.63524883-.67838571 1.3580535-1.62940936 3.0646394-3.4004506m-2.49386139 3.38905966c.49769015-.58222164 1.52145088-1.41367348 2.30936523-2.23200582m-2.28367492 2.34628629c.67150252-.82942692 1.4074616-1.51342964 2.4326992-2.45840553"/>
    <path stroke="#000" d="M165.65740849 84.7683348c.83508289-.5270815 2.29790762-.76212555 3.33157236-.61458342 1.03366475.14754212 2.1330999.78410678 2.87041611 1.4998361.73731622.71572938 1.39151349 1.78390404 1.55348109 2.7945401.1619676 1.01063605-.07890783 2.38101055-.58167563 3.26927635-.50276766.8882658-1.5116393 1.61527467-2.43493075 2.06031855-.9232913.44504388-2.11315175.78982619-3.10481751.6099446-.9916659-.17988144-2.1316579-.9032632-2.84517719-1.68923381-.71351926-.78597074-1.3057921-1.99756124-1.43593853-3.02658995-.13014643-1.0290287.0828477-2.26818484.65505998-3.14758202.5722123-.87939718 2.2423832-1.75757958 2.77821376-2.12880137.53583057-.3712218.42531459-.16843221.43676947-.09852935m3.26259747.17853567c.90745818.29531717 1.84820408 1.31277475 2.4034156 2.18361582.5552115.87084121.98259907 2.04743661.92785322 3.04143098-.05474572.99399437-.55571028 2.13678292-1.25632794 2.9225351-.70061766.78575217-1.943765 1.57740997-2.94737775 1.79197795-1.0036129.21456798-2.16916583-.05202247-3.07429934-.50457036-.90513338-.45254802-1.84377916-1.33861553-2.35650164-2.2107171-.51272248-.87210155-.83495434-2.02739398-.71983318-3.0218924.11512117-.99449857.71286209-2.14787901 1.41056017-2.9450983.69769811-.79721932 1.81520783-1.63735472 2.77562832-1.83821763.96042048-.20086293 2.48875075.50531706 2.98689459.63304012.49814384.12772305.04427927.08258493.00196845.13329822" stroke-width=".13576"/>
  </g>
  <g fill="none">
    <path stroke-width=".06788" stroke="#be4bdb" d="M108.75663122 59.5649035s0 0 0 0m0 0s0 0 0 0m-.31278812.7142415c1.17125844-1.11099632 1.9785394-2.09755511 2.79218003-2.76389964m-2.64765605 2.89434027c1.19491915-.96784493 1.94828259-2.16954336 2.91129464-3.03382087m-2.9946999 4.09560744c.73355391-1.0007995 1.73954407-2.36733187 3.67827947-4.03374691m-3.80722035 4.03226785c1.34442612-1.3451349 2.44619218-2.42394326 3.98180761-4.21161845m-3.93706427 5.04273132c1.18702111-.94827338 2.16440211-2.6327802 4.45535486-5.39979124m-4.38320486 5.48903846c.96678498-1.14262402 1.81731666-2.08061531 4.43160878-5.32796279m-4.2455144 5.78261868c1.714548-2.22871905 3.63885072-4.41003808 5.21753326-6.16284078m-5.3152112 6.47198328c1.39916448-1.76990796 2.81016222-3.11541945 5.420583-6.27639746m-5.0671053 6.69838685c1.93233532-2.12164513 3.79562193-4.3923538 5.78758735-6.49379099m-5.69982869 6.31624264c1.92073192-2.31860526 3.9501488-4.5590294 5.61002691-6.47572905m-5.2179774 6.78042475c1.47986105-2.00699419 3.70161707-3.7132137 5.59762991-6.49612618m-5.67915462 6.75872543c1.6326317-1.88411323 3.50791174-3.92821623 5.79477568-6.78338687m-5.68792745 7.52796192c2.47390834-2.88050897 4.92299251-5.85684235 6.34539641-7.48152765m-6.26742984 7.32957919c2.05003785-2.40092204 3.88913805-4.6075567 6.26503281-7.10564163m-5.85693384 7.51432647c2.27793953-2.75183654 4.70964595-5.90478456 6.28388618-7.42591176m-6.37699509 7.54932028c1.67180136-2.08996328 3.3046293-4.215789 6.39046336-7.69111534m-6.39226524 8.00980197c2.93787829-3.10570671 5.36907495-5.68355684 7.00048141-7.82890166m-6.7677631 7.90416867c1.61194147-1.8626973 3.23155922-3.77416831 6.9193924-7.70918865m-6.61850979 7.82862592c2.78752264-2.7804365 4.9873348-5.17222262 7.01136246-7.66377197m-6.92097015 7.8219805c1.65308385-1.7474197 3.3494987-3.70882961 6.69558954-7.48100979m-6.15915744 7.86069041c1.28737936-1.66526583 2.99561713-3.2765835 6.43168718-7.29639334m-6.33668707 6.9651795c1.75205385-1.6729865 3.36175482-3.78307997 6.37816082-7.10398835m-5.8103409 7.4912331c1.82457303-2.7280897 4.40185353-5.1294505 5.91978903-7.14819295m-5.94282302 7.10517567c2.35482162-2.65903444 4.74616735-5.40249421 6.16395177-7.15108304m-5.50921855 7.55473042c1.85823666-2.19258238 3.68554991-4.54658173 5.67587948-6.7484264m-5.89324279 6.64804997c2.34438123-2.70020423 4.80278554-5.26006463 6.00804619-6.772787m-5.47490643 6.79044508c1.9733747-2.28490567 3.93387178-4.1499727 5.80262268-6.19418418m-5.6780426 6.39206147c1.47929034-1.9605218 3.25408684-3.73595065 5.57707374-6.65044185m-5.1435966 6.84543447c1.6046973-2.05756638 3.65479036-3.8292173 5.66008951-6.15550726m-5.80755385 6.36372733c2.20424986-2.50509568 4.09543823-4.77712049 5.64049313-6.42200472m-4.6112411 6.3070175c1.03085312-1.4093198 2.12916733-2.52846945 4.625787-5.58550426m-4.52092984 5.38184666c1.0716223-1.46033254 2.35141023-2.92329614 4.35070085-5.24302356m-3.45800713 4.96807996c.54301147-.87025868 1.5697227-1.7288127 3.3917286-4.122919m-3.5843474 4.0921786c1.05685335-.96065996 1.7720165-1.81367706 3.83455207-4.05345024m-3.00117074 3.86862527c.7607667-.99052134 1.85823204-1.58359552 3.11268018-2.91694484m-2.84478988 3.03048708c.55890704-.77563 1.3107864-1.69135024 2.6896046-3.28008573"/>
    <path stroke="#000" d="M113.8214241 56.6322228c.96225115-.0551977 2.12268394.31373911 2.90627828.95437677.78359449.64063759 1.5161833 1.85262884 1.79528834 2.88944922.2791049 1.03682023.2698897 2.40660122-.12065879 3.33147299-.39054863.92487163-1.31393063 1.72959016-2.2226326 2.2177575-.90870197.48816718-2.1943214.79739887-3.2295791.71124606-1.03525783-.08615281-2.20949855-.55584916-2.98196762-1.22816295-.772469-.6723138-1.44720262-1.81942724-1.65284674-2.80571994-.2056441-.98629257-.02775872-2.16372571.41898211-3.11203602.44674082-.94831031 1.29513311-2.08036353 2.26146288-2.57782559.96632964-.49746207 2.81068546-.3769593 3.53651544-.40694682.72582984-.02998753.8276951.15492217.81846374.22702165m-2.05218899-.33017795c.98546107-.16296983 2.07400878.21812308 2.9082808.79497994.83427203.57685688 1.71391032 1.69568994 2.09735108 2.6661612.38344076.97047138.48109788 2.19262812.20329365 3.15666675-.2778041.96403863-1.0715342 1.99659494-1.8701189 2.6275649-.7985847.6309701-1.90453311 1.11967203-2.92138892 1.15825514-1.01685595.03858311-2.34123606-.32313872-3.17974636-.9267566-.83851032-.60361787-1.51253715-1.72515626-1.85131557-2.69495091-.33877843-.96979452-.5158694-2.13926426-.18135496-3.12381645.33451443-.98455219 1.4319961-2.17469704 2.18844158-2.7834963.75644549-.6087992 1.93985023-.72193295 2.35023133-.86929893.41038111-.14736599.07776396-.10994408.11205531-.01489695" stroke-width=".13576"/>
  </g>
  <g fill="none">
    <path stroke-width=".06788" stroke="#868e96" d="M132.47550639 57.36488262s0 0 0 0m0 0s0 0 0 0m-1.80631842 2.565222c.78391755-1.02436783 1.69247698-1.74430291 2.90600335-2.66278505m-2.77556272 2.83757227c.68886965-.82419098 1.14430967-1.20239376 2.63608215-3.06326342m-2.66984123 3.70282166c1.24128382-1.27180796 2.12036456-2.53173084 3.83193024-3.9046756m-3.8334092 4.19275881c.86927043-1.05585773 2.00832708-2.10453808 3.65405855-4.24681354m-3.91849123 5.2227241c2.17135851-2.24124165 3.6100381-4.30586133 4.55920394-5.66473754m-4.46995671 5.66353773c1.21900106-1.59144176 2.64388982-3.08581898 4.6310324-5.35018567m-5.04022603 6.26475933c1.14953952-1.36740771 2.35265272-2.74937408 5.5198268-6.20937914m-5.21068426 6.34829415c1.17887394-1.51861047 2.77618195-3.14959092 5.40627-6.1830751m-5.1222305 6.82069286c2.01578813-2.30289405 3.87992525-4.65198395 5.57191476-6.4261406m-5.74946307 6.21644365c1.49452554-1.73164265 3.06712625-3.24619852 5.58997667-6.38060112m-5.51229429 6.77029409c1.3074777-1.03518588 2.91173843-2.7448161 6.14413702-6.53994364m-5.88153768 6.74036973c1.81653902-1.85171634 3.47142284-3.91995512 5.85687626-6.5994769m-5.35270682 7.0296135c1.5492052-1.84113462 3.00327224-3.5449848 5.83574871-6.94813414m-5.9876972 7.09357966c1.81227745-2.37458852 3.8202636-4.42610933 6.21163473-7.045215m-5.94089978 7.31044341c1.60544084-1.81954072 2.816519-3.5392528 6.37685865-7.24201192m-6.25345014 7.35943133c2.4576578-3.03689716 4.8768108-5.89622832 6.11165509-7.17243147m-6.0333739 7.76547673c2.0180133-2.5745392 4.56822042-5.05798206 6.65088183-7.87174925m-6.57561495 7.73124889c2.43110231-2.78982668 4.81528072-5.3610521 6.77059495-7.48552157m-6.58419604 8.06434729c1.62119577-2.02239562 3.62427111-3.46781355 6.50864435-7.86673763m-6.35043581 7.70476297c1.7603778-1.79395197 3.31219277-3.8031215 6.69140652-7.66627027m-5.96418166 7.8144351c1.87375293-1.9040209 3.79876294-4.51578906 6.39052893-7.32015268m-6.72174278 7.45542348c1.87045042-1.90127757 3.30318786-3.64205477 6.58293393-7.29360086m-5.95060071 7.30693989c2.1889182-2.37940851 4.69987402-5.51746093 6.15569094-6.7076207m-6.19870836 7.00009911c1.92014563-2.12615492 3.7547393-4.40165981 6.15280098-7.19856938m-5.50406515 7.52786447c1.27537874-1.6066849 2.3953045-3.37788593 6.17241937-6.85136195m-6.2727958 6.68302879c1.3910116-1.48075894 2.92338507-3.26872926 6.14805879-6.84915851m-5.69379305 6.9236581c1.36101106-1.56989457 3.13446155-2.96813377 6.0496485-6.5790535m-5.85177135 6.5782911c1.23584465-1.39348303 2.65434573-3.05618757 5.59339083-6.48906167m-5.166702 6.61698295c1.91790798-1.94010788 4.12016888-4.001934 5.71867942-6.01780956m-5.51045935 6.23293767c1.41347405-1.91500214 3.05816171-3.6616133 5.45218196-6.4947638m-4.45354843 6.14780086c.85099747-1.14806238 1.9952405-2.12565983 4.27103523-5.29811437m-4.47469284 5.38604218c1.3323484-1.57274176 2.6615432-3.3569093 4.61351595-5.40069804m-3.78823119 5.09290603c1.44724927-1.4042932 2.90963429-3.32289204 3.72936571-4.2617994m-3.76010611 4.46999693c1.40177902-1.68886049 2.90670143-3.05582645 3.79883448-4.35865353m-2.7809753 3.83762558c.6618962-.55046022 1.7201674-1.4709456 2.8286293-3.06143315m-2.71508707 3.15236278c.5869352-.61848497 1.03704804-1.22953421 2.46548843-2.98573484"/>
    <path stroke="#000" d="M135.43036602 56.5746356c.94092631-.0561735 2.03837169.49071559 2.83648899 1.15288386.7981173.6621682 1.6363011 1.82585802 1.9522148 2.82012567.31591356.99426764.33433975 2.21190807-.05673276 3.14548012-.39107252.93357218-1.38411307 1.9155749-2.28970231 2.45595244-.90558938.54037768-2.13392093.86908114-3.14383368.78631325-1.00991262-.0827679-2.15264483-.60995981-2.91564268-1.28292048-.76299785-.6729608-1.45408652-1.76092667-1.6623445-2.7548438-.20825799-.99391712.02015606-2.28056244.41279661-3.20865894.39264057-.9280965 1.03533125-1.88197533 1.94304669-2.35991998.90771557-.47794466 2.82297062-.45511189 3.50324619-.50774795.68027556-.05263605.6045896.12492775.57840732.19193163m-3.79413192.1369919c.81108327-.5437351 2.1658101-.65127454 3.20600778-.4729334 1.04019756.17834114 2.3062096.81031994 3.03517796 1.5429803.72896836.73266022 1.2260187 1.82269554 1.3386321 2.85298161.1126134 1.03028607-.16722255 2.4171422-.66295158 3.32873481s-1.39087611 1.70927196-2.31142245 2.14082097c-.92054634.431549-2.19365905.67477177-3.21185585.4484732-1.01819694-.22629873-2.22045047-1.05147013-2.89732531-1.80626524-.67687482-.75479497-1.06465931-1.69677787-1.16392362-2.72250474-.09926432-1.025727.12284278-2.56118944.56833774-3.43185675.44549496-.87066744 1.76562397-1.51947174 2.10463193-1.79214765.3390081-.27267593-.11922508.10475436-.0705836.15609206" stroke-width=".13576"/>
  </g>
  <g>
    <path fill="none" stroke="#000" d="M156.19739948 67.23459383c-1.1225122 2.55642353-5.71828391 12.97591422-6.77801528 15.62220913m6.42475874-14.95054257c-1.01665603 2.43855038-4.6709489 11.88841463-5.69855136 14.33085956" stroke-width=".13576"/>
    <path fill="none" stroke="#000" d="M149.84315484 77.79065618c.54540076 2.00168154.86408169 3.40125481-.20774669 4.4579921m.8930828-3.95974387c-.09220098 1.27312778-.18695348 2.80210343-.60595544 3.82373483" stroke-width=".13576"/>
    <path fill="none" stroke="#000" d="M152.42802066 78.8296394c-.34288078 1.67279495-.91370808 2.71483186-2.7926125 3.41900888m3.47794861-2.92076078c-1.05945728.86000401-2.11133195 2.00426538-3.19082126 2.78475174" stroke-width=".13576"/>
  </g>
  <g>
    <path fill="none" stroke="#000" d="M151.38577258 66.09921269c-2.35331547 2.67064189-12.00853983 12.8515073-14.39098138 15.3369721m14.00154218-15.4708033c-2.40716036 2.59443757-12.02915592 12.37674547-14.39357598 14.94169207" stroke-width=".13576"/>
    <path fill="none" stroke="#000" d="M138.76949023 76.9458133c-.6303835 1.14407565-1.67275776 2.56917918-1.78655317 3.68547226m1.21655846-3.58184463c-.72650536 1.38789412-1.21432393 2.77326916-1.43592254 4.1074656" stroke-width=".13576"/>
    <path fill="none" stroke="#000" d="M140.78351396 78.87057977c-1.13523704.64625762-2.71448174 1.55828397-3.8005769 1.7607058m3.23058219-1.65707817c-1.39771777.76557529-2.54923376 1.51666659-3.44994627 2.18269912" stroke-width=".13576"/>
  </g>
  <g>
    <path fill="none" stroke="#000" d="M165.002232 65.12250927c2.97561621 2.5811114 15.05164762 13.04843462 18.04820282 15.64760904M164.5100829 64.79231342c2.90976363 2.63573307 15.19656622 13.77320492 18.22631492 16.49753M178.97567944 79.73110929c1.35224508.43030996 2.55745373 1.44596638 3.27688692 1.86060477m-3.20558559-1.72135119c1.07299126.52660247 2.58088779.642646 3.51732563 1.51706137" stroke-width=".13576"/>
    <path fill="none" stroke="#000" d="M180.84318464 77.6638789c.73712481 1.12723712 1.3087274 2.84426179 1.40938172 3.92783516m-1.33808038-3.78858226c.39924918 1.24797439 1.26982268 2.0695009 1.64982042 3.58429244" stroke-width=".13576"/>
  </g>
  <g fill="none">
    <path stroke-width=".06788" stroke="#e64980" d="M146.97662202 85.75988687s0 0 0 0m0 0s0 0 0 0m-.78373467 1.62860026c.8552503-.62991419 1.49046112-1.62340328 2.47697551-2.54543338m-2.63263485 2.76214018c.84820567-1.01909088 1.56749676-1.6525806 2.49124204-2.97842082m-2.7579208 4.42948386c.93307446-1.76228408 2.09915781-2.9805232 3.57674578-4.59054205m-3.5416217 4.48234287c1.2858233-1.72359685 2.51475802-3.14510164 3.64726068-4.42309412m-3.56817075 5.06682357c1.59611261-1.82649506 2.74665143-3.13086214 4.1540704-4.95555243m-4.04657492 4.76375264c.8918258-1.1906667 1.80494108-2.3602278 4.25383411-5.0407582m-4.28528043 5.79390062c1.89534967-2.12087676 3.36039699-4.37520466 5.0834614-5.45785774m-4.95007303 5.38013383c1.42497637-1.62653855 2.84834576-3.25827435 4.79186422-5.51066374m-4.79319762 6.09423655c2.46145017-2.2523304 4.58571118-4.66237003 5.42807733-6.1722916m-5.13105137 6.26524927c1.66593623-1.97820364 3.49641448-4.18557667 5.23329986-6.41129052m-4.97377106 6.7794815c1.81887197-1.8601884 3.3201252-3.88709082 5.96935743-6.78867895m-6.18168948 6.82374641c1.95681317-1.89435961 3.76534171-4.16115079 5.9914244-6.72704067m-5.62286603 7.56430311c1.95837473-2.31668174 3.968131-4.61878691 5.94457837-7.19071468m-6.0438105 7.14214488c2.4942923-2.96996226 4.9824183-5.81521723 6.15171767-7.27797497m-5.73564895 7.7482985c1.83924016-2.65038426 4.21208559-5.17375407 6.11388988-7.35862185m-6.16978382 7.30180858c2.03857316-2.3959986 4.14155454-4.98837034 6.4031376-7.22859198m-5.83605361 7.57151471c2.26100461-2.80779944 4.08563073-5.25236894 6.04953229-7.3332948m-6.25360599 7.16066852c2.14728997-2.2489991 4.19766038-4.75952784 6.46309251-7.17434108m-6.1829423 7.76934922c1.41584517-1.67690317 2.76384369-3.3083638 6.76619704-7.62100813m-6.61096275 7.5257957c2.40589475-2.77583684 4.70020106-5.55352904 6.48600459-7.51000248m-6.05715685 7.69045762c1.1832899-1.59769722 2.5865872-3.18663416 6.55930669-7.19038769m-6.61806886 7.42493123c1.45981205-1.67305085 2.85126228-3.4662886 6.56698066-7.3769449m-6.09915746 7.64870056c1.22661832-1.38975844 2.91935788-3.3890093 6.15507257-7.61677976m-6.08179288 7.66116912c2.18295543-2.54988904 4.27168876-5.14675494 6.32590675-7.31418867m-6.0603957 7.65067227c1.6940363-2.40854103 3.79519164-4.66183122 6.5427314-7.61618747m-6.48698502 7.60806388c2.30638213-2.52304564 4.74092503-5.33568054 6.4050755-7.45773036m-5.70297838 7.67290462c1.9389769-2.03013665 3.83283138-4.36261229 5.81844535-6.84130032m-5.96101598 6.78691245c2.34489167-2.66932686 4.47079749-5.07511586 5.9918605-6.85665301m-5.3465666 6.8350754c1.2646405-1.6294137 2.45634748-3.16272035 5.58224614-6.0300369m-5.5561779 6.19042716c1.587161-2.10035289 3.24773609-3.76862298 5.55027174-6.47252654m-4.77408378 6.3257179c1.94094848-1.9809577 3.6789818-3.92314997 4.89734378-5.63776349M151.142585 94.1127574c1.27379434-1.37839845 2.80104182-2.97615432 4.98867497-5.50378875m-4.15215009 5.85521016c1.03625672-1.97546858 2.58780248-3.75763862 4.17601599-5.43258584m-4.40537816 5.26736053c1.70945998-1.84562867 3.05958416-3.57111088 4.69482163-5.18944697m-4.02282984 5.49544266c1.47268992-1.9117265 3.0865587-3.42950791 4.18694889-5.10496815m-4.16343569 4.9265686c1.30432052-1.6410581 2.7871409-3.40716505 4.13592504-4.66726725m-2.62264989 3.78749824c.72106117-.58371467 1.22515666-1.40219606 2.0975676-2.25447655m-2.17908491 2.06325602c.62295348-.53695285 1.09890434-1.02768296 1.83788967-2.08288554"/>
    <path stroke="#000" d="M149.28795183 84.25069616c.91331751-.36647235 2.23710166-.33857281 3.20674521.01176956.9696437.35034238 2.00503782 1.22774716 2.61111667 2.09028464.60607898.8625376 1.0681232 2.03943071 1.02535707 3.08494064-.042766 1.0455098-.62434362 2.385344-1.28195336 3.18811838-.65760974.80277452-1.67654098 1.39388296-2.6637051 1.62852831-.98716425.23464536-2.31812672.17655897-3.25927988-.22065619-.94115316-.39721516-1.83419686-1.27322253-2.38763936-2.16263464-.55344252-.88941198-1.00306-2.15871676-.93301576-3.17383775.07004424-1.01512086.70741158-2.18912605 1.3532812-2.91688769.64586965-.7277616 2.01908904-1.17980009 2.52193652-1.44968196.50284763-.26988187.45624898-.22913585.49514868-.16960928m.91194258-.04738589c.98710765-.01201215 2.29265865.49411305 3.15150453 1.1426934.85884588.64858037 1.71084428 1.7813688 2.0015709 2.74878868.2907265.96741975.175297 2.11998132-.25721125 3.05573007-.43250811.93574861-1.4285817 2.02287429-2.33783797 2.55876173-.90925626.53588731-2.10662125.71441935-3.11769932.6565624-1.01107807-.05785682-2.19350714-.32470276-2.9487691-1.00370386-.75526188-.67900095-1.3906455-2.0760967-1.58280228-3.07030216-.19215679-.99420533-.00042812-1.9607219.4298616-2.89492996.4302897-.9342082 1.34419012-2.16300442 2.15187667-2.71031846.80768654-.54731403 2.24976408-.52968663 2.6942424-.57356578.44447833-.04387915-.04948737.22108918-.0273723.31029087" stroke-width=".13576"/>
  </g>
  <g fill="none">
    <path stroke-width=".06788" stroke="#e64980" d="M131.13934092 85.22958086s0 0 0 0m0 0s0 0 0 0m-1.45923148 2.62975535c.4202835-.8634359 1.53407195-1.73875446 2.80040939-3.01958522m-2.8932686 2.97664355c.8071251-.93589224 1.86341504-2.04423822 2.6491831-3.03253745m-2.74129074 3.67464517c1.58205395-1.07057196 2.8475641-2.73032233 3.95299528-3.98077642m-3.98879755 4.20439859c1.22328801-1.3511908 2.54200482-2.61960639 3.988737-4.40847224m-4.00066815 5.41195087c1.36398349-1.4553882 1.9225073-2.41339197 4.74760086-5.90256009m-4.68542954 5.69880814c1.86233212-1.96383287 3.50772625-3.78366113 4.80275853-5.54357376m-4.8744539 6.1944233c2.0325981-2.02813507 3.34197577-3.62776423 5.55261874-6.02405638m-5.42130325 6.07359208c1.50459554-1.38360004 2.61067182-2.78416188 5.43962178-6.13235418m-5.32601645 6.79696944c2.32897348-2.11932617 3.9798232-4.56908654 5.78167978-6.58762702m-5.679663 6.65683202c1.58779364-2.08203789 3.51280678-3.92502707 5.6874772-6.58355238m-5.50112205 6.94848347c2.02608973-1.90929282 4.05511128-4.16687383 6.45223-6.85238973m-6.45834635 7.01290841c1.81288043-1.95635697 3.5244248-3.71166486 6.11103303-6.95716208m-5.7789734 7.69163858c1.53273982-2.15932603 3.07062277-3.4783939 6.27372228-7.5152124m-6.13313137 7.30595543c1.8969897-2.39978455 4.13863412-4.98336898 6.44758339-7.44852606m-6.14447037 7.90520633c1.8320017-2.19582081 3.87986689-4.7149305 6.36963512-7.68312762m-6.44821768 7.42314615c1.95064045-1.7951648 3.75925466-3.93664947 6.66363902-7.39707792m-6.13290484 8.06237127c2.3470138-2.88723116 4.99618888-5.85857418 6.3743055-7.59355062m-6.48764247 7.63737184c1.91528139-2.38643682 3.92758903-4.77213202 6.44563792-7.59929519m-6.01373134 8.00814729c1.49124046-1.60621722 2.91717711-3.21797393 6.60933057-7.49238187m-6.66316524 7.19262168c2.39715538-2.63478979 4.9430148-5.4635448 6.42606203-7.42198385m-6.27266343 7.90524703c2.36996891-2.07260725 4.49038261-4.8506782 6.81507935-7.46495145m-6.67791436 7.77910562c2.49806302-3.04374153 4.94937113-5.78051875 6.77919342-7.75559242m-6.19532561 7.52787506c2.19833092-1.95675717 3.8546057-4.09943934 6.52854836-7.12353777m-6.35817372 7.22633349c2.07970982-2.41937389 4.00485532-4.98078094 6.1056619-7.30785068m-5.41076754 7.28442599c.93677356-1.39064683 2.32126674-2.926535 6.04145622-6.91366435m-6.11512336 7.16869348c2.27029692-2.75738473 4.79350098-5.59576479 6.0559318-7.03243642m-5.45309085 7.0399707c1.46056278-1.37951885 2.82152456-3.0239521 5.98516981-6.80780301m-6.16916477 6.8307569c2.26865387-2.53517265 4.5033904-5.12258985 5.89228381-6.78635003m-5.1881691 6.91869883c1.47305633-1.6801522 2.79380634-3.35893667 5.5105533-6.20803284m-5.59096788 6.30260492c2.01461128-2.34064539 3.90054824-4.51794322 5.42009732-6.18285962m-4.9710735 6.27494588c1.17032052-1.34171849 2.80696115-2.48301917 4.89240853-5.65193036m-4.54531065 5.50940372c.85872493-1.25143342 2.2029686-2.41761558 4.74143086-5.3471061m-4.23623644 5.65339258c.91302116-.8952155 1.98055261-2.29986494 4.37597033-4.9017679m-4.54179324 5.13024916c1.44237444-1.78810527 2.84199319-3.63184585 4.32331442-5.3131384m-3.1567801 4.55624954c.70493154-.7515811 1.92524812-2.0505063 3.19288894-3.48241945m-3.28907488 3.58522752c.68274033-.75949427 1.19854945-1.29069966 3.3349566-3.53887867"/>
    <path stroke="#000" d="M137.01177746 84.64029158c.87859134.39850922 1.77823097 1.28454316 2.18500493 2.22407458.40677409.93953143.45215161 2.3848584.25563907 3.41311385-.19651267 1.02825558-.68230374 2.09977892-1.43471485 2.7564191-.75241111.65664018-2.03704564 1.0860923-3.07975181 1.18342198-1.04270631.09732967-2.29230474-.08635876-3.1764858-.59944395-.88418119-.51308519-1.73403687-1.5304718-2.12860079-2.47906692-.39456391-.94859526-.49497241-2.22175345-.23878278-3.21250436.25618963-.9907509.9447473-2.05778332 1.77592054-2.73200116.83117328-.6742178 2.15400809-1.26120861 3.21111911-1.31330555 1.05711102-.05209694 2.54418.73195363 3.1315469 1.0007239.58736688.26877029.43012071.52279957.39265432.61189773m-1.2245862-1.15544229c.9640541.371531 1.98639836 1.59750173 2.48398126 2.51660024.4975829.9190985.6334031 1.99320336.50151627 2.99799108-.1318867 1.00478772-.55119588 2.31110683-1.29283672 3.03073523-.74164083.71962855-2.0814707 1.13793314-3.15700804 1.28703577-1.0755372.14910262-2.42058183.05771305-3.2962156-.39241989-.87563379-.45013293-1.55418549-1.36625718-1.95758738-2.30837774-.40340188-.94212068-.6495119-2.3416816-.46282394-3.3443461.18668796-1.00266438.86841345-2.00740065 1.58295175-2.67164081.71453827-.66424012 1.7709898-1.15067379 2.70427798-1.31379994.93328832-.16312614 2.42720207.2629283 2.89545154.33504306.46824946.07211476-.04686853.03647225-.08595462.09764556" stroke-width=".13576"/>
  </g>
  <g fill="none">
    <path stroke-width=".06788" stroke="#e64980" d="M181.14882468 86.86499124s0 0 0 0m0 0s0 0 0 0m-.15929097 1.22029756c.74427754-.89696281 1.54948303-2.16623043 2.49349329-3.10011865m-2.80469664 3.12780226c1.08739992-1.19098097 2.02716322-2.41999874 2.54471516-2.94105878m-2.74186002 4.18042845c1.5942918-1.68533248 2.61611285-3.2825368 3.71452074-4.24645982m-3.8410924 4.3035351c1.0748107-1.18088323 2.21252635-2.46856464 3.88491349-4.34824418m-3.94749926 5.1536214c1.40156313-1.98007625 3.29550516-3.42811114 4.67711083-5.0180825m-4.48906993 5.07757611c1.72019448-2.17027427 3.2686787-4.0669553 4.18930974-5.20343978m-4.33737177 5.6678661c1.72032763-1.32693596 2.90484855-3.34301855 5.02554652-5.43234516m-4.78710685 5.55887958c1.75506986-1.97489053 3.3892293-3.90039225 5.10126089-5.69250485m-4.64026041 6.34224595c.9912061-1.7154871 2.33686733-3.06486598 5.30785997-6.47915013m-5.48029322 6.3751447c1.89903668-2.10974212 3.8125952-4.30556321 5.58308907-6.44354876m-5.6590568 6.83694065c1.8684856-1.67297374 3.5628105-3.6553285 5.98317622-6.92941777m-5.69133538 7.06368629c1.8243146-1.79593888 3.23113123-3.69269946 5.9463645-6.82871226m-5.77222434 7.65959475c1.77801713-2.23910771 4.11196069-4.7191271 6.12730273-7.1823181m-6.12727795 7.02114195c2.35651886-2.75349954 4.46963667-5.49117492 6.15023185-7.3180923m-6.22781035 7.88107553c1.93879786-1.84929175 3.895583-3.96946272 6.72109564-7.3852106m-6.41585406 7.37789068c1.88890647-2.23035245 3.81151348-4.37600847 6.51042614-7.46392643m-6.20995594 7.9561694c1.68233935-2.39517797 3.83105-4.45176176 6.64958645-7.9510381m-6.69178609 7.8033909c2.02115658-2.33727254 4.1126729-4.72455662 6.54925931-7.63978286m-5.8804017 8.07970118c1.07794442-1.78734856 2.81400223-3.14271316 6.32932099-7.68849597m-6.35814996 7.57629839c2.47754674-2.81883973 4.92863846-5.75085543 6.58663121-7.577996m-6.4126076 7.65176495c2.16856769-2.04804194 3.89724313-4.0638032 6.5289339-7.53657791m-6.32204085 7.7790391c2.11175049-2.57822631 4.62478974-5.2595007 6.42484893-7.52486387m-5.8088229 7.93703817c1.24351008-1.809544 2.64938972-3.27622566 6.11232273-7.16814m-6.48744848 7.0401754c1.90012581-1.91687311 3.5320066-3.88487597 6.48568-7.42355902m-6.15864185 7.76983844c2.39076457-2.32330009 4.27565512-4.57624912 6.19172674-7.06464189m-5.99264802 7.22787296c1.95505521-2.26346246 3.72799323-4.5482074 6.12595933-7.22405484m-5.83305491 7.50439104c1.62941927-2.27824728 3.254892-4.02235796 5.97464797-6.98442537m-5.86609108 6.98432532c2.07655827-2.16692465 3.83660904-4.474914 6.13651321-6.84470914m-5.39841408 6.78439814c2.06414236-2.33663681 3.52279086-4.12647214 5.38557137-6.43913756m-5.28884486 6.36392254c1.13370545-1.23576986 2.43060423-2.6800393 5.52640705-6.24142237m-4.50658214 6.22388171c1.2281453-1.53953889 2.83588474-3.58670195 4.69675098-5.47751795m-4.77622423 5.39829001c1.67675982-1.99875887 3.38009547-3.9865638 4.54761116-5.51264922m-3.65149994 5.30995086c.6388849-1.18857145 2.28084876-2.73248383 3.36606518-3.93235336m-3.54355204 4.24686294c1.11570649-1.46711568 2.5078644-3.09581043 3.66861106-4.55361846m-2.9728689 3.97607495c.9069233-.65854917 2.00201265-1.93520495 2.5523929-2.48089053m-2.31425756 2.58157145c.79495733-.79681269 1.30351807-1.72620823 2.42439411-2.8949495"/>
    <path stroke="#000" d="M183.11192244 85.0355895c.88333748-.467109 2.37074856-.43382641 3.39311888-.19842854 1.02237019.23539787 2.09589944.8401784 2.74110279 1.61081577.64520335.77063732 1.07551372 1.98412976 1.1301173 3.01300845.05460359 1.0288787-.27807167 2.279733-.80249594 3.16026373-.52442415.88053073-1.38212398 1.73033885-2.34404931 2.12292055-.96192547.39258157-2.424806.51904878-3.42750322.23256939-1.00269723-.2864794-1.98800557-1.12861653-2.58868007-1.95144562-.60067448-.82282922-1.00135826-1.96252093-1.0153668-2.9855293-.01400853-1.02300837.361126-2.32550977.93131559-3.1525212.5701896-.82701132 1.96429358-1.46618117 2.48982195-1.80954704.52552837-.34336588.61459056-.30349999.66334839-.25064816m1.3039332-.00763537c.95643132-.05558827 2.0195662.18246934 2.7731083.81395836.75354208.63148904 1.4433277 1.98383064 1.74814423 2.97497578.30481652.99114514.39861955 2.01951054.08075478 2.97189486-.3178649.95238433-1.13095885 2.1712813-1.98794394 2.7424112-.85698509.57112976-2.09889922.79207497-3.15396658.6843679-1.05506737-.10770707-2.37699316-.69230645-3.17643747-1.33061045-.79944433-.638304-1.40594882-1.54993829-1.6202284-2.49921354-.21427956-.94927526-.11085274-2.23594163.33455096-3.19643827.4454037-.96049665 1.53937237-1.99413692 2.33787128-2.56654144.79849877-.57240455 2.04835689-.75087966 2.4531218-.86788585.40476492-.11700618-.02710895.04227812-.02453258.16584873" stroke-width=".13576"/>
  </g>
  <g>
    <path fill="none" stroke="#000" d="M149.92289773 64.74393398c-.97170849.47854753-5.01791354 2.47163082-6.03821292 2.942428m5.86838715-3.08836792c-.98109124.42709029-5.07035293 2.33142544-6.00559273 2.85523013" stroke-width=".13576"/>
  </g>
  <g>
    <path fill="none" stroke="#000" d="M153.36119823 67.50500317c-.64182266.95154368-3.3169954 4.58731623-3.97630752 5.5380385m3.7724571-5.65094961c-.57623735.97738053-2.80194145 4.785512-3.450519 5.78736293" stroke-width=".13576"/>
  </g>
  <g>
    <path fill="none" stroke="#000" d="M157.35997083 68.62620585c-.02339335 1.22666641-.17125637 6.19518137-.14798529 7.4570184m.37394702-7.5904582c.03670756 1.1643188-.06954149 6.07438689-.09015008 7.3180638" stroke-width=".13576"/>
  </g>
  <g>
    <path fill="none" stroke="#000" d="M162.65067844 66.50097022c.6073805.73327278 2.86973814 3.71295492 3.46922458 4.4240302m-3.64244858-4.56777259c.59990183.68187507 2.90553854 3.55608879 3.53054369 4.31264627" stroke-width=".13576"/>
  </g>
  <g>
    <path fill="none" stroke="#000" d="M166.19678707 62.27114c1.35801363.7142084 6.91644578 3.64829032 8.2748756 4.36151m-8.04849546-4.48187838c1.34549354.66028413 6.66709545 3.57769705 7.96755496 4.26219637" stroke-width=".13576"/>
  </g>
</svg>