<svg
  xmlns="http://www.w3.org/2000/svg"
  id="svg8"
  version="1.1"
  viewBox="0 0 190.5 95.250003"
  height="360"
  width="720">
  <g id="layer1">
    <g
      transform="matrix(1.4114063,0,0,1.4114063,-78.438748,-4.6237468)"
      id="g1136">
      <g
        id="g1011"
        transform="translate(33.987476,-1.2186729)">
        <circle
          style="fill:#17bf63;fill-opacity:1;stroke:none;stroke-width:1.63131;stroke-linejoin:round;stroke-miterlimit:5"
          id="circle857"
          cx="149.81506"
          cy="19.072138"
          r="6.6145835" />
        <g
          transform="matrix(0.22048611,0,0,0.22048611,145.77378,27.819152)"
          id="g887">
          <path
            fill="#3e721d"
            d="m 35,5.904 c 2.394,6.042 -1.438,20.543 -10.5,26.5 C 15.44,38.361 4.105,35.977 1.403,25.961 -0.266,19.775 4.193,15.24 13.254,9.284 22.315,3.327 32.64,-0.053 35,5.904 Z"
            id="path861" />
          <path
            fill="#3e721d"
            d="M 20.605,26.03 C 14.082,30.576 5.318,31.18 2.136,26.612 -1.047,22.046 2.554,14.034 9.079,9.488 15.601,4.943 31.03,-0.308 34.213,4.258 37.396,8.828 27.128,21.484 20.605,26.03"
            id="path863" />
          <path
            fill="#a6d388"
            d="M 19.815,26.578 C 14.058,30.591 6.333,29.675 3.525,25.644 0.718,21.613 4,14.474 9.757,10.463 15.512,6.452 30.015,1.199 32.825,5.229 35.632,9.259 28,21.404 19.815,26.578"
            id="path865" />
          <path
            fill="#c6e5b3"
            d="M 18.169,23.926 C 13.663,27.066 8.23,27.053 6.033,23.899 3.833,20.745 5.703,15.644 10.209,12.504 14.716,9.363 26.044,5.266 28.244,8.42 30.443,11.574 22.677,20.786 18.169,23.926 Z"
            id="path867" />
          <path
            fill="#662113"
            d="m 11.162,12.488 c 3.48,-2.332 7.382,-1.495 9.798,0.995 1.433,1.477 -0.88,5.382 -4.359,7.714 -3.478,2.33 -7.769,1.763 -8.239,0.731 -1.44,-3.157 -0.677,-7.109 2.8,-9.44 z"
            id="path869" />
          <path
            fill="#7c3225"
            d="m 13.071,13.106 c 1.51,-1.013 3.414,-0.819 4.254,0.431 0.837,1.251 0.294,3.087 -1.217,4.1 -1.51,1.01 -3.414,0.817 -4.253,-0.433 -0.839,-1.252 -0.294,-3.086 1.216,-4.098 z"
            id="path871" />
        </g>
      </g>
      <g
        id="g1017"
        transform="translate(33.987478,-1.2186729)">
        <circle
          r="6.6145835"
          cy="19.072138"
          cx="131.15579"
          id="circle855"
          style="fill:#f45e22;fill-opacity:1;stroke:none;stroke-width:1.63131;stroke-linejoin:round;stroke-miterlimit:5" />
        <g
          transform="matrix(0.22048611,0,0,0.22048611,127.18704,28.360949)"
          id="g903">
          <path
            fill="#f4900c"
            d="M 35,19 C 35,16.938 34.633,14.961 33.96,13.132 33.5,18.521 30.627,21.289 27.625,20 24.813,18.792 26.708,14.083 26.848,11.836 27.084,8.027 26.836,3.667 19.917,0.042 c 2.875,5.5 0.333,8.917 -2.333,9.125 -2.958,0.231 -5.667,-2.542 -4.667,-7.042 -3.238,2.386 -3.332,6.402 -2.333,9 1.042,2.708 -0.042,4.958 -2.583,5.208 C 5.161,16.613 3.583,13.292 5.038,8 2.52,10.965 1,14.805 1,19 c 0,9.389 7.611,17 17,17 9.389,0 17,-7.611 17,-17 z"
            id="path889" />
          <path
            fill="#ffcc4d"
            d="m 28.394,23.999 c 0.148,3.084 -2.561,4.293 -4.019,3.709 -2.106,-0.843 -1.541,-2.291 -2.083,-5.291 -0.542,-3 -2.625,-5.083 -5.708,-6 2.25,6.333 -1.247,8.667 -3.08,9.084 C 11.632,25.927 9.751,25.5 9.536,21.494 7.352,23.668 6,26.676 6,30 6,30.368 6.023,30.73 6.055,31.09 9.125,34.124 13.342,36 18,36 22.658,36 26.875,34.124 29.945,31.09 29.977,30.73 30,30.368 30,30 30,27.813 29.416,25.764 28.394,23.999 Z"
            id="path891" />
        </g>
      </g>
      <g
        id="g1027"
        transform="translate(33.056915,-0.54163281)">
        <circle
          style="fill:#794bc3;fill-opacity:1;stroke:none;stroke-width:1.63131;stroke-linejoin:round;stroke-miterlimit:5"
          id="circle853"
          cx="113.4271"
          cy="18.395098"
          r="6.6145835" />
        <g
          transform="matrix(0.22048611,0,0,0.22048611,109.45828,28.370209)"
          id="g931">
          <path
            fill="#553788"
            d="m 10,12 c 3,5 0,10.692 -3,9.692 -3,-1 -4,2 -1,3 3,1 9.465,-0.465 13,-4 1,-1 2,-1 2,-1 z"
            id="path905" />
          <path
            fill="#553788"
            d="m 26,12 c -3,5 0,10.692 3,9.692 3,-1 4,2 1,3 -3,1 -9.465,-0.465 -13,-4 -1,-1 -2,-1 -2,-1 z"
            id="path907" />
          <path
            fill="#744eaa"
            d="m 30.188,16 c -3,5 0,10.692 3,9.692 3,-1 4,2 1,3 -3,1 -9.465,-0.465 -13,-4 -1,-1 -2,-1 -2,-1 z M 5.812,16 c 3,5 0,10.692 -3,9.692 -3,-1 -4,2 -1,3 3,1 9.465,-0.465 13,-4 1,-1 2,-1 2,-1 z"
            id="path909" />
          <path
            fill="#9266cc"
            d="M 33.188,31.375 C 30.459,32.285 26.763,25.749 28.376,20.797 30.022,17.554 31,13.94 31,11 31,3.82 25.18,0 18,0 10.82,0 5,3.82 5,11 c 0,2.94 0.978,6.554 2.624,9.797 1.613,4.952 -2.083,11.488 -4.812,10.578 -3,-1 -4,3 -1,4 3,1 8.31,-0.627 12,-4 2.189,-2 4.189,-2 4.189,-2 0,0 2,0 4.188,2 3.69,3.373 9,5 12,4 3,-1 1.999,-5 -1.001,-4 z"
            id="path911" />
          <circle
            fill="#292f33"
            cx="14"
            cy="21"
            r="2"
            id="circle913" />
          <circle
            fill="#292f33"
            cx="22"
            cy="21"
            r="2"
            id="circle915" />
        </g>
      </g>
      <g
        id="g1040"
        transform="translate(33.987475,-1.2186729)">
        <circle
          r="6.6145835"
          cy="19.072138"
          cx="93.837288"
          id="circle851"
          style="fill:#e0255e;fill-opacity:1;stroke:none;stroke-width:1.63131;stroke-linejoin:round;stroke-miterlimit:5" />
        <g
          transform="matrix(0.22048611,0,0,0.22048611,89.868461,28.189851)"
          id="g968">
          <path
            fill="#f4abba"
            d="m 31.298,20.807 c 4.197,-1.363 5.027,-3.182 4.191,-6.416 C 34.537,14.699 33.384,14.39 33.217,13.873 33.049,13.36 33.798,12.43 34.75,12.12 33.527,9.013 31.786,8.031 27.589,9.393 25.983,9.915 24.351,10.885 22.934,12.028 23.582,10.327 24,8.475 24,6.786 24,2.374 22.527,1.021 19.193,0.818 c 0,1 -0.652,2 -1.193,2 -0.541,0 -1.194,-1 -1.194,-2 C 13.472,1.021 12,2.374 12,6.786 c 0,1.689 0.417,3.541 1.066,5.241 C 11.65,10.885 10.017,9.916 8.411,9.394 4.214,8.03 2.473,9.013 1.249,12.121 c 0.951,0.31 1.701,1.238 1.534,1.753 -0.167,0.515 -1.32,0.826 -2.271,0.518 -0.837,3.233 -0.005,5.052 4.19,6.415 1.606,0.521 3.497,0.697 5.314,0.605 -1.524,0.994 -2.95,2.247 -3.943,3.613 -2.594,3.57 -2.197,5.53 0.381,7.654 0.588,-0.809 1.703,-1.235 2.142,-0.917 0.438,0.317 0.378,1.511 -0.21,2.32 2.816,1.795 4.803,1.565 7.396,-2.003 0.993,-1.366 1.743,-3.111 2.218,-4.867 0.475,1.757 1.226,3.501 2.218,4.867 2.594,3.57 4.58,3.798 7.397,2.003 -0.587,-0.81 -0.649,-2.002 -0.21,-2.321 0.437,-0.317 1.553,0.107 2.142,0.917 2.577,-2.123 2.973,-4.083 0.381,-7.653 -0.993,-1.366 -2.42,-2.619 -3.943,-3.613 1.816,0.092 3.706,-0.084 5.313,-0.605 z M 18,20.337 c -0.162,-0.292 -0.353,-0.538 -0.588,-0.709 -0.234,-0.171 -0.528,-0.276 -0.856,-0.341 0.228,-0.244 0.403,-0.502 0.493,-0.778 0.09,-0.275 0.1,-0.587 0.059,-0.919 0.302,0.141 0.602,0.228 0.892,0.228 0.29,0 0.59,-0.087 0.894,-0.229 -0.041,0.332 -0.031,0.644 0.059,0.919 0.09,0.276 0.265,0.534 0.492,0.778 -0.327,0.065 -0.621,0.17 -0.855,0.341 -0.236,0.172 -0.428,0.418 -0.59,0.71 z"
            id="path933" />
          <g
            fill="#ffffff"
            id="g945">
            <path
              d="m 16.795,18.685 c -0.12,0.54 -0.653,0.88 -1.193,0.76 L 9.744,18.143 C 9.205,18.023 8.865,17.49 8.985,16.95 c 0.12,-0.539 0.654,-0.879 1.193,-0.759 l 5.857,1.302 c 0.54,0.12 0.88,0.653 0.76,1.192 z m 0.976,0.218 c 0.12,-0.54 0.654,-0.88 1.193,-0.76 l 5.857,1.302 c 0.54,0.12 0.879,0.653 0.76,1.193 -0.12,0.538 -0.654,0.879 -1.193,0.759 l -5.857,-1.302 c -0.54,-0.118 -0.88,-0.654 -0.76,-1.192 z"
              id="path935" />
            <path
              d="m 17.771,18.903 c -0.466,0.296 -1.083,0.159 -1.38,-0.308 L 13.17,13.534 c -0.296,-0.466 -0.16,-1.084 0.307,-1.38 0.466,-0.297 1.084,-0.159 1.38,0.307 l 3.222,5.062 c 0.295,0.466 0.158,1.083 -0.308,1.38 z m 0.797,1.252 c 0.466,-0.296 1.084,-0.159 1.38,0.307 l 3.223,5.062 c 0.296,0.467 0.159,1.083 -0.308,1.381 -0.466,0.296 -1.084,0.159 -1.381,-0.307 l -3.221,-5.062 c -0.296,-0.466 -0.157,-1.084 0.307,-1.381 z"
              id="path937" />
            <path
              d="m 17.988,17.927 c -0.539,-0.12 -0.879,-0.654 -0.759,-1.193 l 1.302,-5.857 c 0.119,-0.539 0.652,-0.879 1.192,-0.759 0.54,0.12 0.879,0.654 0.759,1.193 l -1.301,5.857 c -0.119,0.538 -0.654,0.879 -1.193,0.759 z m -0.217,0.976 c 0.539,0.119 0.879,0.653 0.759,1.192 l -1.3,5.857 c -0.121,0.54 -0.654,0.88 -1.194,0.76 -0.538,-0.12 -0.878,-0.654 -0.76,-1.193 l 1.303,-5.857 c 0.119,-0.539 0.653,-0.879 1.192,-0.759 z"
              id="path939" />
            <path
              d="m 17.771,18.902 c -0.297,-0.466 -0.159,-1.083 0.307,-1.38 l 5.062,-3.221 c 0.466,-0.296 1.084,-0.16 1.38,0.307 0.297,0.466 0.159,1.083 -0.307,1.38 l -5.062,3.221 c -0.466,0.297 -1.084,0.16 -1.38,-0.307 z"
              id="path941" />
            <path
              d="m 17.771,18.902 c 0.296,0.467 0.159,1.084 -0.307,1.381 l -5.062,3.222 c -0.466,0.296 -1.083,0.16 -1.381,-0.308 -0.296,-0.465 -0.159,-1.083 0.307,-1.38 l 5.062,-3.222 c 0.467,-0.296 1.085,-0.158 1.381,0.307 z"
              id="path943" />
          </g>
          <path
            d="m 22.012,25.566 c 0.932,-0.592 2.168,-0.317 2.762,0.614 0.593,0.932 0.318,2.168 -0.614,2.762 -0.932,0.593 -2.168,0.318 -2.762,-0.614 -0.592,-0.932 -0.318,-2.168 0.614,-2.762 z M 14.55,13.841 c -0.932,0.593 -2.168,0.319 -2.761,-0.613 -0.593,-0.932 -0.318,-2.168 0.614,-2.761 0.932,-0.593 2.168,-0.318 2.761,0.613 0.593,0.932 0.318,2.168 -0.614,2.761 z m 1.92,10.918 c 1.078,0.241 1.758,1.31 1.52,2.388 -0.24,1.078 -1.308,1.758 -2.387,1.519 -1.079,-0.24 -1.758,-1.309 -1.519,-2.387 0.239,-1.079 1.308,-1.758 2.386,-1.52 z M 19.507,11.094 C 18.429,10.855 17.749,9.786 17.989,8.708 18.228,7.63 19.297,6.95 20.375,7.189 c 1.078,0.24 1.759,1.308 1.519,2.386 -0.241,1.079 -1.309,1.758 -2.387,1.519 z m -6.013,10.53 c 0.592,0.933 0.317,2.169 -0.614,2.763 -0.932,0.593 -2.168,0.318 -2.762,-0.615 -0.593,-0.931 -0.318,-2.167 0.613,-2.761 0.933,-0.592 2.169,-0.318 2.763,0.613 z m 9.339,-5.943 c -0.593,-0.932 -0.317,-2.168 0.614,-2.761 0.932,-0.593 2.168,-0.318 2.761,0.614 0.593,0.932 0.317,2.168 -0.613,2.761 -0.933,0.593 -2.169,0.318 -2.762,-0.614 z m 0.795,4.524 c 0.24,-1.079 1.309,-1.759 2.387,-1.52 1.078,0.24 1.758,1.309 1.519,2.387 -0.24,1.078 -1.309,1.758 -2.387,1.518 -1.079,-0.238 -1.758,-1.307 -1.519,-2.385 z m -12.69,-2.821 c -0.24,1.079 -1.308,1.758 -2.386,1.519 -1.078,-0.24 -1.758,-1.309 -1.519,-2.387 0.239,-1.078 1.308,-1.758 2.386,-1.519 1.079,0.241 1.758,1.309 1.519,2.387 z"
            fill="#ea596e"
            id="path947" />
          <circle
            fill="#ffcc4d"
            cx="18"
            cy="18.818001"
            r="4"
            id="circle949" />
        </g>
      </g>
      <g
        id="g1044"
        transform="translate(33.98747,-1.2186729)">
        <circle
          style="fill:#ffad1f;fill-opacity:1;stroke:none;stroke-width:1.63131;stroke-linejoin:round;stroke-miterlimit:5"
          id="circle849"
          cx="75.17804"
          cy="19.072138"
          r="6.6145835" />
        <path
          style="stroke-width:0.220486"
          fill="#ffad1f"
          d="m 77.225751,35.542431 c -0.0891,0 -0.17771,-0.02734 -0.254,-0.0818 l -1.79365,-1.286316 -1.79366,1.286316 c -0.15279,0.109361 -0.35785,0.109361 -0.50976,-0.0018 -0.15192,-0.110023 -0.21586,-0.305373 -0.15897,-0.483747 l 0.66895,-2.159 -1.77756,-1.252581 c -0.15103,-0.111346 -0.21387,-0.307137 -0.1561,-0.485731 0.0582,-0.178153 0.22401,-0.2992 0.41143,-0.300523 l 2.20155,-0.0033 0.70093,-2.105422 c 0.0591,-0.178373 0.22555,-0.298318 0.41319,-0.298318 0.18763,0 0.3541,0.120165 0.41341,0.298318 l 0.68902,2.105422 2.2128,0.0033 c 0.18807,0.0013 0.3541,0.12259 0.41164,0.300522 0.058,0.178594 -0.005,0.374386 -0.1561,0.485731 l -1.77756,1.252582 0.66896,2.159 c 0.0573,0.178373 -0.007,0.373724 -0.15875,0.483747 -0.0765,0.056 -0.16603,0.08356 -0.25577,0.08356 z"
          id="path970" />
      </g>
      <g
        id="g1048"
        transform="translate(33.987459,-1.2186729)">
        <circle
          r="6.6145835"
          cy="19.072138"
          cx="56.518791"
          id="path833"
          style="fill:#1da1f2;fill-opacity:1;stroke:none;stroke-width:1.63131;stroke-linejoin:round;stroke-miterlimit:5" />
        <path
          style="stroke-width:0.220486"
          fill="#1da1f2"
          d="m 60.462156,30.545966 c 0,-1.201649 -0.97411,-2.175757 -2.17554,-2.175757 -0.72937,0 -1.37296,0.360054 -1.76786,0.910387 -0.39489,-0.550333 -1.03848,-0.910387 -1.76763,-0.910387 -1.20165,0 -2.17576,0.973887 -2.17576,2.175757 0,0.170215 0.0216,0.335139 0.0587,0.494109 0.30207,1.876999 2.38897,3.857185 3.88474,4.400903 1.49556,-0.543718 3.58268,-2.523904 3.88431,-4.400682 0.0375,-0.158971 0.0591,-0.323894 0.0591,-0.49433 z"
          id="path981" />
      </g>
      <rect
        style="fill:#ffffff;fill-opacity:1;stroke:#000000;stroke-width:0.264783;stroke-linejoin:round;stroke-miterlimit:4.2;stroke-dasharray:none;stroke-opacity:1"
        id="rect1068"
        width="27.258095"
        height="14.217669"
        x="84.341774"
        y="44.62056" />
      <rect
        y="44.297791"
        x="163.26956"
        height="14.217669"
        width="27.258095"
        id="rect1070"
        style="fill:#1a1a1a;fill-opacity:1;stroke:#ffffff;stroke-width:0.264783;stroke-linejoin:round;stroke-miterlimit:4.2;stroke-dasharray:none;stroke-opacity:1" />
      <rect
        style="fill:#15202b;fill-opacity:1;stroke:#ffffff;stroke-width:0.264783;stroke-linejoin:round;stroke-miterlimit:4.2;stroke-dasharray:none;stroke-opacity:1"
        id="rect1072"
        width="27.258095"
        height="14.217669"
        x="123.80576"
        y="44.297791" />
      <text
        xml:space="preserve"
        style="font-style:normal;font-variant:normal;font-weight:bold;font-stretch:normal;font-size:5.64444px;line-height:1.25;font-family:Roboto;-inkscape-font-specification:'Roboto, Bold';font-variant-ligatures:normal;font-variant-caps:normal;font-variant-numeric:normal;font-variant-east-asian:normal;stroke-width:0.19794"
        x="91.423767"
        y="53.259018"
        id="text1076"><tspan
           id="tspan1074"
           x="91.423767"
           y="53.259018"
           style="font-style:normal;font-variant:normal;font-weight:bold;font-stretch:normal;font-size:5.64444px;font-family:Roboto;-inkscape-font-specification:'Roboto, Bold';font-variant-ligatures:normal;font-variant-caps:normal;font-variant-numeric:normal;font-variant-east-asian:normal;stroke-width:0.19794">Light</tspan></text>
      <text
        id="text1080"
        y="53.488838"
        x="132.38017"
        style="font-style:normal;font-variant:normal;font-weight:bold;font-stretch:normal;font-size:5.64444px;line-height:1.25;font-family:Roboto;-inkscape-font-specification:'Roboto, Bold';font-variant-ligatures:normal;font-variant-caps:normal;font-variant-numeric:normal;font-variant-east-asian:normal;fill:#ffffff;stroke-width:0.198;stroke-miterlimit:4.2;stroke-dasharray:none"
        xml:space="preserve"><tspan
           style="font-style:normal;font-variant:normal;font-weight:bold;font-stretch:normal;font-size:5.64444px;font-family:Roboto;-inkscape-font-specification:'Roboto, Bold';font-variant-ligatures:normal;font-variant-caps:normal;font-variant-numeric:normal;font-variant-east-asian:normal;fill:#ffffff;stroke-width:0.198;stroke-miterlimit:4.2;stroke-dasharray:none"
           y="53.488838"
           x="132.38017"
           id="tspan1078"
           >Dim</tspan></text>
      <text
        xml:space="preserve"
        style="font-style:normal;font-variant:normal;font-weight:bold;font-stretch:normal;font-size:5.64444px;line-height:1.25;font-family:Roboto;-inkscape-font-specification:'Roboto, Bold';font-variant-ligatures:normal;font-variant-caps:normal;font-variant-numeric:normal;font-variant-east-asian:normal;opacity:1;fill:#ffffff;stroke-width:0.198;stroke-miterlimit:4.2;stroke-dasharray:none"
        x="170.80217"
        y="53.495728"
        id="text1084"><tspan
           id="tspan1082"
           x="170.80217"
           y="53.495728"
           style="font-style:normal;font-variant:normal;font-weight:bold;font-stretch:normal;font-size:5.64444px;font-family:Roboto;-inkscape-font-specification:'Roboto, Bold';font-variant-ligatures:normal;font-variant-caps:normal;font-variant-numeric:normal;font-variant-east-asian:normal;fill:#ffffff;stroke-width:0.198;stroke-miterlimit:4.2;stroke-dasharray:none">Dark</tspan></text>
    </g>
    <rect
      y="51.209515"
      x="40.910706"
      height="0.40910706"
      width="148.3013"
      id="rect1138"
      style="opacity:1;fill:#ffffff;fill-opacity:1;stroke:#ffffff;stroke-width:0.198;stroke-linejoin:round;stroke-miterlimit:4.2;stroke-dasharray:none;stroke-opacity:1" />
  </g>
</svg>
