<svg
   xmlns="http://www.w3.org/2000/svg"
   id="svg8"
   version="1.1"
   viewBox="0 0 190.5 95.250003"
   height="360"
   width="720">
  <g id="layer1">
    <ellipse
       ry="47.3745"
       rx="47.374496"
       cy="47.625"
       cx="142.875"
       id="path1021"
       style="fill:#ffffff;stroke:#ffffff;stroke-width:0.501003;stroke-linejoin:round;stroke-miterlimit:4.2" />
    <g
       transform="matrix(0.08828641,0,0,0.08828641,102.65835,22.380903)"
       id="g1227">
      <rect
         x="718"
         y="399.5"
         width="241"
         height="2"
         fill="#3f3d56"
         id="rect1043" />
      <polygon
         points="771.744,381.531 778.744,418.531 793.744,422.531 789.744,378.531 "
         fill="#a0616a"
         id="polygon1045" />
      <polygon
         points="855.744,381.531 862.744,418.531 877.744,422.531 873.744,378.531 "
         fill="#a0616a"
         id="polygon1047" />
      <path
         d="m 908.24409,584.2815 c 0,0 -16,-1 -16,4 0,5 -8,22 -8,22 0,0 -6,20 10,18 16,-2 26,-20 26,-20 l -4,-19 z"
         transform="translate(-120.5,-172.75)"
         fill="#2f2e41"
         id="path1049" />
      <path
         d="m 988.383,586.12508 c 0,0 -10.67275,-6.861 -9.91041,-2.287 0.76234,4.574 1.52468,16.77146 6.86106,17.5338 5.33638,0.76234 21.34545,5.33638 22.10785,6.86106 0.7623,1.52468 19.0585,7.62339 19.0585,-2.287 0,-9.91039 -11.4351,-17.5338 -11.4351,-17.5338 l -12.9598,-9.91041 c 0,0 -8.38572,-0.76234 -9.9104,4.574 -1.52468,5.33634 -3.8117,3.04935 -3.8117,3.04935 z"
         transform="translate(-120.5,-172.75)"
         fill="#2f2e41"
         id="path1051" />
      <path
         d="m 887,343.75 c 0,0 -17,-25 -23,-17 -6,8 15,23 15,23 z"
         transform="translate(-120.5,-172.75)"
         fill="#a0616a"
         id="path1053" />
      <path
         d="m 893,367.75 c -1,-1 -19,-18 -19,-18 l 13,-9 15,15 z"
         transform="translate(-120.5,-172.75)"
         fill="#575a89"
         id="path1055" />
      <path
         d="m 895.5,290.25 c 0,0 -13,1 -12,12 1,11 9.5,47.5 9.5,47.5 l 5,10 c 0,0 18.5,-57.5 -2.5,-69.5 z"
         transform="translate(-120.5,-172.75)"
         fill="#575a89"
         id="path1057" />
      <path
         d="m 896.5,255.25 3.6,12 h 45.1 l 1.30005,-13 3.9,13 H 956.2 l 1.30005,-13 3.9,13 h 6.1 L 961.7647,253.43317 A 111.387,111.387 0 0 1 955.71782,232.99084 38.51318,38.51318 0 0 0 918,202.25 v 0 q -0.79743,0 -1.58691,0.0321 c -25.27832,1.02491 -41.46729,27.4964 -31.76819,50.86237 L 890.5,267.25 h 4.80005 z"
         transform="translate(-120.5,-172.75)"
         fill="#2f2e41"
         id="path1059" />
      <path
         d="m 896,359.75 c 0,0 -31,26 -22,61 9,35 12,145 12,145 l 31,-3 v -138 l 43,82 7,59 35,-6 -16,-72 L 955.23127,395.972 952,369.49409 Z"
         transform="translate(-120.5,-172.75)"
         fill="#2f2e41"
         id="path1061" />
      <circle
         cx="797"
         cy="62.5"
         r="21"
         fill="#a0616a"
         id="circle1063" />
      <path
         d="m 905,249.75 c 0,0 9,33 4,37 -5,4 35,-13 35,-13 0,0 -17,-19 -15,-27 z"
         transform="translate(-120.5,-172.75)"
         fill="#a0616a"
         id="path1065" />
      <path
         d="m 942,266.75 c 0,0 -16.01139,13.77211 -31.5057,14.88605 0,0 -20.4943,11.11395 -19.4943,12.11395 1,1 4,15 4,15 0,0 5,7.72118 5,24 0,2 -7,30 -7,30 l 59,8 c 0,0 16,-52 17,-70 1,-18 7,-37 -2,-38 -9,-1 -25,4 -25,4 z"
         transform="translate(-120.5,-172.75)"
         fill="#575a89"
         id="path1067" />
      <path
         d="m 965,266.75 c 0,0 7,-6 11,8 4,14 20,58 16,67 -4,9 -28,49 -28,49 l -12,-8 24,-45 -14,-32 z"
         transform="translate(-120.5,-172.75)"
         fill="#575a89"
         id="path1069" />
      <path
         d="m 957,381.75 c 0,0 -31,19 -21,23 10,4 27,-17 27,-17 z"
         transform="translate(-120.5,-172.75)"
         fill="#a0616a"
         id="path1071" />
      <polygon
         points="785.75,59.5 808,59.5 811,50.5 811.75,59.5 821,59.5 821,38.5 774,38.5 774,59.5 782,59.5 785,50.5 "
         fill="#2f2e41"
         id="polygon1073" />
      <path
         d="m 894.5,310.25 c 0,0 -2,20 1,24 3,4 -1,-24 -1,-24 z"
         transform="translate(-120.5,-172.75)"
         opacity="0.2"
         id="path1075" />
      <rect
         x="177"
         y="486.5"
         width="424"
         height="2"
         fill="#3f3d56"
         id="rect1077" />
      <path
         d="M 695.71,507.36 572.69,630.38 a 100.28643,100.28643 0 0 1 -141.82,0 c -1.66,-1.66 -3.26,-3.37 -4.78,-5.13 a 96.84877,96.84877 0 0 1 -6.99,-9 98.77835,98.77835 0 0 1 -15.84,-38 q -0.855,-4.455 -1.29,-9 -0.465,-4.84506 -0.47,-9.78 a 100.75451,100.75451 0 0 1 3.72,-27.22 q 1.27506,-4.575 2.99,-9 a 100.066,100.066 0 0 1 22.66,-34.69 l 53.67,-53.67 a 14.997735,14.997735 0 0 1 21.21,21.21 l -53.67,53.67 a 70.86742,70.86742 0 0 0 -10.57,13.48 69.78657,69.78657 0 0 0 -10.01,36.22 72.046,72.046 0 0 0 0.67,9.78 68.42389,68.42389 0 0 0 1.86005,9 70.2693,70.2693 0 0 0 117.44995,30.92 l 30.92,-30.92 55,-55 37.1,-37.1 a 70.40164,70.40164 0 0 0 7.87,-90.02 15.00468,15.00468 0 0 1 24.61,-17.17 100.457,100.457 0 0 1 -11.27,128.4 z"
         transform="translate(-120.5,-172.75)"
         fill="#3f3d56"
         id="path1079" />
      <path
         d="m 888.5,273.03 q 0,1.11 -0.03,2.22 a 99.821,99.821 0 0 1 -8.33,38 96.82561,96.82561 0 0 1 -4.5,9 100.56063,100.56063 0 0 1 -16.51,21.69 l -53.67,53.67 A 14.99775,14.99775 0 0 1 784.25,376.4 l 53.67,-53.67 c 0.16,-0.16 0.32,-0.32 0.47,-0.48 a 69.874,69.874 0 0 0 20.07,-47 c 0.03,-0.74 0.04,-1.48 0.04,-2.22 q 0,-3.42 -0.32,-6.78 a 70.2081,70.2081 0 0 0 -20.26,-42.92 c -1.07,-1.07 -2.16,-2.1 -3.29,-3.08 a 70.28966,70.28966 0 0 0 -92.82,0 c -1.13,0.98 -2.22,2.01 -3.29,3.08 L 615.5,346.35 a 70.3745,70.3745 0 0 0 0,99.4 14.997735,14.997735 0 0 1 -21.21,21.21 100.39527,100.39527 0 0 1 0,-141.81995 L 717.31,202.12 a 100.38657,100.38657 0 0 1 156.21,18.13 96.266,96.266 0 0 1 4.97,9 99.43233,99.43233 0 0 1 9.78,37 q 0.225,3.375 0.23,6.78 z"
         transform="translate(-120.5,-172.75)"
         fill="#3f3d56"
         id="path1081" />
      <path
         d="m 245.8155,699.41567 c -4.58109,16.93445 -20.27235,27.42238 -20.27235,27.42238 0,0 -8.26385,-16.96824 -3.68276,-33.90269 4.58109,-16.93445 20.27235,-27.42236 20.27235,-27.42236 0,0 8.26384,16.96822 3.68276,33.90267 z"
         transform="translate(-120.5,-172.75)"
         fill="#a3be8c"
         id="path1083" />
      <path
         d="m 204.14038,699.41567 c 4.58109,16.93445 20.27235,27.42238 20.27235,27.42238 0,0 8.26384,-16.96824 3.68276,-33.90269 -4.58108,-16.93445 -20.27235,-27.42236 -20.27235,-27.42236 0,0 -8.26385,16.96822 -3.68276,33.90267 z"
         transform="translate(-120.5,-172.75)"
         fill="#a3be8c"
         id="path1085" />
      <path
         d="m 210.872,695.77627 c 12.57057,12.237 14.106,31.048 14.106,31.048 0,0 -18.84552,-1.029 -31.41609,-13.26592 -12.57057,-12.23692 -14.106,-31.048 -14.106,-31.048 0,0 18.84548,1.02898 31.41609,13.26592 z"
         transform="translate(-120.5,-172.75)"
         fill="#3f3d56"
         id="path1087" />
      <path
         d="m 239.08391,695.77627 c -12.57057,12.237 -14.106,31.048 -14.106,31.048 0,0 18.84552,-1.029 31.41609,-13.26592 12.57057,-12.23692 14.106,-31.048 14.106,-31.048 0,0 -18.84552,1.02898 -31.41609,13.26592 z"
         transform="translate(-120.5,-172.75)"
         fill="#3f3d56"
         id="path1089" />
      <path
         d="m 803.5,271.25 a 20.24728,20.24728 0 0 1 -0.4,4 20.005,20.005 0 0 1 -39.2,0 20.17518,20.17518 0 0 1 0.23,-9 20,20 0 0 1 39.37,5 z"
         transform="translate(-120.5,-172.75)"
         fill="#3f3d56"
         id="path1091" />
      <path
         d="m 508.5,574.25 a 20.24728,20.24728 0 0 1 -0.4,4 20.005,20.005 0 0 1 -39.2,0 20.17518,20.17518 0 0 1 0.23,-9 20,20 0 0 1 39.37,5 z"
         transform="translate(-120.5,-172.75)"
         fill="#3f3d56"
         id="path1093" />
      <rect
         x="0"
         y="552.5"
         width="231"
         height="2"
         fill="#3f3d56"
         id="rect1095" />
      <path
         d="m 699.18,220.25 h 42.63 c -1.13,0.98 -2.22,2.01 -3.29,3.08 l -5.92,5.92 h -42.42 z"
         transform="translate(-120.5,-172.75)"
         fill="#a3be8c"
         id="path1097" />
      <path
         d="m 878.49,229.25 h -35.28 a 70.16209,70.16209 0 0 0 -5.29,-5.92 c -1.07,-1.07 -2.16,-2.1 -3.29,-3.08 h 38.89 a 96.266,96.266 0 0 1 4.97,9 z"
         transform="translate(-120.5,-172.75)"
         fill="#a3be8c"
         id="path1099" />
      <polygon
         points="532.68,93.5 575.1,93.5 566.1,102.5 523.68,102.5 "
         fill="#a3be8c"
         id="polygon1101" />
      <path
         d="m 802.87,266.25 a 20.17518,20.17518 0 0 1 0.23,9 h -39.2 a 20.17518,20.17518 0 0 1 0.23,-9 z"
         transform="translate(-120.5,-172.75)"
         fill="#a3be8c"
         id="path1103" />
      <path
         d="m 888.5,273.03 q 0,1.11 -0.03,2.22 h -30.01 c 0.03,-0.74 0.04,-1.48 0.04,-2.22 q 0,-3.42 -0.32,-6.78 h 30.09 q 0.225,3.375 0.23,6.78 z"
         transform="translate(-120.5,-172.75)"
         fill="#a3be8c"
         id="path1105" />
      <polygon
         points="485.68,140.5 528.1,140.5 519.1,149.5 476.68,149.5 "
         fill="#a3be8c"
         id="polygon1107" />
      <path
         d="m 880.14,313.25 a 96.82561,96.82561 0 0 1 -4.5,9 h -37.25 a 69.43047,69.43047 0 0 0 7.49,-9 z"
         transform="translate(-120.5,-172.75)"
         fill="#a3be8c"
         id="path1109" />
      <path
         d="m 441.51,523.25 a 69.76893,69.76893 0 0 0 -4.57,9 h -31.72 q 1.27506,-4.575 2.99,-9 z"
         transform="translate(-120.5,-172.75)"
         fill="#a3be8c"
         id="path1111" />
      <polygon
         points="559.32,350.5 550.32,359.5 507.9,359.5 516.9,350.5 "
         fill="#a3be8c"
         id="polygon1113" />
      <path
         d="m 434.03,578.25 h -30.77 q -0.855,-4.455 -1.29,-9 h 30.2 a 68.42389,68.42389 0 0 0 1.86,9 z"
         transform="translate(-120.5,-172.75)"
         fill="#a3be8c"
         id="path1115" />
      <path
         d="m 508.5,574.25 a 20.24728,20.24728 0 0 1 -0.4,4 h -39.2 a 20.17518,20.17518 0 0 1 0.23,-9 h 38.74 a 20.14631,20.14631 0 0 1 0.63,5 z"
         transform="translate(-120.5,-172.75)"
         fill="#a3be8c"
         id="path1117" />
      <polygon
         points="513.32,396.5 504.32,405.5 461.9,405.5 470.9,396.5 "
         fill="#a3be8c"
         id="polygon1119" />
      <path
         d="m 476.94,625.25 h -50.85 a 96.84877,96.84877 0 0 1 -6.99,-9 h 41.24 a 69.57992,69.57992 0 0 0 16.6,9 z"
         transform="translate(-120.5,-172.75)"
         fill="#a3be8c"
         id="path1121" />
      <path
         d="m 586.82,616.25 -9,9 h -51.2 a 69.57992,69.57992 0 0 0 16.6,-9 z"
         transform="translate(-120.5,-172.75)"
         fill="#a3be8c"
         id="path1123" />
      <path
         d="m 436.094,342.48439 c -7.6454,-12.91835 -22.77119,-13.5204 -22.77119,-13.5204 0,0 -14.73923,-1.88484 -24.19435,17.79 -8.81293,18.33853 -20.97589,36.04476 -1.95814,40.33768 l 3.43516,-10.69175 2.12738,11.48773 a 74.41154,74.41154 0 0 0 8.137,0.13907 c 20.36647,-0.65755 39.76246,0.19238 39.13794,-7.116 -0.83024,-9.71542 3.44257,-25.9963 -3.9138,-38.42633 z"
         transform="translate(-120.5,-172.75)"
         fill="#2f2e41"
         id="path1125" />
      <polygon
         points="260.5,455 261.5,481 279.5,481 278.5,453 "
         fill="#fbbebe"
         id="polygon1127" />
      <path
         d="m 430,443.75 -1.82,6.05 -23.58,78.33 -2.6,8.62 2,92 -25,3 c 0,0 -0.73,-9.66 -1.8,-23.92 -2.15,-28.24 -5.67,-74.55 -7.71,-99.75 -0.75,-9.32 -1.29,-15.75 -1.49,-17.33 -1,-8 12,-48 12,-48 l 26,-2 z"
         transform="translate(-120.5,-172.75)"
         fill="#2f2e41"
         id="path1129" />
      <path
         d="m 387,650.75 c 0,0 -7,-8 -8,-2 -1,6 -13,29 -13,29 0,0 -35,23 -5,25 0,0 15,-2 20,-10 0,0 8,-5 10,-5 2,0 14,-4 12,-10 -2,-6 -1,-28 -1,-28 z"
         transform="translate(-120.5,-172.75)"
         fill="#2f2e41"
         id="path1131" />
      <polygon
         points="265.5,431 274.5,448 288.5,441 279.5,421 "
         fill="#fbbebe"
         id="polygon1133" />
      <path
         d="m 379,554.75 c 0,0 -7.46,-16.3 -9.5,-41.5 14.48,-16.18 32,-34 32,-34 l 21,-1 6.5,-0.5 c 1.52,15.2 -11.34,34.78 -24.4,50.38 A 279.192,279.192 0 0 1 379,554.75 Z"
         transform="translate(-120.5,-172.75)"
         opacity="0.2"
         id="path1135" />
      <path
         d="m 405,478.75 c 0,0 -64,56 -55,79 9,23 34,51 34,51 L 403.31461,597.222 385,554.75 c 0,0 7.67809,-6.80887 17.024,-16.89766 C 417.23275,521.43475 436.85815,496.33148 435,477.75 l -1,-34 -17,2 z"
         transform="translate(-120.5,-172.75)"
         fill="#2f2e41"
         id="path1137" />
      <path
         d="m 399,616.75 c 0,0 -7,0 -6,6 1,6 3,16 3,16 0,0 -8,47 11,36 19,-11 14,-40 14,-40 0,0 7,-18 -2,-20 -9,-2 -12,-4 -13,-3 -1,1 -7,5 -7,5 z"
         transform="translate(-120.5,-172.75)"
         fill="#2f2e41"
         id="path1139" />
      <circle
         cx="292.5"
         cy="181"
         r="18"
         fill="#fbbebe"
         id="circle1141" />
      <path
         d="m 406,360.75 c 0,0 8,21 5,22 -3,1 -9,6 -9,6 l 10,9 26,-14 c 0,0 -12,-16 -11,-23 z"
         transform="translate(-120.5,-172.75)"
         fill="#fbbebe"
         id="path1143" />
      <path
         d="m 438,379.75 c 0,0 -20.92467,10.315 -28.46234,3.65748 0,0 -12.53766,-0.65748 -14.53766,6.34252 -2,7 2,13 -3,15 -5,2 -8.5,7.5 -5.5,16.5 3,9 2.5,10.5 -1.5,13.5 -4,3 -8,9 -8,11 0,2 -4,2 -2,4 2,2 -2,0 2,2 4,2 15,-16 23,-7 8,9 33,24 35,15 2,-9 8,-31 8,-31 0,0 21,-39 15,-43 -6,-4 -20,-6 -20,-6 z"
         transform="translate(-120.5,-172.75)"
         fill="#cfcce0"
         id="path1145" />
      <path
         d="m 435,449.75 c 0,0 -11,-2 -14,5 -3,7 -20,23 -9,24 11,1 19,-17 19,-17 l 11,-2 z"
         transform="translate(-120.5,-172.75)"
         fill="#fbbebe"
         id="path1147" />
      <path
         d="m 446,385.75 13.07813,0.72835 c 0,0 5.92187,6.27165 6.92187,12.27165 1,6 20,51 8,56 -12,5 -38,8 -38,8 l -3,-14 17,-6 -12,-25 z"
         transform="translate(-120.5,-172.75)"
         fill="#cfcce0"
         id="path1149" />
      <polygon
         points="266,382.5 282.449,423.623 263,382.5 280,364.5 "
         opacity="0.2"
         id="polygon1151" />
      <polygon
         points="256.143,427.766 263,436.5 258,436.5 "
         opacity="0.2"
         id="polygon1153" />
      <circle
         cx="294.67401"
         cy="156.27942"
         r="10.93678"
         fill="#2f2e41"
         id="circle1155" />
      <path
         d="m 403.086,326.15133 a 10.9372,10.9372 0 0 1 9.78554,-10.8753 11.04689,11.04689 0 0 0 -1.15124,-0.0615 10.93678,10.93678 0 1 0 0,21.87355 11.04689,11.04689 0 0 0 1.15124,-0.0615 10.93719,10.93719 0 0 1 -9.78554,-10.87529 z"
         transform="translate(-120.5,-172.75)"
         fill="#2f2e41"
         id="path1157" />
      <polygon
         points="276.634,163.864 272.364,182.721 282.993,182.312 285.962,175.384 285.962,182.198 290.866,182.009 293.712,170.98 295.491,182.721 312.925,182.365 312.214,168.489 297.27,160.662 "
         fill="#2f2e41"
         id="polygon1159" />
    </g>
  </g>
</svg>
