<svg xmlns="http://www.w3.org/2000/svg" version="1.1" viewBox="0 0 190.5 95.250003" height="360" width="720">
  <g id="layer1">
    <g transform="matrix(0.07993352,0,0,0.079375,100.15114,0)" id="g850">
      <path d="m 600,0 530.3,300 V 900 L 600,1200 69.7,900 V 300 Z" fill="#ffffff" id="path833" />
      <path
        d="M 1035.6,879.3 617.5,1115.8 V 931.6 L 878,788.3 Z m 28.6,-25.9 V 358.8 l -153,88.3 V 765 Z m -901.5,25.9 418.1,236.5 V 931.6 L 320.3,788.3 Z M 134.1,853.4 V 358.8 l 153,88.3 V 765 Z M 152,326.8 580.8,84.2 v 178.1 l -274.7,151.1 -2.1,1.2 z m 894.3,0 L 617.5,84.2 v 178.1 l 274.7,151.1 2.1,1.2 z"
        fill="#8ed6fb" id="path835" />
      <path
        d="m 580.8,889.7 -257,-141.3 v -280 l 257,148.4 z m 36.7,0 257,-141.3 v -280 l -257,148.4 z M 341.2,436 l 258,-141.9 258,141.9 -258,149 z"
        fill="#1c78c0" id="path837" />
    </g>
  </g>
</svg>
